<?xml version="1.0" encoding="UTF-8" standalone="no"?>
<!DOCTYPE svg PUBLIC "-//W3C//DTD SVG 1.1//EN" "http://www.w3.org/Graphics/SVG/1.1/DTD/svg11.dtd">
<svg width="100%" height="100%" viewBox="0 0 220 220" version="1.1" xmlns="http://www.w3.org/2000/svg" xmlns:xlink="http://www.w3.org/1999/xlink" xml:space="preserve" xmlns:serif="http://www.serif.com/" style="fill-rule:evenodd;clip-rule:evenodd;stroke-linecap:round;stroke-linejoin:round;stroke-miterlimit:1.5;">
    <g transform="matrix(1,0,0,1,-480,0)">
        <g id="Dis" transform="matrix(1,0,0,1,451.944,-21.3469)">
            <rect x="28.056" y="21.347" width="220" height="220" style="fill:none;"/>
            <g transform="matrix(1,0,0,1,-515.24,-551.389)">
                <path d="M682.578,718.504C680.224,725.877 676.392,732.593 671.433,738.303C671.342,738.408 671.273,738.531 671.232,738.664C670.594,740.73 665.238,758.069 663.643,763.233C663.525,763.615 663.26,763.934 662.905,764.118C662.551,764.302 662.137,764.337 661.757,764.214C656.894,762.646 641.265,757.607 639.153,756.926C638.998,756.876 638.833,756.865 638.672,756.893C635.479,757.455 632.195,757.749 628.842,757.749C597.716,757.749 572.446,732.479 572.446,701.353C572.446,670.227 597.716,644.957 628.842,644.957C644.298,644.957 658.311,651.189 668.502,661.274C686.616,653.764 703.086,655.668 703.086,655.668C722.708,657.35 731.375,676.043 731.375,676.043C734.999,683.519 734.44,691.901 733.22,697.995C729.448,716.833 710.234,722.943 710.234,722.943C704.207,725.326 695.237,723.364 695.237,723.364C690.59,722.468 686.188,720.52 682.578,718.504Z" style="fill:rgb(58,53,56);stroke:black;stroke-width:2px;"/>
                <g transform="matrix(0.847749,0,0,0.855324,96.5566,95.7828)">
                    <path d="M682.578,718.504C680.224,725.877 676.392,732.593 671.433,738.303C671.342,738.408 667.834,742.289 667.793,742.422C667.155,744.488 665.238,758.069 663.643,763.233C663.525,763.615 663.26,763.934 662.905,764.118C662.551,764.302 662.137,764.337 661.757,764.214C656.894,762.646 641.265,757.607 639.153,756.926C638.998,756.876 638.83,756.933 638.672,756.893C633.928,755.708 632.191,757.06 628.842,756.91C597.716,755.511 572.446,732.479 572.446,701.353C572.446,670.227 597.716,644.957 628.842,644.957C644.298,644.957 658.311,651.189 668.502,661.274C688.203,657.959 703.086,655.668 703.086,655.668C728.461,659.011 733.742,666.028 737.747,672.601C741.772,679.207 742.62,688.487 741.4,694.582C737.629,713.419 718.845,718.142 718.845,718.142C712.818,720.525 696.852,713.762 696.852,713.762C692.204,712.866 684.978,710.988 682.578,718.504Z" style="fill:rgb(81,73,77);"/>
                </g>
                <path d="M682.578,718.504C680.224,725.877 676.392,732.593 671.433,738.303C671.342,738.408 671.273,738.531 671.232,738.664C670.594,740.73 665.238,758.069 663.643,763.233C663.525,763.615 663.26,763.934 662.905,764.118C662.551,764.302 662.137,764.337 661.757,764.214C656.894,762.646 641.265,757.607 639.153,756.926C638.998,756.876 638.833,756.865 638.672,756.893C635.479,757.455 632.195,757.749 628.842,757.749C597.716,757.749 572.446,732.479 572.446,701.353C572.446,670.227 597.716,644.957 628.842,644.957C644.298,644.957 658.311,651.189 668.502,661.274C686.616,653.764 703.086,655.668 703.086,655.668C722.708,657.35 731.375,676.043 731.375,676.043C734.999,683.519 734.44,691.901 733.22,697.995C729.448,716.833 710.234,722.943 710.234,722.943C704.207,725.326 695.237,723.364 695.237,723.364C690.59,722.468 686.188,720.52 682.578,718.504Z" style="fill:none;"/>
                <clipPath id="_clip1">
                    <path d="M682.578,718.504C680.224,725.877 676.392,732.593 671.433,738.303C671.342,738.408 671.273,738.531 671.232,738.664C670.594,740.73 665.238,758.069 663.643,763.233C663.525,763.615 663.26,763.934 662.905,764.118C662.551,764.302 662.137,764.337 661.757,764.214C656.894,762.646 641.265,757.607 639.153,756.926C638.998,756.876 638.833,756.865 638.672,756.893C635.479,757.455 632.195,757.749 628.842,757.749C597.716,757.749 572.446,732.479 572.446,701.353C572.446,670.227 597.716,644.957 628.842,644.957C644.298,644.957 658.311,651.189 668.502,661.274C686.616,653.764 703.086,655.668 703.086,655.668C722.708,657.35 731.375,676.043 731.375,676.043C734.999,683.519 734.44,691.901 733.22,697.995C729.448,716.833 710.234,722.943 710.234,722.943C704.207,725.326 695.237,723.364 695.237,723.364C690.59,722.468 686.188,720.52 682.578,718.504Z"/>
                </clipPath>
                <g clip-path="url(#_clip1)">
                    <g transform="matrix(0.966967,0,0,1.05127,7.02015,-6.69673)">
                        <circle cx="668.676" cy="573.01" r="74.183" style="fill:rgb(108,97,101);"/>
                    </g>
                </g>
                <path d="M682.578,718.504C680.224,725.877 676.392,732.593 671.433,738.303C671.342,738.408 671.273,738.531 671.232,738.664C670.594,740.73 665.238,758.069 663.643,763.233C663.525,763.615 663.26,763.934 662.905,764.118C662.551,764.302 662.137,764.337 661.757,764.214C656.894,762.646 641.265,757.607 639.153,756.926C638.998,756.876 638.833,756.865 638.672,756.893C635.479,757.455 632.195,757.749 628.842,757.749C597.716,757.749 572.446,732.479 572.446,701.353C572.446,670.227 597.716,644.957 628.842,644.957C644.298,644.957 658.311,651.189 668.502,661.274C686.616,653.764 703.086,655.668 703.086,655.668C722.708,657.35 731.375,676.043 731.375,676.043C734.999,683.519 734.44,691.901 733.22,697.995C729.448,716.833 710.234,722.943 710.234,722.943C704.207,725.326 695.237,723.364 695.237,723.364C690.59,722.468 686.188,720.52 682.578,718.504Z" style="fill:none;stroke:black;stroke-width:2px;"/>
                <path d="M679.018,689.832C679.018,689.832 668.273,691.468 661.148,690.066L661.966,698.242C661.966,698.242 666.287,691.701 679.018,689.832Z" style="fill:rgb(108,97,101);fill-opacity:0.5;"/>
                <g>
                    <g transform="matrix(1.0966,0,0,1.13283,-60.7485,-91.8469)">
                        <circle cx="628.842" cy="701.353" r="36.271" style="fill:rgb(58,53,56);"/>
                    </g>
                    <circle cx="628.842" cy="701.353" r="36.271" style="fill:rgb(222,29,116);"/>
                    <path d="M594.605,689.358C594.324,691.215 594.178,693.118 594.178,695.057C594.178,715.075 609.711,731.328 628.842,731.328C647.973,731.328 663.505,715.075 663.505,695.057C663.505,693.118 663.36,691.215 663.079,689.358C664.396,693.113 665.113,697.15 665.113,701.353C665.113,721.371 648.86,737.624 628.842,737.624C608.823,737.624 592.571,721.371 592.571,701.353C592.571,697.15 593.287,693.113 594.605,689.358Z" style="fill:rgb(149,25,82);"/>
                    <g transform="matrix(0.739623,0,0,0.739623,163.736,182.616)">
                        <circle cx="628.842" cy="701.353" r="36.271" style="fill:rgb(232,140,166);"/>
                    </g>
                    <g transform="matrix(0.34061,0,0,0.34061,413.456,452.878)">
                        <circle cx="628.842" cy="701.353" r="36.271" style="fill:rgb(243,196,206);"/>
                    </g>
                    <circle cx="628.842" cy="701.353" r="36.271" style="fill:none;stroke:black;stroke-width:2.5px;"/>
                </g>
                <g>
                    <g transform="matrix(1.25854,0,0,1.25906,-180.558,-177.201)">
                        <circle cx="698.372" cy="689.035" r="16.561" style="fill:rgb(58,53,56);"/>
                    </g>
                    <circle cx="698.372" cy="689.035" r="16.561" style="fill:rgb(222,29,116);"/>
                    <path d="M683.333,682.094C683.323,682.343 683.318,682.593 683.318,682.844C683.318,691.985 690.063,699.406 698.372,699.406C706.681,699.406 713.427,691.985 713.427,682.844C713.427,682.593 713.422,682.343 713.411,682.094C714.388,684.206 714.934,686.557 714.934,689.035C714.934,698.175 707.513,705.596 698.372,705.596C689.232,705.596 681.811,698.175 681.811,689.035C681.811,686.557 682.356,684.206 683.333,682.094Z" style="fill:rgb(149,25,82);"/>
                    <g transform="matrix(0.464463,0,0,0.464463,374.004,369.004)">
                        <circle cx="698.372" cy="689.035" r="16.561" style="fill:rgb(232,140,166);"/>
                    </g>
                    <circle cx="698.372" cy="689.035" r="16.561" style="fill:none;stroke:black;stroke-width:1.5px;"/>
                </g>
                <path d="M629.328,619.392L644.87,643.001C644.87,643.001 658.325,644.465 669.07,656.051C669.07,656.051 678.071,650.445 696.852,651.286C696.852,651.286 706.274,650.616 707.535,643.686C707.535,643.686 712.674,605.657 680.812,601.359C680.812,601.359 672.963,600.238 664.461,603.695L629.328,619.392Z" style="fill:rgb(69,62,65);stroke:black;stroke-width:2px;"/>
                <path d="M642.496,617.707L650.404,630.938C650.404,630.938 667.285,638.085 669.87,643.408C669.87,643.408 677.626,637.021 698.461,637.629C698.461,637.629 700.306,626.337 696.94,617.707C695.225,613.31 688.614,597.975 665.992,607.29L642.496,617.707" style="fill:rgb(107,97,101);"/>
                <g>
                    <g transform="matrix(1.30416,0,0,1.33964,-205.672,-212.246)">
                        <circle cx="676.199" cy="627.443" r="13.824" style="fill:rgb(58,53,56);"/>
                    </g>
                    <g transform="matrix(1,0,0,1,0,-0.330669)">
                        <circle cx="676.199" cy="627.443" r="13.824" style="fill:rgb(222,29,116);"/>
                    </g>
                    <path d="M663.517,621.605C663.899,628.863 669.435,634.629 676.199,634.629C682.963,634.629 688.5,628.863 688.881,621.605C689.616,623.293 690.023,625.155 690.023,627.112C690.023,634.742 683.829,640.936 676.199,640.936C668.57,640.936 662.375,634.742 662.375,627.112C662.375,625.155 662.783,623.293 663.517,621.605Z" style="fill:rgb(149,25,82);"/>
                    <g transform="matrix(0.34606,0,0,0.34606,442.194,409.979)">
                        <circle cx="676.199" cy="627.443" r="13.824" style="fill:rgb(232,140,166);"/>
                    </g>
                    <g transform="matrix(1,0,0,1,0,-0.330669)">
                        <circle cx="676.199" cy="627.443" r="13.824" style="fill:none;stroke:black;stroke-width:1.2px;"/>
                    </g>
                </g>
            </g>
        </g>
    </g>
</svg>
