<svg fill="none" height="38" viewBox="0 0 37 38" width="37" xmlns="http://www.w3.org/2000/svg"><path d="m6.02395 29.1449-.35745.3601.36534.3521 2.25304 2.1715.36535.3521.34671-.3705 11.59796-12.3935c.3166.258.6808.4894 1.0968.6181.6104.1887 1.2819.1411 2.0018-.2543.0112.0044.0256.0106.0437.0192.0621.0295.132.0703.233.1296l.0008.0005c.0938.0551.2097.1231.3359.185.2561.1255.5896.2437.9876.2114.358-.029.7165-.1752 1.0786-.4549.0048.0025.0099.0051.0152.008.0679.0362.1429.0821.2402.1416.0119.0073.0241.0148.0367.0224.1093.0668.2384.1448.3781.2173.2762.1433.6329.2867 1.0403.2855.425-.0012.8497-.1591 1.2511-.5194l.3784-.3397-.346-.3726c-.6186-.6663-1.1023-1.1498-2.0038-1.9664l-.08-.0725-.1027-.033-3.4762-1.1169 4.5985-5.5442c.0698.1017.1344.2195.1936.3532.1396.3152.2339.6857.2951 1.0581.1227.7471.1004 1.4283.0943 1.5176l-.0844 1.2223.9155-.8142c.3672-.3267.5938-.5749.7955-.8095.044-.0513.0859-.1006.127-.149.1464-.1727.2838-.3347.4809-.5358l.1169-.1193.0217-.1656c.1027-.7821.003-1.8339-.1999-2.77124-.1025-.47377-.2347-.9338-.3894-1.33126-.1509-.38759-.3381-.75495-.5676-1.01097l-.0244-.02724-.0282-.0234c-.2636-.21931-.6391-.39499-1.0345-.53454-.4056-.14317-.8741-.2627-1.3557-.35214-.9517-.17677-2.0176-.24745-2.7983-.11557l-.1647.02782-.1149.12124c-.1936.20432-.3505.34763-.5176.50034-.0469.04287-.0947.08647-.1442.13238-.2271.2102-.4668.44579-.7797.82483l-.7799.94487 1.2183-.12938c.0891-.00946.7689-.05677 1.5201.0383.3744.04739.7481.12797 1.0683.25584.1357.05421.2559.11451.36.18049l-5.3709 4.79973-1.2443-3.4327-.0367-.1014-.0754-.0773c-.8493-.87074-1.3503-1.33628-2.039-1.92995l-.3851-.33202-.3255.39067c-.3452.41438-.4874.84459-.4729 1.26941.0138.40719.1703.75829.3237 1.02899.0775.1369.1602.2631.231.3699.0081.0123.0161.0242.0237.0358.0631.0951.1117.1684.1505.2349.003.0051.0058.0101.0085.0149-.2661.3721-.399.7358-.4148 1.0946-.0176.3989.1128.7279.2477.9792.0664.1237.1387.2371.1972.3288l.0005.0008c.063.0987.1063.1671.1381.2281.0092.0177.016.0319.0208.0429-.3686.734-.3914 1.4067-.1803 2.0098.1439.411.3885.7664.658 1.0733zm17.63735-9.175c0-.0001.0009 0 .0029.0005-.0018-.0002-.0028-.0005-.0029-.0005zm-6.1457-5.9233c-.0001 0-.0003-.001-.0007-.0028.0006.002.0008.0029.0007.0028z" fill="#ffc107" stroke="#4f4f4f"/></svg>