<svg fill="none" height="49" viewBox="0 0 48 49" width="48" xmlns="http://www.w3.org/2000/svg"><path clip-rule="evenodd" d="m40.6799 1.34363c1.1292.21484 2.323.91269 3.6036 2.05428l.0209-.02124c.1309.13096.2576.26105.3799.39029.1227.11648.2462.23688.3705.36118l-.0198.02021c1.1429 1.28188 1.8453 2.48026 2.0685 3.61793.2722 1.38675-.1749 2.64102-1.2977 3.78482l-1.565 1.5941h.0001l-4.8906 4.9817c-1.1229 1.1438-2.3615 1.6066-3.7379 1.3447-.8622-.164-1.762-.6096-2.7094-1.3193l-1.1017 1.1017c.7401.9732 1.2066 1.8985 1.3809 2.7868.2722 1.3868-.1749 2.6411-1.2978 3.7848l-1.5649 1.5941.0001.0001-4.8906 4.9817c-1.1229 1.1437-2.3615 1.6065-3.738 1.3447-.8517-.1621-1.7402-.599-2.675-1.2938l-1.1945 1.1945c.7401.9732 1.2066 1.8985 1.3809 2.7868.2722 1.3867-.1749 2.6411-1.2978 3.7848l-1.5649 1.5941h.0001l-4.8906 4.9817c-1.1229 1.1438-2.3615 1.6066-3.73796 1.3447-1.12922-.2148-2.323-.9126-3.60359-2.0542l-.02061.021c-.12937-.1294-.25456-.2579-.37553-.3856-.12425-.1179-.2493-.2398-.3752-.3657l.02008-.0204c-1.14285-1.2819-1.84526-2.4803-2.06853-3.6179-.27216-1.3868.17494-2.6411 1.29779-3.7848l1.56469-1.5939-.0001-.0001 4.89059-4.9817c1.12287-1.1437 2.36147-1.6065 3.73797-1.3446.9226.1755 1.8884.6735 2.9093 1.4725l1.1415-1.1414c-.8455-1.0585-1.3738-2.0603-1.5619-3.0189-.2722-1.3867.1749-2.6411 1.2978-3.7848l1.5646-1.5938-.0001-.0001 4.8906-4.9817c1.1229-1.1438 2.3615-1.6066 3.738-1.3447.9226.1755 1.8884.6735 2.9093 1.4725l1.0564-1.0564c-.8299-1.0462-1.3492-2.037-1.5353-2.9855-.2722-1.3868.1749-2.6411 1.2978-3.78485l1.5647-1.59383-.0001-.0001 4.8906-4.98169c1.1228-1.14377 2.3614-1.60657 3.7379-1.3447zm-5.2317 14.26347.673-.673c.5932-.5932.5932-1.555 0-2.1483-.5933-.5932-1.5551-.5932-2.1484 0l-.7797.7798c-.1808-.3407-.2817-.6666-.3084-.9803-.0575-.6753.2246-1.3538.9262-2.0685l1.0677-1.08753 2.2682-2.31046 1.0677-1.08754c.7016-.71466 1.3712-1.0057 2.0409-.95389.6239.04828 1.2994.39736 2.0471 1.09404.6987.74916 1.0515 1.42851 1.1051 2.05843.0576.67536-.2246 1.35385-.9262 2.06855l-1.0676 1.0873-2.2683 2.3107-1.0675 1.0873c-.7016.7147-1.3713 1.0057-2.0409.9539-.1913-.0148-.3874-.0578-.5889-.1305zm-8.2758 3.9792-.578.578c-.5933.5932-.5933 1.555 0 2.1483.5932.5932 1.5551.5932 2.1483 0l.5499-.5499c.1096.2552.1733.502.1937.7417.0575.6753-.2246 1.3538-.9262 2.0685l-1.0676 1.0874-3.3359 3.398c-.7015.7146-1.3712 1.0057-2.0408.9539-.1772-.0137-.3586-.0517-.5446-.115l.5702-.5702c.5932-.5932.5932-1.5551 0-2.1483-.5933-.5932-1.5551-.5932-2.1484 0l-.7003.7003c-.194-.3548-.3016-.6936-.3294-1.0191-.0575-.6754.2247-1.3539.9263-2.0686l1.0677-1.0875 2.2682-2.3105 1.0676-1.0875c.7016-.7147 1.3713-1.0057 2.0409-.9539.2693.0209.5482.0977.8384.2344zm-14.5578 17.1192c-.5932-.5933-.5932-1.5551 0-2.1484l.578-.5779c-.2902-.1367-.5691-.2136-.8384-.2344-.6696-.0518-1.3393.2392-2.0408.9539l-1.06774 1.0875-2.26817 2.3105-1.06769 1.0875c-.70159.7147-.98377 1.3932-.92625 2.0685.05359.6294.40579 1.308 1.10318 2.0563.74854.698 1.42475 1.0477 2.04924 1.096.66966.0519 1.33929-.2392 2.04093-.9538l1.0675-1.0874 2.2683-2.3106 1.0676-1.0874c.7016-.7147.9837-1.3932.9262-2.0685-.0204-.2397-.0841-.4866-.1937-.7417l-.5499.5499c-.5932.5932-1.5551.5932-2.1483 0z" fill="#2196f3" fill-rule="evenodd"/><path d="m44.2835 3.39791-.3327.37323.3557.3171.3338-.34006zm-3.6036-2.05428-.0935.49119zm3.6245 2.03304.3535-.35355-.3568-.35685-.3535.36014zm.3799.39029-.3631.34373.0092.00969.0097.00918zm.3705.36118.3568.35027.3471-.35353-.3503-.3503zm-.0198.02021-.3568-.35027-.3277.33383.3113.34917zm2.0685 3.61793.4907-.09629zm-1.2977 3.78482-.3568-.3503zm-1.565 1.5941-.3568-.3503-.347.3535.3503.3503zm.0001 0 .3568.3503.347-.3535-.3503-.3503zm-4.8906 4.9817-.3568-.3503zm-3.7379 1.3447-.0935.4912zm-2.7094-1.3193.2998-.4002-.3469-.2598-.3064.3064zm-1.1017 1.1017-.3536-.3535-.3087.3087.2643.3475zm1.3809 2.7868-.4906.0963zm-1.2978 3.7848.3568.3503zm-1.5649 1.5941-.3568-.3503-.3471.3536.3504.3503zm.0001.0001.3568.3502.347-.3535-.3503-.3503zm-4.8906 4.9817.3568.3502zm-3.738 1.3447-.0934.4911zm-2.675-1.2938.2982-.4013-.3465-.2575-.3053.3053zm-1.1945 1.1945-.3536-.3536-.3087.3088.2643.3475zm1.3809 2.7868-.4906.0963zm-1.2978 3.7848-.3568-.3503zm-1.5649 1.5941-.3568-.3503-.3471.3535.3504.3503zm.0001 0 .3568.3503.347-.3535-.3503-.3503zm-4.8906 4.9817-.3568-.3502zm-3.73796 1.3447.09345-.4912zm-3.60359-2.0542.33272-.3732-.35569-.3171-.33382.34zm-.02061.021-.35356.3535.35683.3569.35352-.3601zm-.37553-.3856.36299-.3439-.00918-.0096-.00968-.0092zm-.3752-.3657-.35682-.3502-.34703.3535.3503.3503zm.02008-.0204.35681.3502.3277-.3338-.3113-.3492zm-2.06853-3.6179-.49064.0963zm1.29779-3.7848-.3568-.3503zm1.56469-1.5939.3568.3503.34705-.3535-.3503-.3503zm-.0001-.0001-.3568-.3502-.34706.3535.35031.3503zm4.89059-4.9817.35681.3503zm3.73797-1.3446-.0935.4911zm2.9093 1.4725-.3081.3937.3486.2729.3131-.3131zm1.1415-1.1414.3535.3535.3162-.3162-.2791-.3494zm-1.5619-3.0189-.4907.0963zm1.2978-3.7848.3568.3503zm1.5646-1.5938.3568.3502.3471-.3535-.3503-.3503zm-.0001-.0001-.3568-.3503-.347.3535.3503.3503zm4.8906-4.9817-.3568-.3503zm3.738-1.3447-.0935.4912zm2.9093 1.4725-.3081.3938.3486.2728.3131-.313zm1.0564-1.0564.3536.3536.3151-.3152-.2769-.3491zm-1.5353-2.9855.4906-.0963zm1.2978-3.78485.3568.35027zm1.5647-1.59383.3568.35027.347-.35352-.3503-.3503zm-.0001-.0001-.3568-.35027-.3471.35352.3503.35031zm4.8906-4.98169.3568.35027zm-1.4938 12.91877-.3535-.3536-.5568.5568.7407.2671zm-1.4754-2.8213-.3535-.3535zm-.7797.7798-.4416.2344.317.5973.4781-.4782zm-.3084-.9803.4982-.0424zm.9262-2.0685-.3568-.3503zm1.0677-1.08753.3568.35028v-.00001zm2.2682-2.31046-.3568-.35028v.00001zm1.0677-1.08754.3568.35028zm2.0409-.95389-.0386.49851zm2.0471 1.09404.3656-.34102-.012-.01283-.0128-.01195zm1.1051 2.05843.4982-.04243zm-.9262 2.06855.3568.3503v-.0001zm-1.0676 1.0873-.3568-.3502zm-2.2683 2.3107.3568.3503v-.0001zm-1.0675 1.0873-.3568-.3502zm-2.0409.9539-.0386.4985zm-8.8647 3.8487.3535.3535.5029-.5028-.6434-.303zm-.578 2.7263-.3536.3535zm2.1483 0 .3536.3535zm.5499-.5499.4594-.1974-.2913-.6778-.5217.5217zm.1937.7417-.4982.0424zm-.9262 2.0685-.3568-.3503zm-1.0676 1.0874-.3535.3536.3568.3568.3535-.3601zm0 0 .3536-.3536-.3569-.3568-.3535.3601zm-3.3359 3.398-.3568-.3503zm-2.0408.9539.0385-.4985zm-.5446-.115-.3535-.3536-.5681.568.7605.2589zm.5702-2.7185-.3536.3536zm-2.8487.7003-.4387.2399.3203.5856.472-.4719zm-.3294-1.0191.4982-.0425zm.9263-2.0686-.3568-.3502zm1.0677-1.0875.3568.3503zm2.2682-2.3105-.3568-.3502zm1.0676-1.0875.3568.3503h.0001zm2.0409-.9539.0386-.4985zm-13.7194 15.2052.3535.3536zm0 2.1484-.3536.3535zm.578-2.7263.3535.3535.5029-.5028-.6434-.3031zm-.8384-.2344.0386-.4985zm-2.0408.9539.3567.3503h.0001zm-1.06774 1.0875-.35679-.3503-.00001.0001zm-2.26817 2.3105.3568.3503h.00001zm-1.06769 1.0875-.3568-.3503v.0001zm-.92625 2.0685.4982-.0424zm1.10318 2.0563-.36578.3409.01196.0128.01282.012zm2.04924 1.096-.03857.4986zm2.04093-.9538-.35684-.3503h-.00001zm1.0675-1.0874.3568.3503zm2.2683-2.3106-.3568-.3503zm1.0676-1.0874.3568.3503zm.9262-2.0685-.4982.0424zm-.1937-.7417.4594-.1974-.2913-.6778-.5217.5217zm-.5499.5499.3536.3535zm29.8533-33.68082c-1.3121-1.16969-2.5869-1.93328-3.8429-2.172235l-.1869.982375c1.0025.19072 2.1153.82283 3.3644 1.93632zm-.6686.00173-.0209.02124.7136.70053.0209-.02125zm1.0998.39681c-.1256-.13271-.2555-.26607-.3895-.4001l-.7071.7071c.1279.12789.2514.25471.3704.38047zm.361.35136c-.1273-.12721-.2538-.25064-.3798-.37023l-.6885.72521c.1194.11337.2398.23075.3612.35214zm-.0166.72403.0198-.0202-.7136-.70054-.0198.02021zm2.2024 3.17138c-.2478-1.26239-1.0148-2.54066-2.186-3.85438l-.7464.66547c1.1145 1.25006 1.7523 2.36854 1.9511 3.38149zm-1.4316 4.23141c1.2152-1.2379 1.7414-2.65293 1.4316-4.23141l-.9813.19258c.2345 1.19501-.1335 2.28863-1.1639 3.33823zm-1.565 1.5941 1.565-1.5941-.7136-.7006-1.565 1.5941zm-.0032-.7038v-.0001l-.7071.7071v.0001zm-4.8873 5.6855 4.8906-4.9817-.7136-.7006-4.8906 4.9817zm-4.1882 1.4856c1.5727.2992 2.9731-.2479 4.1882-1.4856l-.7136-.7006c-1.0306 1.0499-2.1075 1.4284-3.2877 1.2038zm-2.9157-1.4103c.985.7378 1.9545 1.2274 2.9157 1.4103l.1869-.9824c-.7632-.1452-1.5932-.5467-2.503-1.2283zm-.4484 1.0551 1.1018-1.1018-.7071-.7071-1.1018 1.1018zm1.5181 2.3369c-.1939-.9877-.7051-1.9827-1.4736-2.9932l-.796.6054c.7118.9359 1.1335 1.7915 1.2883 2.5804zm-1.4317 4.2314c1.2153-1.2379 1.7415-2.6529 1.4317-4.2314l-.9813.1926c.2345 1.195-.1335 2.2886-1.164 3.3383zm-1.5649 1.5941 1.5649-1.5941-.7136-.7005-1.5649 1.594zm-.0032-.7038-.7071.7071zm-4.8873 5.6855 4.8906-4.9817-.7136-.7005-4.8906 4.9817zm-4.1882 1.4856c1.5727.2993 2.9731-.2479 4.1882-1.4856l-.7136-.7005c-1.0307 1.0498-2.1075 1.4283-3.2877 1.2038zm-2.8799-1.3836c.9725.7229 1.9302 1.203 2.8799 1.3836l.1869-.9823c-.7539-.1435-1.5732-.5371-2.4703-1.2039zm-.5427 1.1468 1.1945-1.1945-.7071-.7071-1.1945 1.1944zm1.5181 2.3369c-.1939-.9877-.7051-1.9827-1.4736-2.9932l-.796.6054c.7118.9359 1.1335 1.7915 1.2883 2.5804zm-1.4317 4.2314c1.2153-1.2379 1.7415-2.6529 1.4317-4.2314l-.9813.1926c.2345 1.195-.1335 2.2886-1.164 3.3382zm-1.5649 1.5941 1.5649-1.5941-.7136-.7006-1.5649 1.5941zm-.0032-.7038v-.0001l-.7071.7071v.0001zm-4.8873 5.6855 4.8906-4.9817-.7136-.7005-4.8906 4.9817zm-4.18821 1.4856c1.57272.2992 2.97311-.2479 4.18821-1.4856l-.7136-.7005c-1.0307 1.0498-2.10751 1.4283-3.28771 1.2037zm-3.84285-2.1722c1.31211 1.1697 2.58687 1.9333 3.84285 2.1722l.1869-.9824c-1.00245-.1907-2.11526-.8228-3.36432-1.9362zm.66889-.0019.02062-.021-.71359-.7006-.02061.021zm-1.09531-.392c.12422.1311.25256.2628.38496.3952l.70712-.7071c-.12634-.1263-.24838-.2516-.3661-.3759zm-.36576-.356c.12885.1288.25704.2538.38462.3748l.68826-.7254c-.12092-.1148-.24284-.2336-.36578-.3565zm.01682-.7243-.02009.0205.71363.7005.02008-.0205zm-2.20236-3.1713c.24775 1.2623 1.01472 2.5406 2.18596 3.8543l.74642-.6655c-1.11447-1.25-1.7523-2.3685-1.9511-3.3814zm1.43163-4.2314c-1.21523 1.2379-1.741419 2.6529-1.43163 4.2314l.98128-.1926c-.23453-1.195.13349-2.2886 1.16395-3.3383zm1.56468-1.5938-1.56468 1.5938.7136.7005 1.56469-1.5938zm.00316.7037.00009.0001.70711-.7071-.0001-.0001zm4.88734-5.6855-4.89059 4.9817.7136.7005 4.8906-4.9817zm4.18817-1.4856c-1.5727-.2993-2.9731.2479-4.18817 1.4856l.71361.7005c1.03066-1.0498 2.10746-1.4283 3.28766-1.2038zm3.1241 1.5699c-1.0576-.8276-2.096-1.3743-3.1241-1.5699l-.1869.9823c.8172.1555 1.7103.6048 2.6947 1.3751zm.4797-1.1012-1.1414 1.1414.7071.7071 1.1414-1.1414zm-1.699-2.569c.2091 1.0654.7876 2.14 1.6619 3.2346l.7813-.6241c-.8165-1.0223-1.2947-1.9512-1.4619-2.8031zm1.4316-4.2314c-1.2152 1.2379-1.7414 2.6529-1.4316 4.2314l.9813-.1926c-.2345-1.195.1335-2.2886 1.164-3.3382zm1.5647-1.5938-1.5647 1.5938.7137.7006 1.5646-1.5939zm.0032.7037.0001.0001.7071-.7071-.0001-.0001zm4.8873-5.6855-4.8906 4.9817.7136.7005 4.8906-4.9817zm4.1882-1.4856c-1.5727-.2992-2.9731.2479-4.1882 1.4856l.7136.7005c1.0307-1.0498 2.1075-1.4283 3.2877-1.2037zm3.1241 1.57c-1.0576-.8277-2.096-1.3744-3.1241-1.57l-.1869.9824c.8172.1554 1.7103.6047 2.6947 1.3751zm.3947-1.0162-1.0564 1.0564.7071.7071 1.0564-1.0564zm-1.6725-2.5357c.2069 1.0542.7756 2.1174 1.6343 3.1999l.7835-.6214c-.8012-1.0099-1.2711-1.9282-1.4365-2.7711zm1.4317-4.23143c-1.2153 1.23783-1.7414 2.65293-1.4317 4.23143l.9813-.1926c-.2345-1.195.1335-2.2886 1.164-3.33828zm1.5647-1.59383-1.5647 1.59383.7136.70055 1.5647-1.59383zm.0031.70374.0001.00009.7071-.7071-.0001-.0001zm4.8874-5.68553-4.8906 4.9817.7136.70055 4.8906-4.9817zm4.1881-1.485605c-1.5727-.299214-2.9731.247905-4.1881 1.485605l.7136.70055c1.0306-1.04982 2.1074-1.42831 3.2876-1.20378zm-5.0057 13.728155-.6729.6729.7071.7071.6729-.6729zm0-1.4412c.398.3979.398 1.0432 0 1.4412l.7071.7071c.7885-.7885.7885-2.0669 0-2.8554zm-1.4412 0c.398-.398 1.0432-.398 1.4412 0l.7071-.7071c-.7885-.7885-2.0669-.7885-2.8554 0zm-.7798.7797.7798-.7797-.7071-.7071-.7798.7797zm-1.1601-1.2913c.0334.3919.1582.7828.365 1.1722l.8832-.4689c-.1549-.2919-.2318-.5529-.2518-.7882zm1.0676-2.4613c-.7657.78-1.1415 1.5941-1.0676 2.4613l.9964-.0849c-.0412-.4836.1474-1.0265.7848-1.6758zm1.0677-1.08751-1.0677 1.08751.7136.7006 1.0677-1.08755zm2.2682-2.31045-2.2682 2.31046.7136.70054 2.2682-2.31046zm1.0677-1.08755-1.0677 1.08754.7136.70056 1.0677-1.08754zm2.4362-1.10212c-.8654-.06696-1.671.32268-2.4362 1.10213l.7136.70055c.638-.64989 1.1716-.84232 1.6455-.80566zm2.3494 1.22675c-.7884-.73467-1.5662-1.16615-2.3494-1.22675l-.0771.99702c.4646.03595 1.0379.30263 1.7448.96134zm1.2625 2.3818c-.0669-.78655-.5006-1.5667-1.2377-2.35702l-.7313.68205c.6603.70799.9323 1.28654.9727 1.75983zm-1.0676 2.46118c.7657-.77995 1.1415-1.59407 1.0676-2.46118l-.9963.08486c.0411.4836-.1474 1.02648-.7849 1.67581zm-1.0676 1.0874 1.0676-1.0873-.7136-.70062-1.0676 1.08742zm-2.2683 2.3106 2.2683-2.3106-.7136-.7005-2.2683 2.3106zm-1.0675 1.0874 1.0675-1.0873-.7136-.7006-1.0675 1.0874zm-2.4363 1.1021c.8655.067 1.6711-.3226 2.4363-1.1021l-.7136-.7005c-.638.6498-1.1717.8423-1.6455.8056zm-.7199-.1587c.2399.0865.48.1402.7199.1587l.0772-.997c-.1426-.011-.2947-.0435-.4579-.1024zm-8.3307 4.4404.578-.578-.7071-.7071-.578.578zm0 1.4412c-.3979-.398-.3979-1.0432 0-1.4412l-.7071-.7071c-.7885.7885-.7885 2.0669 0 2.8554zm1.4413 0c-.398.398-1.0433.398-1.4413 0l-.7071.7071c.7885.7885 2.067.7885 2.8555 0zm.5498-.5498-.5498.5498.7071.7071.5498-.5498zm1.0455 1.0528c-.0255-.2993-.1044-.5983-.2325-.8967l-.9188.3948c.091.2119.1396.4066.1549.5867zm-1.0676 2.4612c.7657-.78 1.1415-1.5941 1.0676-2.4612l-.9964.0848c.0412.4836-.1474 1.0265-.7848 1.6758zm-1.0676 1.0874 1.0676-1.0874-.7136-.7006-1.0676 1.0874zm-.7103.0032v.0001l.7071-.7071v-.0001zm-2.6255 3.3948 3.3358-3.398-.7136-.7006-3.3359 3.398zm-2.4363 1.1021c.8654.0669 1.6711-.3227 2.4363-1.1021l-.7137-.7006c-.6379.6499-1.1716.8423-1.6455.8057zm-.6671-.1402c.2224.0757.4448.123.6671.1402l.0771-.997c-.1321-.0103-.2723-.0389-.422-.0899zm.3777-1.397-.5701.5701.7071.7071.5701-.5701zm0-1.4412c.398.3979.398 1.0432 0 1.4412l.7071.7071c.7885-.7885.7885-2.067 0-2.8555zm-1.4412 0c.398-.398 1.0432-.398 1.4412 0l.7071-.7072c-.7885-.7885-2.0669-.7885-2.8554 0zm-.7003.7003.7003-.7003-.7071-.7072-.7003.7003zm-1.1812-1.3303c.0347.4069.168.8125.3889 1.2166l.8774-.4798c-.167-.3055-.2491-.5775-.2699-.8217zm1.0677-2.4612c-.7657.78-1.1415 1.5941-1.0677 2.4612l.9964-.0849c-.0411-.4836.1474-1.0264.7849-1.6758zm1.0677-1.0876-1.0677 1.0876.7136.7005 1.0677-1.0875zm2.2682-2.3104-2.2682 2.3104.7136.7006 2.2682-2.3105zm1.0677-1.0876-1.0677 1.0876.7136.7005 1.0676-1.0875zm2.4362-1.1021c-.8654-.067-1.6711.3227-2.4363 1.1021l.7137.7006c.6379-.6499 1.1716-.8423 1.6455-.8057zm1.0128.2806c-.3368-.1587-.6746-.2544-1.0128-.2806l-.0771.997c.2003.0155.4203.0735.6638.1882zm-15.1244 15.0696c-.7885.7885-.7885 2.0669 0 2.8554l.7071-.7071c-.3979-.398-.3979-1.0432 0-1.4412zm.578-.578-.578.578.7071.7071.578-.578zm-.5233.6177c.2003.0155.4203.0735.6638.1882l.4261-.9047c-.3368-.1586-.6746-.2543-1.0128-.2805zm-1.6455.8057c.638-.6499 1.1716-.8424 1.6455-.8057l.0771-.997c-.8654-.067-1.6711.3227-2.43625 1.1021zm-1.06775 1.0875 1.06765-1.0875-.71354-.7006-1.06769 1.0875zm-2.26815 2.3105 2.26816-2.3105-.7136-.7005-2.26817 2.3104zm-1.06771 1.0875 1.0677-1.0875-.71359-.7006-1.0677 1.0875zm-.78484 1.6758c-.04119-.4836.14739-1.0265.78485-1.6758l-.7136-.7005c-.76573.7799-1.1415 1.5941-1.06765 2.4612zm.97076 1.7578c-.65898-.7071-.9305-1.285-.97076-1.7578l-.9964.0849c.06692.7858.4998 1.5652 1.2356 2.3547zm1.72203.9384c-.46507-.0359-1.03898-.3031-1.74681-.9632l-.682.7314c.78925.736 1.56775 1.1682 2.35167 1.2289zm1.64551-.8056c-.638.6499-1.17165.8423-1.64551.8056l-.07714.9971c.86545.0669 1.67106-.3227 2.4363-1.1022zm1.06755-1.0874-1.06754 1.0874.71354.7005 1.0676-1.0873zm2.2683-2.3106-2.2683 2.3106.7136.7006 2.2683-2.3107zm1.0676-1.0874-1.0676 1.0874.7136.7005 1.0676-1.0873zm.7848-1.6758c.0412.4836-.1474 1.0265-.7848 1.6758l.7136.7006c.7657-.78 1.1415-1.5942 1.0676-2.4613zm-.1549-.5867c.091.2119.1396.4066.1549.5867l.9964-.0849c-.0255-.2992-.1044-.5982-.2325-.8966zm.2631.706.5498-.5498-.7071-.7071-.5498.5498zm-2.8555 0c.7885.7885 2.067.7885 2.8555 0l-.7071-.7071c-.398.398-1.0433.398-1.4413 0z" fill="#4f4f4f"/></svg>