<svg height="24" viewBox="0 0 24 24" width="24" xmlns="http://www.w3.org/2000/svg"><g transform="translate(2.669922 .337891)"><path d="m17.066406 7.078125c0 .847656-.164062 1.644531-.484375 2.390625-.3125.742188-.75 1.390625-1.308593 1.949219-.550782.550781-1.203126.988281-1.953126 1.3125-.738281.320312-1.53125.480469-2.375.480469-.292968 0-.554687.05469-.78125.160156-.21875.101562-.402343.25-.554687.4375-.144531.183594-.253906.394531-.328125.640625-.078125.25-.113281.515625-.113281.796875v1.082031h-4.070313v-1.136719c.007813-.835937.15625-1.621094.441406-2.363281.292969-.738281.695313-1.378906 1.207032-1.921875.523437-.546875 1.140625-.980469 1.851562-1.292969.710938-.324219 1.496094-.484375 2.347656-.484375.285157 0 .550782-.050781.796876-.15625.246093-.105468.460937-.246094.640624-.425781.191407-.191406.335938-.410156.441407-.65625.113281-.253906.171875-.527344.171875-.8125 0-.28125-.05859-.546875-.171875-.796875-.105469-.246094-.25-.457031-.441407-.636719-.179687-.191406-.394531-.339843-.640624-.441406-.246094-.105469-.511719-.160156-.796876-.160156h-9.347656v-4.082031h9.347656c.84375 0 1.636719.160156 2.375.484374.75.320313 1.402344.761719 1.953126 1.324219.558593.550781.996093 1.195313 1.308593 1.933594.320313.742187.484375 1.53125.484375 2.375zm-7.488281 12.835937c0 .34375-.066406.664063-.199219.96875-.121094.292969-.292968.550782-.511718.769532s-.472657.386718-.765626.511718c-.296874.132813-.609374.199219-.941406.199219-.332031 0-.648437-.06641-.953125-.199219-.292969-.125-.554687-.292968-.78125-.511718-.21875-.21875-.394531-.476563-.527343-.769532-.125-.304687-.183594-.625-.183594-.96875 0-.332031.058594-.644531.183594-.9375.132812-.292968.308593-.550781.527343-.769531.226563-.21875.488281-.386719.78125-.511719.304688-.132812.621094-.199218.953125-.199218.332032 0 .644532.06641.941406.199218.292969.125.546876.292969.765626.511719s.390624.476563.511718.769531c.132813.292969.199219.605469.199219.9375zm0 0" fill="#1e94f3"/><path d="m16.582031 9.46875-.789062-.335938v.00391zm-1.308593 1.949219.605468.609375zm-1.953126 1.3125-.335937-.789063h-.0039zm-3.15625.640625-.359374-.78125-.00391.0039-.00781.0039zm-.554687.4375-.671875-.535156-.00391.0078zm-.441406 2.519531v.859375h.855469v-.859375zm-4.070313 0h-.859375v.859375h.859375zm0-1.136719-.859375-.01172v.01172zm.441406-2.363281-.796874-.316406-.00391.0078zm1.207032-1.921875-.621094-.589844zm1.851562-1.292969.34375.785157.011719-.0039zm4.226563-1.722656-.785157-.347656v.00781l-.0039.00781zm0-1.609375-.789063.335938.0039.011718.0078.011719zm-.441407-.636719-.621093.589844.03125.03125zm-10.785156-.601562h-.859375v.859375h.859375zm0-4.082031v-.855469h-.859375v.855469zm11.722656.484374-.339843.785157h.0039zm1.953126 1.324219-.613282.597657.0039.00781.0078.00391zm1.308593 1.933594-.789062.335937.0039.00781zm-7.203125 16.179687-.785156-.34375v.0078l-.00391.0039zm-.511718.769532-.605469-.605469zm-.765626.511718-.332031-.792968-.011719.0078-.011718.0039zm-1.894531 0 .34375-.785156-.00781-.0039-.00391-.0039zm-.78125-.511718-.605469.605468.00391.0078.00781.0039zm-.527343-.769532-.792969.324219.00391.01172.00781.01563zm0-1.90625-.78125-.351562-.00391.0078-.00391.01172zm.527343-.769531-.59375-.617187-.00781.0039-.00391.0078zm.78125-.511719.332031.789063h.00391l.00781-.0039zm1.894531 0-.355468.78125.023437.0078zm1.277344 1.28125-.789062.332032.00391.0078.00391.01172zm6.828125-11.898437c0 .734375-.140625 1.414063-.414062 2.054687l1.574219.675782c.371093-.859375.554687-1.773438.554687-2.730469zm-.414062 2.058594c-.273438.640625-.648438 1.195312-1.128907 1.675781l1.214844 1.214844c.636719-.640625 1.136719-1.382813 1.492188-2.222656zm-1.128907 1.675781c-.46875.472656-1.027343.847656-1.679687 1.128906l.675781 1.574219c.84375-.363281 1.585938-.859375 2.21875-1.488281zm-1.683593 1.128906c-.628907.273438-1.304688.414063-2.035157.414063v1.714843c.957032 0 1.867188-.183593 2.71875-.554687zm-2.035157.414063c-.394531 0-.78125.07031-1.140624.234375l.714843 1.558594c.09766-.04297.234375-.07813.425781-.07813zm-1.152343.242187c-.335938.160156-.621094.386719-.855469.675782l1.339844 1.074218c.07031-.08984.15625-.15625.253906-.203125zm-.859375.683594c-.214844.269531-.367188.582031-.472656.917969l1.640624.503906c.04688-.15625.109376-.273437.179688-.363281zm-.472656.917969c-.101563.335937-.152344.6875-.152344 1.046875h1.714844c0-.207032.02734-.386719.07812-.542969zm-.152344 1.046875v1.082031h1.714844v-1.082031zm.859375.226562h-4.070313v1.714844h4.070313zm-3.214844.855469v-1.136719h-1.714844v1.136719zm0-1.128906c.00781-.738281.140625-1.421875.386719-2.0625l-1.601563-.617188c-.324219.839844-.488281 1.730469-.5 2.660157zm.382813-2.054688c.253906-.644531.601562-1.191406 1.035156-1.648437l-1.246094-1.179688c-.589844.625-1.050781 1.363282-1.382812 2.195313zm1.035156-1.648437c.441406-.464844.960937-.832032 1.570312-1.097656l-.6875-1.570313c-.816406.359375-1.527344.855469-2.128906 1.488281zm1.582031-1.101563c.589844-.269531 1.25-.410156 1.992187-.410156v-1.710937c-.964843 0-1.867187.179687-2.703124.558593zm1.992187-.410156c.390626 0 .773438-.070313 1.132813-.222656l-.667969-1.578125c-.136718.054687-.289062.089844-.464844.089844zm1.132813-.222656c.339844-.144531.648437-.347657.910156-.609375l-1.210937-1.214844c-.09766.101562-.21875.183594-.367188.246094zm.910156-.609375c.269531-.269532.476563-.578125.625-.925782l-1.578125-.667968c-.0625.144531-.148437.269531-.257812.378906zm.617188-.914063c.164062-.367187.246093-.753906.246093-1.160156h-1.714843c0 .167969-.03125.320313-.09766.464844zm.246093-1.160156c0-.402344-.08203-.789063-.25-1.15625l-1.554687.71875c.05859.128906.08984.273437.08984.4375zm-.238281-1.128906c-.148437-.351563-.363281-.664063-.640625-.929688l-1.179687 1.246094c.101562.09375.183593.210937.242187.351563zm-.609375-.898438c-.261718-.277343-.574218-.488281-.925781-.640625l-.667969 1.582032c.140625.058593.253906.136718.351563.242187zm-.925781-.640625c-.359375-.148437-.742187-.222656-1.132813-.222656v1.714844c.175782 0 .328126.03125.464844.089844zm-1.132813-.222656h-9.347656v1.714844h9.347656zm-8.492187.855469v-4.082031h-1.714844v4.082031zm-.855469-3.226563h9.347656v-1.710937h-9.347656zm9.347656 0c.730469 0 1.40625.140625 2.035157.414063l.683593-1.570313c-.851562-.371094-1.761718-.554687-2.71875-.554687zm2.039063.414063c.648437.28125 1.207031.660156 1.675781 1.136719l1.222656-1.199219c-.632812-.644531-1.375-1.144531-2.222656-1.511719zm1.6875 1.148437c.476563.46875.847656 1.019532 1.121094 1.660156l1.578125-.667968c-.355469-.84375-.855469-1.582032-1.5-2.214844zm1.125 1.667969c.269531.625.410156 1.300781.410156 2.03125h1.714844c0-.953125-.183594-1.863281-.554687-2.71875zm-7.074219 14.867187c0 .226563-.042968.433594-.128906.625l1.570312.6875c.183594-.414062.273438-.855468.273438-1.3125zm-.132812.636719c-.082032.195313-.191406.359375-.328125.496094l1.210937 1.210937c.300782-.300781.535156-.648437.699219-1.042968zm-.328125.496094c-.136719.136719-.296875.246094-.492188.324219l.660157 1.582031c.394531-.164063.746093-.394531 1.042968-.695313zm-.515625.335937c-.179688.082032-.371094.121094-.585938.121094v1.714844c.449219 0 .882813-.08984 1.292969-.273438zm-.585938.121094c-.214844 0-.414062-.03906-.609375-.125l-.6875 1.570313c.414063.179687.847657.269531 1.296875.269531zm-.621094-.132812c-.199218-.082032-.371093-.195313-.523437-.339844l-1.183594 1.238281c.304688.292969.652344.519531 1.042969.683594zm-.507812-.324219c-.140625-.144531-.261719-.3125-.351562-.515625l-1.5625.703125c.171874.386719.40625.726563.703124 1.023437zm-.339844-.488281c-.078125-.195313-.121094-.40625-.121094-.644532h-1.714843c0 .449219.082031.882813.25 1.292969zm-.121094-.644532c0-.222656.039063-.421874.117188-.605468l-1.578125-.664063c-.171875.402344-.253906.828125-.253906 1.269531zm.109376-.585937c.089843-.203125.210937-.371094.351562-.515625l-1.210938-1.210938c-.296874.292969-.53125.636719-.703124 1.023438zm.335937-.5c.152344-.144531.324219-.257813.523437-.34375l-.664062-1.578125c-.390625.164062-.738281.390625-1.042969.683594zm.535156-.347656c.195313-.08594.394531-.128907.609375-.128907v-1.710937c-.449218 0-.882812.08984-1.296875.269531zm.609375-.128907c.214844 0 .40625.04297.585938.125l.707031-1.5625c-.410156-.183593-.84375-.273437-1.292969-.273437zm.609375.132813c.195313.082031.355469.191406.492188.328125l1.210937-1.210938c-.296875-.300781-.648437-.53125-1.042968-.695312zm.492188.328125c.136719.136719.246093.300781.328125.496094l1.582031-.664063c-.164063-.394531-.398437-.742187-.699219-1.042969zm.335937.515625c.082032.179687.125.371094.125.585937h1.714844c0-.449218-.08984-.882812-.277344-1.289062zm0 0" fill="#4c4c4c"/></g></svg>