<svg fill="none" height="33" viewBox="0 0 33 33" width="33" xmlns="http://www.w3.org/2000/svg"><path d="m11.0241 9.91544c1.5752 6.30086.2911 8.43396-2.61158 13.50826.79257-1.3038 2.85688-3.5083 5.86178-3.5083 4 0 4.5 1.75 5.25 3s-1.0638-4.4839 6.25-4.7499c6.8748-.2501 6.25 4.75 5 9.75s-23.18763 5.1874-30.250247-1c-.374898-9.8126 4.000007-21.25004 9.750047-24.50004 5.75-3.250002 7.4367-.48268 7.8125 1.43752.5626 2.87486-1.0624 5.43733-7.0625 6.06246z" fill="#2196f3"/><path d="m11.0241 9.91544c1.6 6.39996.25 8.50006-2.7498 13.74996.66667-1.25 2.8-3.75 6-3.75 4 0 4.5 1.75 5.25 3s-1.0638-4.4839 6.25-4.7499c6.8748-.2501 6.25 4.75 5 9.75s-23.18763 5.1874-30.250247-1c-.374898-9.8126 4.000007-21.25004 9.750047-24.50004 5.75-3.250002 7.4367-.48268 7.8125 1.43752.5626 2.87486-1.0624 5.43733-7.0625 6.06246z" stroke="#4f4f4f"/></svg>