<?xml version="1.0" encoding="UTF-8" standalone="no"?>
<svg
   xmlns="http://www.w3.org/2000/svg"
   fill-rule="evenodd"
   viewBox="0 0 220 220">
  <path
    d="m 110,28.132812 c -16.352,0 -31.601547,4.760704 -44.435547,12.970704 -0.899,9.325 -8.693609,12.374734 -15.849609,13.177734 -13.849,14.777 -22.333985,34.640703 -22.333985,56.4707 0,8.368 1.246454,16.44655 3.564453,24.06055 5.946001,2.903 11.481547,7.67086 15.685547,14.00586 4.694,7.073 6.941282,14.91455 6.863282,22.18555 14.78,13.869 34.658859,22.36718 56.505859,22.36718 27.387,0 51.67884,-13.35243 66.71484,-33.89843 l -2.80468,-1.99414 c -1.291,-0.918 -1.59379,-2.71291 -0.67578,-4.00391 l 0.21289,-0.29883 c 0.918,-1.291 2.7129,-1.59378 4.0039,-0.67578 l 2.6875,1.91211 c 2.431,-3.895 4.54655,-8.00683 6.31055,-12.29883 l -4.87695,-5.39258 c 3.208,-0.915 5.92406,-2.49148 8.16406,-4.27148 1.88,-6.916 2.88281,-14.19027 2.88281,-21.69727 0,-28.606997 -14.57045,-53.837919 -36.68945,-68.669919 -5.756,8.013 -9.70313,7.253907 -9.70313,7.253907 0,0 -3.63878,-3.4665 -5.55078,-15.3125 C 131.18978,30.222437 120.837,28.132812 110,28.132812 Z m -9.4043,17.578126 5.37891,4.855468 c 0,0 62.40512,-4.238125 64.45312,53.921874 0,0 3.27558,32.76563 -22.73242,52.01563 l -4.02148,8.68945 -6.60352,-0.26758 -3.54297,4.34766 -3.32812,-4.5625 c 0,0 -31.946361,11.95965 -39.318361,-24.90235 0,0 -6.054656,-33.84453 29.652341,-37.51953 0,0 30.30914,-1.63718 31.61914,28.50782 0,0 2.47627,6.0642 5.32227,-0.2168 0,0 1.20394,-7.93996 -0.78906,-17.37696 0,0 -0.2796,-3.73371 2.9414,-1.88671 0.999,0.243 2.20599,0.53595 3.08399,0.002 0.739,-0.45 1.02534,-1.57469 0.90234,-2.42969 -0.646,-4.501 -5.01369,-11.857389 -7.30469,-14.900389 -7.782,-10.334 -18.30625,-15.89575 -31.40625,-16.21875 0,0 -12.13994,1.205461 -10.74804,-8.912109 0.14232,-1.03453 -0.91678,-26.773547 -11.92578,-1.310547 0,0 -6.947207,13.498172 -16.908208,15.201172 0,0 -13.760968,2.753094 -9.042968,16.121094 0,0 2.752781,14.156019 -9.699219,11.666019 0,0 -3.675297,-0.0878 -5.029297,0.94922 -1.404,1.075 -2.750312,2.46271 -3.320312,4.13671 -2.194,6.447 -0.639797,12.51213 -1.216797,19.07813 -0.124,1.411 0.137437,3.68936 -1.226563,4.06836 -1.309,0.365 -2.176265,-1.74641 -2.822265,-2.94141 -1.921,-3.559 -3.359204,-7.36344 -4.783203,-11.14844 0,0 -4.89611,-11.76293 2.08789,-30.210933 l -5.033203,-6.816406 7.025391,-0.208985 c 0,0 6.709515,-16.776718 25.478515,-27.261718 0,0 -0.523875,-11.010032 11.953125,-6.082032 0,0 4.927469,0.211297 6.605469,-2.095703 z"
    style="fill:#000000;fill-opacity:1;stroke:#000000;stroke-width:2.5" />
</svg>
