<?xml version="1.0" encoding="UTF-8" standalone="no"?>
<svg
   xmlns="http://www.w3.org/2000/svg"
   fill-rule="evenodd"
   viewBox="0 0 220 220">
  <path
     style="fill:#000000;stroke-width:0.52410042"
     d="m 93.717046,187.29874 c -11.960012,-2.01759 -18.366961,-15.72288 -12.124974,-25.9369 2.849775,-4.6632 6.544019,-7.17803 12.035704,-8.19322 3.39137,-0.62693 8.056064,0.0646 11.118324,1.64834 2.46352,1.27405 5.91491,4.94649 7.38232,7.85513 1.61309,3.19741 1.99817,9.3737 0.80471,12.90683 -2.72879,8.0784 -10.97798,13.10955 -19.216084,11.71982 z M 81.870685,143.49702 c -0.716899,-1.86821 0.294267,-14.11815 1.578674,-19.12512 3.506807,-13.67048 13.435366,-25.01969 25.640661,-29.309509 3.58756,-1.260923 11.11989,-2.61175 14.73627,-2.642756 9.24601,-0.07928 15.99971,-8.262207 14.36368,-17.403336 -0.60522,-3.381609 -2.94279,-7.162754 -5.53865,-8.959069 -4.37516,-3.02758 -3.49182,-2.964216 -41.322777,-2.964216 H 56.541764 V 48.395222 33.69743 l 37.080101,0.185881 c 33.647825,0.168675 37.419695,0.27335 40.748805,1.130847 13.30026,3.425814 24.75125,13.381937 30.05236,26.129171 2.49673,6.003722 3.41434,11.594297 3.06773,18.69026 -0.35629,7.293947 -1.25127,10.838009 -4.30913,17.063902 -4.48636,9.134369 -11.07149,15.799109 -19.90126,20.141899 -6.11395,3.00706 -10.49282,4.17211 -17.7876,4.73259 -6.06102,0.4657 -7.29158,0.8662 -10.01891,3.2608 -3.13387,2.75155 -4.06613,5.45189 -4.39988,12.74454 l -0.28783,6.28921 -14.294941,0.13947 c -12.770655,0.1246 -14.329659,0.049 -14.620524,-0.70898 z"
     id="path911" />
</svg>
