<?xml version="1.0" encoding="UTF-8" standalone="no"?>
<svg
   xmlns="http://www.w3.org/2000/svg"
   fill-rule="evenodd"
   viewBox="0 0 220 220">
  <path
     d="M 134.58398 28.451172 C 131.53723 28.426592 126.47781 28.798359 121.16406 30.958984 L 86.03125 46.65625 L 101.57422 70.265625 C 101.57422 70.265625 115.02844 71.728453 125.77344 83.314453 C 125.77344 83.314453 134.77564 77.709781 153.55664 78.550781 C 153.55664 78.550781 162.97728 77.879219 164.23828 70.949219 C 164.23828 70.949219 169.37762 32.921047 137.51562 28.623047 C 137.51562 28.623047 136.41204 28.46592 134.58398 28.451172 z M 132.90234 40.552734 A 13.824 13.824 0 0 1 146.72656 54.376953 A 13.824 13.824 0 0 1 132.90234 68.201172 A 13.824 13.824 0 0 1 119.07812 54.376953 A 13.824 13.824 0 0 1 132.90234 40.552734 z M 85.546875 72.220703 C 54.420875 72.220703 29.150391 97.491182 29.150391 128.61719 C 29.150391 159.74319 54.420875 185.01367 85.546875 185.01367 C 88.899875 185.01367 92.183953 184.71825 95.376953 184.15625 C 95.537953 184.12825 95.702422 184.13945 95.857422 184.18945 C 97.969422 184.87045 113.59794 189.91052 118.46094 191.47852 C 118.84094 191.60152 119.25538 191.56681 119.60938 191.38281 C 119.96438 191.19881 120.22966 190.88005 120.34766 190.49805 C 121.94266 185.33405 127.29755 167.99373 127.93555 165.92773 C 127.97655 165.79473 128.04572 165.67141 128.13672 165.56641 C 133.09572 159.85641 136.92725 153.14058 139.28125 145.76758 C 142.89125 147.78358 147.29441 149.73291 151.94141 150.62891 C 151.94141 150.62891 160.9105 152.59003 166.9375 150.20703 C 166.9375 150.20703 186.15183 144.09777 189.92383 125.25977 C 191.14383 119.16577 191.70213 110.78264 188.07812 103.30664 C 188.07812 103.30664 179.41106 84.613641 159.78906 82.931641 C 159.78906 82.931641 143.31908 81.029064 125.20508 88.539062 C 115.01408 78.454062 101.00288 72.220703 85.546875 72.220703 z M 85.546875 92.345703 A 36.271 36.271 0 0 1 121.81641 128.61719 A 36.271 36.271 0 0 1 85.546875 164.88867 A 36.271 36.271 0 0 1 49.275391 128.61719 A 36.271 36.271 0 0 1 85.546875 92.345703 z M 155.07617 99.738281 A 16.561001 16.561001 0 0 1 171.63672 116.29883 A 16.561001 16.561001 0 0 1 155.07617 132.85938 A 16.561001 16.561001 0 0 1 138.51562 116.29883 A 16.561001 16.561001 0 0 1 155.07617 99.738281 z"
     style="fill:#000000;fill-opacity:1;stroke:#000000;stroke-width:2.5"/>
</svg>
