<?xml version="1.0" encoding="UTF-8" standalone="no"?>
<svg clip-rule="evenodd" fill-rule="evenodd" stroke-linecap="round" stroke-linejoin="round" stroke-miterlimit="1.5" viewBox="0 0 220 221" version="1.1" id="svg41" xmlns="http://www.w3.org/2000/svg">
  <defs></defs>
  <path d="m0 .752h220v220h-220z" fill="none" id="path5"></path>
  <path d="M 177.925 82.489 C 175.56 85.971 170.902 88.715 167.757 90.452 C 169.522 91.335 171.17 92.188 173.561 94.095 C 175.956 96.005 178.051 98.525 178.051 101.011 C 178.051 106.703 173.755 125.872 163.865 138.645 C 163.394 139.249 162.946 139.805 162.516 140.317 C 162.535 140.308 162.553 140.298 162.572 140.289 C 161.45 147.023 150.414 157.59 145.037 162.032 C 143.167 165.539 138.444 170.73 131.711 171.852 C 124.977 172.974 118.617 172.086 116.28 171.151 C 111.37 181.672 98.044 192.192 79.106 192.894 C 58.767 193.647 36.321 174.658 36.321 141.692 C 36.321 113.983 66.24 46.183 143.91 44.641 C 145.055 43.168 164.638 42.825 169.433 42.556 C 173.294 43.11 176.01 44.477 177.862 46.506 C 180.76 49.877 181.56 57.859 181.207 65.363 C 180.853 72.869 179.384 80.249 177.925 82.489 Z M 150.593 144.604 C 154.422 140.207 158.227 131.048 163.128 123.969 C 164.02 122.68 161.725 117.656 156.114 115.552 C 151.625 113.869 131.798 116.253 122.447 117.656 C 123.298 121.529 123.541 124.208 123.235 126.745 C 133.828 126.557 145.849 133.035 147.044 143.486 C 148.406 143.793 149.557 144.212 150.593 144.604 C 150.571 144.629 150.548 144.655 150.526 144.681 C 150.586 144.669 150.646 144.658 150.706 144.646 C 150.669 144.632 150.631 144.618 150.593 144.604 Z M 110.524 97.316 C 119.172 91.64 156.539 77.005 166.635 74.17 C 168.55 73.632 169.16 58.079 169.353 47.074 C 169.368 46.195 157.618 45.493 144.187 47.768 C 143.535 47.878 143.884 46.682 143.711 46.541 C 143.309 46.701 142.816 46.858 142.231 47.004 C 131.044 49.801 103.267 62.511 90.862 87.21 C 99.107 89.524 104.156 91.813 110.524 97.316 Z M 154.01 86.795 C 153.631 85.625 124.291 90.654 113.329 99.42 C 117.703 103.77 119.445 106.766 121.746 112.747 C 137.342 108.917 146.097 108.585 161.725 109.941 C 161.725 109.941 170.142 106.434 166.635 102.226 C 163.128 98.017 152.686 93.779 154.01 86.795 Z M 84.717 114.338 C 97.342 113.636 110.669 122.053 112.773 129.768 C 114.625 128.495 116.803 127.641 119.147 127.174 C 116.141 109.605 102.163 92.822 88.516 92.515 C 86.013 99.037 84.585 106.301 84.717 114.338 Z M 79.106 123.806 C 64.192 123.806 52.102 135.896 52.102 150.81 C 52.102 165.724 64.192 177.814 79.106 177.814 C 94.02 177.814 106.11 165.724 106.11 150.81 C 106.11 135.896 94.02 123.806 79.106 123.806 Z M 126.099 135.029 C 124.42 135.029 122.813 135.331 121.327 135.885 L 120.271 136.329 C 115.632 138.517 112.422 143.236 112.422 148.706 C 112.422 156.26 118.545 162.383 126.099 162.383 C 133.653 162.383 139.776 156.26 139.776 148.706 C 139.776 141.152 133.653 135.029 126.099 135.029 Z" style=""></path>
  <path d="M 178.339 82.77 C 175.894 86.327 171.927 88.672 168.821 90.43 C 170.305 91.196 171.441 91.771 173.873 93.704 C 176.304 95.65 178.551 98.365 178.551 101.011 C 178.551 106.758 174.196 126.081 164.259 138.952 C 154.303 151.708 144.691 158.373 133.815 158.373 C 128.277 158.373 114.102 151.345 101.331 142.431 C 88.564 133.514 76.727 122.181 75.757 113.753 C 74.781 102.521 82.686 88.046 92.692 76.035 C 102.707 64.03 115.098 54.02 122.906 51.427 C 140.135 45.803 152.369 42.789 160.966 41.989 C 169.7 41.196 175.145 42.841 178.241 46.18 C 181.198 49.689 182.058 57.846 181.706 65.387 C 181.348 72.93 179.833 80.442 178.339 82.77 Z M 180.708 65.339 C 181.062 57.872 180.327 50.071 177.488 46.838 C 174.618 43.645 169.604 42.174 161.058 42.985 C 152.535 43.773 140.409 46.763 123.216 52.377 C 115.566 54.884 103.405 64.738 93.46 76.675 C 83.508 88.606 75.718 102.715 76.753 113.661 C 77.576 121.779 89.194 132.742 101.903 141.611 C 114.61 150.487 128.499 157.373 133.815 157.373 C 144.407 157.373 153.623 150.99 163.471 138.338 C 173.314 125.663 177.551 106.648 177.551 101.011 C 177.551 98.685 175.608 96.36 173.249 94.486 C 170.899 92.605 169.295 91.781 167.533 90.899 L 166.683 90.474 L 167.515 90.014 C 170.654 88.281 175.224 85.619 177.509 82.212 C 178.931 80.054 180.358 72.808 180.708 65.339 Z M 177.094 81.932 C 174.888 85.264 168.764 88.868 165.967 90.266 L 165.489 90.505 L 165.978 90.719 C 167.841 91.533 170.614 93.029 172.937 94.876 C 175.252 96.728 177.051 98.845 177.051 101.011 C 177.051 106.595 172.872 125.455 163.076 138.032 C 153.285 150.63 144.265 156.873 133.815 156.873 C 128.61 156.873 114.87 150.051 102.19 141.202 C 89.513 132.348 77.999 121.575 77.252 113.614 C 76.184 102.813 83.929 88.896 93.844 76.996 C 103.765 65.101 115.801 55.317 123.372 52.853 C 140.547 47.245 152.619 44.273 161.105 43.483 C 169.563 42.714 174.363 44.051 177.115 47.171 C 179.894 50.262 180.555 57.883 180.207 65.316 C 179.855 72.749 178.479 79.861 177.094 81.932 Z M 179.209 65.269 C 179.557 57.899 179.02 50.633 176.372 47.841 C 173.868 44.874 169.477 43.694 161.197 44.479 C 152.785 45.257 140.821 48.205 123.682 53.803 C 116.273 56.179 104.465 65.809 94.612 77.636 C 84.749 89.46 77.118 103.007 78.246 113.513 C 78.828 121.15 90.139 131.572 102.762 140.382 C 115.378 149.193 128.832 155.873 133.815 155.873 C 143.981 155.873 152.605 149.912 162.286 137.418 C 171.989 125.042 176.051 106.487 176.051 101.011 C 176.051 99.171 174.56 97.444 172.313 95.658 C 170.066 93.861 167.403 92.431 165.578 91.635 L 163.131 90.567 L 165.519 89.372 C 168.288 87.99 174.219 84.556 176.258 81.384 C 177.566 79.51 178.865 72.631 179.209 65.269 Z" style="fill: none;"></path>
  <path fill-rule="evenodd" clip-rule="evenodd" d="M 144.552 43.494 L 144.779 43.57 C 145.203 43.71 145.876 44.003 146.231 44.668 C 146.437 45.052 146.493 45.493 146.389 45.918 C 146.294 46.311 146.084 46.61 145.893 46.816 C 145.524 47.214 145.012 47.506 144.508 47.729 C 143.975 47.963 143.326 48.176 142.572 48.366 C 135.407 50.156 121.056 56.196 108.611 67.065 C 96.472 77.663 86.255 92.751 86.113 112.894 C 92.263 112.875 98.424 114.82 103.391 117.682 C 108.002 120.34 111.802 123.919 113.504 127.684 C 119.553 124.436 127.825 124.741 134.689 127.503 C 141.69 130.32 147.728 135.914 148.468 143.604 C 153.44 142.865 156.589 141.696 161.948 139.034 L 164.407 137.81 L 163.955 140.519 C 163.63 142.476 162.614 144.586 161.298 146.655 C 159.97 148.745 158.265 150.897 156.452 152.949 C 152.914 156.95 148.872 160.665 146.14 162.94 C 144.054 166.686 139.081 172.046 131.941 173.235 C 128.449 173.817 125.063 173.878 122.245 173.671 C 120.177 173.521 118.359 173.223 117.001 172.858 C 111.465 183.491 97.929 193.601 79.158 194.295 C 57.88 195.084 34.918 175.3 34.918 141.692 C 34.918 127.442 42.608 103.285 60.059 82.518 C 77.559 61.69 104.93 44.207 144.31 43.498 L 144.552 43.494 Z M 62.207 84.322 C 45.112 104.667 37.724 128.203 37.724 141.692 C 37.724 174.015 59.653 192.211 79.054 191.492 C 97.504 190.809 110.336 180.568 115.009 170.557 L 115.569 169.355 L 116.8 169.849 C 117.778 170.239 119.79 170.679 122.449 170.874 C 125.077 171.065 128.237 171.009 131.479 170.469 C 137.649 169.441 142.06 164.635 143.8 161.372 L 143.93 161.128 L 144.143 160.951 C 146.788 158.767 150.836 155.065 154.349 151.091 C 156.106 149.104 157.707 147.073 158.932 145.15 C 159.407 144.401 159.817 143.683 160.154 143.001 C 155.766 144.998 152.465 145.952 147.314 146.591 L 145.738 146.787 L 145.738 145.199 C 145.738 138.28 140.544 132.882 133.642 130.105 C 126.724 127.322 118.665 127.42 113.567 130.924 L 111.94 132.044 L 111.419 130.137 C 110.509 126.801 107.027 123.015 101.99 120.113 C 97.007 117.241 90.787 115.407 84.794 115.739 L 83.338 115.82 L 83.314 114.361 C 82.955 92.432 93.935 76.155 106.765 64.951 C 118.028 55.116 130.802 49.108 138.862 46.517 C 103.332 48.652 78.426 65.021 62.207 84.322 Z" fill="#030303" style="transform-origin: 99.662px 118.907px;"></path>
</svg>