<?xml version="1.0" encoding="UTF-8" standalone="no"?>
<svg
   xmlns="http://www.w3.org/2000/svg"
   fill-rule="evenodd"
   viewBox="0 0 220 220">
  <path
     d="M 55.275391 36.033203 C 53.663895 36.229072 52.316104 37.40625 51.925781 39.015625 C 51.496568 40.782685 52.33348 42.613587 53.949219 43.447266 L 78.267578 55.988281 L 12.505859 121.75195 C 11.334184 122.92362 11.334184 124.82246 12.505859 125.99414 C 15.598745 129.08702 21.311412 134.79969 24.404297 137.89258 C 25.575973 139.06426 27.474808 139.06426 28.646484 137.89258 C 39.320261 127.2188 87.310012 79.231002 104.28906 62.251953 C 105.87439 60.66662 108.02214 59.777344 110.26367 59.777344 C 112.5052 59.777344 114.65561 60.667327 116.24023 62.251953 C 125.80315 71.814865 144.10145 90.111209 150.31055 96.320312 C 151.48223 97.491988 153.38176 97.493235 154.55273 96.322266 C 157.60743 93.267565 163.20967 87.663369 166.26367 84.609375 C 167.43534 83.437699 167.43534 81.538864 166.26367 80.367188 C 166.26367 80.367187 141.02498 54.781703 128.90234 42.492188 C 124.83648 38.37117 119.29032 36.050228 113.50195 36.048828 C 95.150407 36.043878 55.275391 36.033203 55.275391 36.033203 z M 109.89062 72.564453 C 107.99381 72.564453 106.09642 73.286394 104.65039 74.732422 L 74.826172 104.55859 C 71.934117 107.45065 71.934117 112.14701 74.826172 115.03906 L 104.65039 144.86328 C 107.54245 147.75534 112.2388 147.75534 115.13086 144.86328 L 144.95703 115.03906 C 147.84909 112.14701 147.84909 107.45065 144.95703 104.55859 L 127.40234 87.003906 L 115.13086 74.732422 C 113.68483 73.286394 111.78744 72.564453 109.89062 72.564453 z M 193.47461 81.064453 C 192.70687 81.064453 191.93935 81.357521 191.35352 81.943359 L 115.71289 157.58398 C 114.12756 159.16932 111.97786 160.06055 109.73633 160.06055 C 107.4948 160.06055 105.34439 159.17056 103.75977 157.58594 L 69.691406 123.51562 C 68.51973 122.34395 66.620188 122.34466 65.449219 123.51562 L 53.736328 135.22656 C 52.564652 136.39824 52.564652 138.29707 53.736328 139.46875 C 53.736328 139.46875 79.216333 165.20159 91.423828 177.5293 C 95.5003 181.64678 101.05877 183.95679 106.85352 183.94336 C 125.13577 183.89881 164.72461 183.80273 164.72461 183.80273 C 166.33611 183.60687 167.68585 182.43164 168.07617 180.82227 C 168.50539 179.05521 167.66847 177.2243 166.05273 176.39062 L 142.63086 162.95117 L 207.49609 98.085938 C 208.66777 96.914261 208.66777 95.013473 207.49609 93.841797 L 195.59766 81.943359 C 195.01182 81.357521 194.24235 81.064453 193.47461 81.064453 z "
     style="fill:#000000;fill-opacity:1;stroke:#000000;stroke-width:2.5" />
</svg>
