<?xml version="1.0" encoding="UTF-8" standalone="no"?>
<svg
   xmlns="http://www.w3.org/2000/svg"
   fill-rule="evenodd"
   viewBox="0 0 220 220">
  <path
     d="M 109.22461 26.496094 C 101.73988 26.527668 42.526953 29.070777 41.228516 101.50391 C 41.228516 101.50391 38.169516 153.06591 95.228516 188.50391 C 95.228516 188.50391 100.10448 192.39652 109.77148 193.47852 L 110 193.50391 C 119.82 192.45891 124.77148 188.50391 124.77148 188.50391 C 181.83048 153.06591 178.77148 101.50391 178.77148 101.50391 C 177.38648 24.241902 110.107 26.499906 110 26.503906 C 109.99331 26.503656 109.72359 26.493989 109.22461 26.496094 z M 64.693359 86.238281 C 66.486776 86.257405 68.5776 86.534551 71.013672 87.164062 C 71.013672 87.164062 89.94332 92.161705 99.744141 119.08789 C 99.744141 119.08789 101.66366 127.03711 99.248047 129.73047 C 99.248047 129.73047 96.369363 135.23881 81.654297 130.79492 C 81.654297 130.79492 48.920974 116.56746 53.986328 93.548828 C 53.986328 93.548828 55.008911 86.135013 64.693359 86.238281 z M 155.60547 86.238281 C 165.28992 86.135013 166.31055 93.548828 166.31055 93.548828 C 171.3759 116.56746 138.64258 130.79492 138.64258 130.79492 C 123.92751 135.23881 121.05078 129.73047 121.05078 129.73047 C 118.63516 127.03711 120.55273 119.08789 120.55273 119.08789 C 130.35355 92.161704 149.28516 87.164062 149.28516 87.164062 C 151.72123 86.534551 153.81205 86.257405 155.60547 86.238281 z "
     style="fill:#000000;fill-opacity:1;stroke:#000000;stroke-width:2.5" />
</svg>
