<?xml version="1.0" encoding="UTF-8" standalone="no"?>
<svg
   xmlns="http://www.w3.org/2000/svg"
   fill-rule="evenodd"
   viewBox="0 0 220 220">
  <path
     d="M 111.22656 31.720703 C 103.42551 31.667635 95.776406 34.46497 88.984375 39.226562 C 65.494375 53.270562 26.787328 90.352812 30.361328 91.382812 L 9.1289062 100.4375 L 30.746094 109.65625 C 30.013094 113.74325 74.232391 153.99484 97.900391 167.58984 C 101.05139 171.45884 102.87194 174.45638 104.21094 176.48438 L 109.88086 189.7832 L 118.99805 169.97266 C 118.99805 169.97266 154.28631 146.42066 179.69531 121.09766 C 184.11031 116.69766 186.86888 113.55764 190.17188 109.26562 L 210.87109 100.4375 L 190.89453 91.919922 C 190.53753 87.937922 150.73695 51.519953 131.75195 39.126953 C 125.11164 34.033984 118.10984 31.767528 111.22656 31.720703 z M 109.92969 47.601562 C 112.67806 47.595687 115.42684 48.361891 117.83984 49.900391 C 139.25784 63.699391 158.28284 79.693234 175.33984 97.490234 C 176.92284 99.149234 176.8953 101.76753 175.2793 103.39453 C 157.8503 120.84453 138.66119 136.31306 118.36719 150.53906 C 112.94819 154.31806 105.73737 154.28041 100.35938 150.44141 C 80.45937 136.11641 62.043547 120.3055 44.935547 103.1875 C 43.424547 101.6705 43.386609 99.228063 44.849609 97.664062 C 61.887609 79.549064 80.947348 63.639594 102.02734 49.933594 C 104.43384 48.385594 107.18131 47.607439 109.92969 47.601562 z M 100.82422 60.302734 C 95.830374 60.302734 91.777344 64.355609 91.777344 69.349609 L 91.777344 131.55078 C 91.777344 136.54478 95.830374 140.59961 100.82422 140.59961 L 118.92188 140.59961 C 123.91675 140.59961 127.9707 136.54478 127.9707 131.55078 L 127.9707 69.349609 C 127.9707 64.355609 123.91675 60.302734 118.92188 60.302734 L 100.82422 60.302734 z "
     style="fill:#000000;fill-opacity:1;stroke:#000000;stroke-width:2.5" />
</svg>
