<?xml version="1.0" encoding="UTF-8" standalone="no"?>
<svg
   xmlns="http://www.w3.org/2000/svg"
   fill-rule="evenodd"
   viewBox="0 0 220 220">
  <path
     style="fill:#000000;stroke:#000000;stroke-width:2;fill-opacity:1"
     d="M 116.10156 34.337891 C 98.205562 34.337891 81.755641 40.577578 68.806641 51.017578 C 68.565641 51.207578 68.234078 51.247422 67.955078 51.107422 C 65.345078 49.837422 52.337656 43.498516 49.722656 42.228516 C 49.414656 42.128516 49.078141 42.22875 48.869141 42.46875 C 36.072141 57.62875 28.355469 77.217891 28.355469 98.587891 C 28.355469 144.76789 64.38475 182.60828 109.84375 185.48828 C 111.90775 185.65828 113.99356 185.66797 116.10156 185.66797 C 157.79456 185.66797 191.64453 151.75805 191.64453 109.99805 C 191.64453 68.238047 157.79456 34.337891 116.10156 34.337891 z M 120.58594 55.197266 L 122.75 61.337891 C 122.78 61.417891 122.86022 61.47875 122.94922 61.46875 C 123.03822 61.46875 123.11281 61.398359 123.13281 61.318359 L 124.50781 55.337891 C 133.09381 55.987891 140.31561 58.207422 146.34961 61.357422 L 145.50391 67.707031 C 145.49291 67.797031 145.54205 67.877969 145.62305 67.917969 C 145.70405 67.947969 145.79847 67.927422 145.85547 67.857422 L 149.69922 63.277344 C 157.74122 68.287344 163.39169 74.958125 167.17969 81.328125 L 161.79688 85.417969 C 161.72588 85.467969 161.69847 85.568437 161.73047 85.648438 C 161.76247 85.738438 161.84559 85.787344 161.93359 85.777344 L 169.25977 85.158203 C 171.71677 90.118203 173.04086 94.627734 173.50586 97.677734 C 174.29686 102.85773 174.34056 107.90805 173.72656 112.74805 L 164.45898 112.96875 C 164.32598 112.96875 164.20978 113.0575 164.17578 113.1875 C 164.14178 113.3175 164.19655 113.45734 164.31055 113.52734 L 172.66211 118.54883 C 170.66311 126.80883 166.72837 134.35766 161.35938 140.84766 L 154.13281 137.07812 C 154.01481 137.01812 153.86934 137.03867 153.77734 137.13867 C 153.68534 137.23867 153.66737 137.37805 153.73438 137.49805 L 157.89648 144.6875 C 151.85548 150.8375 144.43516 155.80852 136.16016 159.22852 L 130.7207 151.20703 C 130.6207 151.06703 130.43462 151.00859 130.26562 151.05859 C 130.09662 151.11859 129.98423 151.27727 129.99023 151.44727 L 130.29883 161.33789 C 123.81783 163.34789 116.92475 164.42773 109.84375 164.42773 C 106.19075 164.42773 102.62134 164.13836 99.152344 163.56836 L 98.955078 150.24805 C 98.952078 150.06805 98.833109 149.90719 98.662109 149.86719 C 98.490109 149.81719 98.307844 149.88711 98.214844 150.03711 L 91.056641 161.70703 C 82.451641 159.13703 74.640938 154.84781 67.960938 149.25781 L 75.949219 135.86719 C 76.063219 135.67719 76.036766 135.42758 75.884766 135.26758 C 75.733766 135.10758 75.493922 135.0682 75.294922 135.1582 L 60.917969 142.42773 C 54.930969 135.69773 50.293812 127.74836 47.382812 119.06836 L 61.341797 109.89844 C 61.563797 109.74844 61.663937 109.47852 61.585938 109.22852 C 61.507937 108.96852 61.271859 108.79883 61.005859 108.79883 L 44.865234 109.05859 C 44.229234 105.34859 43.898438 101.53773 43.898438 97.677734 C 43.898438 79.337734 47.339141 68.077656 52.869141 61.347656 C 53.005141 61.177656 53.228734 61.117266 53.427734 61.197266 C 55.677734 62.207266 66.245937 67.727188 81.460938 81.617188 C 81.585938 81.727187 81.747063 81.797578 81.914062 81.767578 C 82.081063 81.737578 82.221109 81.62875 82.287109 81.46875 C 83.432109 78.97875 87.8275 70.3875 96.6875 63.6875 L 101.56445 68.007812 C 101.63145 68.067813 101.72969 68.077344 101.80469 68.027344 C 101.88069 67.977344 101.91463 67.888828 101.89062 67.798828 L 100.04102 61.388672 C 105.45602 58.048672 112.23894 55.557266 120.58594 55.197266 z "
     id="main" />
  <path
     d="m 82.6544,80.708 c -2.36323,3.2372 -2.17889,11.5867 -1.82228,17.4113 0.0962,1.5715 -7.69044,5.7048 -7.35088,7.0175 0.32788,1.2676 8.8812,0.7287 9.47302,2.1876 1.24623,3.0722 3.19616,5.8303 5.14896,8.5095 0.88376,1.2125 -3.8525,7.3656 -2.8776,8.5122 0.9749,1.1465 7.66094,-2.7134 8.78338,-1.7178 2.43924,2.1637 5.22459,3.9449 8.09557,5.4906 1.07007,0.5761 -0.78851,7.8838 0.34279,8.3333 1.1313,0.4495 5.25249,-5.9593 6.39652,-5.5492 0.3145,0.1127 0.62901,0.2379 0.95855,0.2929 3.96294,0.6614 8.0441,0.7662 12.04622,0.4121 1.01992,-0.09 3.79855,6.6638 4.80989,6.4652 1.01134,-0.1985 0.25538,-7.3497 1.19765,-7.7503 3.16952,-1.3477 5.91016,-3.5848 8.56625,-5.7774 0.74179,-0.6124 4.79182,2.4204 5.48029,1.7438 0.68848,-0.6767 -1.9846,-5.0628 -1.40513,-5.8305 2.05998,-2.7293 3.96865,-5.6972 4.99987,-8.9575 0.29998,-0.9484 4.76163,-0.4785 4.83887,-1.4768 0.0772,-0.9983 -4.22994,-3.4648 -4.22184,-4.4595 0.0248,-3.044 -0.0691,-6.1416 -0.79601,-9.0976 -0.24928,-1.0137 2.98679,-4.2936 2.58887,-5.2667 -0.39793,-0.9731 -4.42986,0.3607 -4.99904,-0.5144 -1.15736,-1.7794 -2.7535,-3.2585 -4.37955,-4.623 -0.69535,-0.5835 0.20847,-4.3407 -0.54947,-4.8466 -0.75794,-0.5058 -3.17765,2.2397 -3.99462,1.844 -2.47729,-1.1999 -5.15423,-1.9954 -7.84336,-2.583 -0.75196,-0.1643 -1.63266,-4.2916 -2.40042,-4.3977 -0.76775,-0.1062 -1.42255,3.8087 -2.18884,3.8809 -2.22597,0.2105 -4.36438,1.0766 -6.40696,1.986 -0.73836,0.3287 -3.64304,-1.5436 -4.35373,-1.1447 -0.7107,0.3988 0.7726,3.0688 0.18732,3.6262 -1.81202,1.7257 -2.99653,4.0347 -4.15132,6.2546 -0.20454,0.3932 -3.08243,0.3873 -3.25146,0.7995 -0.16903,0.4122 2.3708,1.2424 2.28137,1.6765 -0.47053,2.2841 -0.31639,4.662 -0.23027,6.9925 0.0205,0.5534 -2.37977,1.4125 -2.34667,1.9711 0.0333,0.5585 2.50033,0.8165 2.7006,1.3328 0.77416,1.9958 2.32815,3.623 3.80078,5.1767 0.42297,0.4463 -0.47384,2.5735 -0.001,2.9732 0.47244,0.3996 2.31412,-0.9282 2.85388,-0.6338 1.25263,0.6833 2.68127,1.0041 4.07424,1.3134 0.31436,0.07 0.1665,2.3451 0.48666,2.3885 0.32015,0.043 1.10832,-2.145 1.43033,-2.147 2.24151,-0.014 4.41282,-0.086 6.4863,-0.7476 0.27129,-0.086 0.9989,0.8433 1.24896,0.7025 0.25007,-0.1407 0.0226,-1.352 0.24812,-1.5258 1.20515,-0.929 2.18007,-2.1321 3.14543,-3.3083 0.15934,-0.1941 1.26438,0.3729 1.41954,0.1723 0.15516,-0.2005 -0.63955,-1.1687 -0.55089,-1.4037 0.47889,-1.2694 0.40251,-2.6906 0.43534,-4.047 0.009,-0.3698 1.29298,-0.742 1.27578,-1.1127 -0.0174,-0.3706 -1.33638,-0.7396 -1.4062,-1.1029 -0.27264,-1.4183 -0.58271,-2.8982 -1.36466,-4.1125 -0.14501,-0.2252 0.71284,-1.0546 0.50626,-1.229 -0.20658,-0.1745 -1.4776,0.3061 -1.68546,0.1371 -1.16243,-0.9449 -2.30334,-1.9747 -3.66283,-2.6038 -0.27478,-0.1271 -0.38914,-1.2188 -0.68511,-1.2936 -0.29597,-0.075 -0.77354,0.8676 -1.07555,0.8464 -1.23499,-0.087 -2.49503,0.087 -3.6922,0.4021 -0.25803,0.068 -0.92803,-0.7877 -1.17842,-0.6873 -0.25039,0.1004 -0.0812,1.1568 -0.2921,1.3202 -1.23263,0.9548 -2.18455,2.2947 -2.86462,3.6978 -0.13727,0.2832 -1.25862,0 -1.34667,0.3114 -0.088,0.3091 0.8572,1.2083 0.89127,1.5211 0.24222,2.2239 0.906,5.1802 2.98267,6.0119 2.5135,1.0067 5.37702,0.2454 7.63494,-2.7727"
     id="innerLine"
     style="fill:none;stroke:#000000;stroke-width:2.4;stroke-linecap:round;" />
</svg>
