<?xml version="1.0" encoding="UTF-8" standalone="no"?>
<svg
   xmlns="http://www.w3.org/2000/svg"
   fill-rule="evenodd"
   viewBox="0 0 220 220">
  <path
     d="M 106.85156 28.320312 C 76.961099 28.675655 65.790531 44.464859 52.167969 64.568359 C 41.381969 80.486359 20.896391 134.49766 42.025391 167.47266 C 51.183391 181.76566 62.599844 192.50553 81.839844 193.01953 C 90.336844 193.24653 129.66316 193.24653 138.16016 193.01953 C 157.40016 192.50553 168.81561 181.76566 177.97461 167.47266 C 199.10361 134.49766 178.61703 80.486359 167.83203 64.568359 C 153.77003 43.816359 142.31831 27.662937 110.19531 28.335938 C 110.12931 28.336938 110.065 28.33975 110 28.34375 C 109.935 28.33975 109.87069 28.336937 109.80469 28.335938 C 108.80081 28.314906 107.81577 28.308851 106.85156 28.320312 z M 111.97656 52.705078 A 25.636 21.106001 0 0 1 137.61328 73.810547 A 25.636 21.106001 0 0 1 111.97656 94.916016 A 25.636 21.106001 0 0 1 86.341797 73.810547 A 25.636 21.106001 0 0 1 111.97656 52.705078 z M 67.560547 116.97461 C 75.581304 116.83309 83.423785 122.32706 89.041016 129.31641 C 95.609114 137.48925 98.297423 155.95683 87.609375 160.47266 C 75.995031 165.37923 63.638883 157.38142 58.125 150.30469 C 51.02211 141.18834 48.223551 125.3917 59.554688 119.14844 C 62.192054 117.69551 64.886961 117.02178 67.560547 116.97461 z M 153.29688 116.97461 C 155.97046 117.02178 158.66342 117.69551 161.30078 119.14844 C 172.63192 125.3917 169.83335 141.18834 162.73047 150.30469 C 157.21658 157.38142 144.86044 165.37923 133.24609 160.47266 C 122.55805 155.95683 125.24831 137.48925 131.81641 129.31641 C 137.43364 122.32706 145.27612 116.83309 153.29688 116.97461 z "
     style="fill:#000000;fill-opacity:1;stroke:#000000;stroke-width:2.5" />
</svg>
