<?xml version="1.0" encoding="UTF-8" standalone="no"?>
<svg
   xmlns="http://www.w3.org/2000/svg"
   fill-rule="evenodd"
   viewBox="0 0 220 220">
  <path
     d="M 110 23.599609 L 86.636719 86.664062 L 23.5 110 L 77.425781 129.93359 C 78.682815 129.38077 79.9182 128.82583 81.089844 128.27734 C 101.95854 117.52207 123.42651 106.08054 139.83008 89.054688 L 133.36328 86.664062 L 110 23.599609 z M 187.43359 59.28125 C 185.66809 59.28125 183.91526 59.458902 182.17578 59.728516 C 167.3439 62.025959 153.40845 68.601596 139.76953 75.166016 C 139.72729 75.186463 139.70261 75.206131 139.66211 75.226562 C 139.23607 75.432389 138.82155 75.624592 138.39258 75.833984 C 137.97622 76.035935 137.78371 76.525024 137.94922 76.957031 C 137.97165 77.015711 138.01215 77.060356 138.04492 77.111328 C 138.06183 77.151717 138.08596 77.185508 138.11133 77.220703 C 138.12116 77.232034 138.13028 77.243131 138.14062 77.253906 C 138.20447 77.329906 138.28505 77.389113 138.38281 77.433594 C 138.38491 77.434646 138.38657 77.436464 138.38867 77.4375 C 138.4645 77.471222 138.54307 77.495631 138.63281 77.507812 C 138.69087 77.518027 138.74861 77.51917 138.80859 77.517578 C 138.84157 77.516655 138.87049 77.525329 138.9043 77.521484 C 141.30896 77.133719 143.85316 76.337877 146.33203 76.050781 C 146.55305 76.025184 146.77038 76.020773 146.99023 76.003906 C 148.10733 75.941148 149.1044 75.972105 149.94531 76.117188 C 149.9458 76.115747 149.94678 76.114721 149.94727 76.113281 C 150.19344 76.159317 150.43731 76.213326 150.67969 76.28125 C 156.26871 77.846884 151.91384 84.422264 148.41406 88.566406 C 133.88823 105.76652 113.59257 117.92751 93.443359 128.64648 C 82.38711 134.52801 71.079862 140.3298 59.105469 142.27539 C 56.447847 142.70739 52.613132 143.69016 50.611328 141.01172 C 49.340999 139.31064 50.078352 137.02741 51.458984 134.74805 C 51.481296 134.76149 51.496721 134.77988 51.519531 134.79297 C 52.16511 133.66989 53.018498 132.44834 54.056641 131.14648 C 54.121962 131.06584 54.186897 130.98591 54.251953 130.90625 C 54.571837 130.51079 54.902323 130.11091 55.255859 129.70117 C 55.333194 129.59606 55.360303 129.46897 55.345703 129.34766 C 55.389046 129.18303 55.325346 129.10813 55.21875 129.07812 C 55.210481 129.06902 55.206322 129.05742 55.197266 129.04883 C 55.016136 128.87705 54.737503 128.86625 54.544922 129.02344 C 54.254232 129.26113 53.990114 129.49194 53.703125 129.72852 C 53.668082 129.75533 53.626602 129.77954 53.59375 129.80664 C 44.747502 137.10391 35.551552 144.88996 29.021484 154.54297 C 27.127542 157.33898 24.368185 161.07549 25.728516 164.76172 C 25.743924 164.80575 25.756633 164.85127 25.773438 164.89453 C 25.785316 164.92451 25.792252 164.9544 25.804688 164.98438 C 25.817568 165.0154 25.861421 165.07596 25.880859 165.11328 C 25.948175 165.25958 26.007269 165.41018 26.091797 165.54688 C 26.280153 165.85307 26.512898 166.12947 26.78125 166.38086 C 27.232096 166.94586 27.797336 167.617 28.503906 168.41992 C 28.854924 168.20106 29.229411 167.98562 29.585938 167.76758 C 41.805253 170.84563 79.559051 155.62679 120.55859 130.39453 C 160.79609 105.63363 191.01319 79.318455 194.73438 66.726562 C 194.79632 66.657445 194.85998 66.590712 194.92188 66.521484 L 195.83984 64.349609 C 195.30894 63.453325 194.93778 62.78595 194.77539 62.410156 C 194.77064 62.399172 194.76459 62.389815 194.75977 62.378906 C 194.73753 62.328771 194.70975 62.281471 194.68555 62.232422 C 193.42397 59.637327 190.19887 59.301598 187.43359 59.28125 z M 172.12891 100.99219 C 148.13986 121.10092 121.43385 137.93249 93.722656 152.46289 L 110 196.40039 L 133.36328 133.33789 L 196.5 110 L 172.12891 100.99219 z "
     style="fill:#000000;fill-opacity:1;stroke:#000000;stroke-width:2.5" />
</svg>
