<svg fill="none" height="24" viewBox="0 0 24 24" width="24" xmlns="http://www.w3.org/2000/svg" xmlns:xlink="http://www.w3.org/1999/xlink"><mask id="a" fill="#fff"><path clip-rule="evenodd" d="m9.81514 14.5859c-.4206-19.84556 29.77416-18.67285 21.76186 1.2941-.4782-10.95091-9.6275-14.17487-14.0013-8.87931.0279-.00029.0558-.00044.0838-.00044.7952 0 1.5628.11826 2.2861.33816.0353.0015.0699.00799.1039.01967.0352.01567.0703.0314.1054.04718.8008.26834 1.544.66229 2.2062 1.15844 16.1908 9.8661.3528 34.4483-12.73978 17.7721 9.60608 5.0005 16.91218-1.1001 14.77268-7.4538-.8949 1.4911-2.271 2.6605-3.9136 3.2934-16.53083 8.7206-29.6781-17.05789-8.788-20.04426-9.14957 5.82899-7.49764 15.22926-.8967 16.52736-.3764-.6768-.6556-1.415-.81882-2.1959-.02393-.0384-.04046-.0799-.04916-.1247-.01199-.1134-.02303-.2261-.03314-.3382-.05518-.3756-.08376-.7599-.08376-1.1508 0-.088.00145-.1757.00432-.263z" fill="#fff" fill-rule="evenodd"/></mask><path clip-rule="evenodd" d="m7.0455256 10.919193c-.292867-13.8186074 20.7319634-13.0020409 15.1529414.901092-.332974-7.6251982-6.703698-9.8700655-9.749207-6.182729.01943-.0002013.03886-.0003059.05835-.0003059.553704 0 1.088189.082349 1.591828.2354629.02458.00104.04867.00555.07234.013697.02451.010973.04895.021868.07339.032854.557602.1868476 1.075099.4611574 1.536193.8066301 11.273776 6.8698379.245661 23.9866029-8.8707976 12.3748429 6.6887826 3.481884 11.7760736-.766008 10.2863246-5.190135-.623126 1.038264-1.581314 1.852526-2.725069 2.293218-11.5105321 6.072214-20.6650718-11.8775353-6.1191427-13.9569667-6.3709127 4.0587688-5.2206622 10.6042447-.6243795 11.5081207-.2620898-.47126-.4564984-.985274-.5701499-1.52902-.016666-.02674-.028168-.05564-.034236-.08683-.00839-.07897-.016033-.157435-.023082-.235492-.038418-.261533-.058325-.529124-.058325-.80131 0-.06128.00101-.122342.00297-.18313z" fill="#2196f3" fill-rule="evenodd" stroke-width=".696307"/><path d="m31.577 15.88-.999.0437 1.9271.3288zm-21.76186-1.2941.99946.0329.0009-.027-.0006-.0271zm7.76056-7.58521-.771-.63681-1.3705 1.65927 2.1519-.02251zm2.3699.33772-.2908.95677.1215.03695.1269.00538zm.1039.01967.4061-.9138-.0396-.01762-.041-.01411zm.1054.04718-.411.91167.0457.02059.0475.01592zm2.2062 1.15844-.5997.80029.0384.02873.0409.02492zm-12.73978 17.7721.46178-.887-1.24833 1.5046zm14.77268-7.4538.9477-.3191-.6909-2.052-1.1142 1.8565zm-3.9136 3.2934-.3596-.9332-.0549.0212-.0521.0275zm-8.788-20.04426.5373.84338-.6789-1.83332zm-.8967 16.52736-.1929.9812 2.1142.4158-1.0474-1.8831zm-.81882-2.1959.97882-.2045-.0362-.1736-.0938-.1506zm-.04916-.1247-.99446.1051.00456.0432.00828.0426zm-.03314-.3382.99592-.0898-.0025-.0279-.004-.0277zm22.61052.2528c2.0843-5.1944 1.7575-9.37464-.1693-12.33457-1.9127-2.938398-5.2578-4.447953-8.7454-4.613543-3.4918-.165788-7.2378 1.003016-10.0926 3.558413-2.876 2.57436-4.79341 6.50784-4.68243 11.7443l1.99953-.0424c-.0993-4.68632 1.5999-8.04834 4.0168-10.2117 2.438-2.18231 5.661-3.19343 8.6638-3.05086 3.007.14276 5.682 1.42985 7.1642 3.70688 1.4681 2.2555 1.911 5.70948-.0108 10.49858zm-14.1584-8.61499c1.8665-2.25987 4.7243-2.71194 7.2272-1.40339 2.5096 1.31204 4.7768 4.48618 5.0041 9.68958l1.9981-.0873c-.251-5.7476-2.7975-9.66088-6.0756-11.37467-3.2847-1.71728-7.1885-1.13355-9.6958 1.90215zm-.7606.36313c.0245-.00026.049-.00039.0734-.00039v-2c-.0315 0-.063.00017-.0943.0005zm.0734-.00039c.6956 0 1.3652.10338 1.9953.29493l.5817-1.91353c-.8166-.24825-1.6822-.3814-2.577-.3814zm2.7155-1.5877c-.1256-.04323-.2556-.06766-.387-.07324l-.0848 1.9982c-.0608-.00258-.1216-.01403-.1792-.03389zm.1908.08104c-.0366-.0165-.0733-.03294-.1102-.04931l-.8123 1.82761c.0337.01496.0672.02997.1006.04504zm-.7287 1.85985c.6979.23385 1.3462.57735 1.9243 1.01055l1.1993-1.60058c-.7463-.55911-1.5844-1.0035-2.4881-1.30633zm-11.00233 18.59996c3.40563 4.3378 7.12913 6.1564 10.61433 6.0275 3.4635-.1281 6.4317-2.172 8.3523-5.0185 3.8412-5.6929 3.7358-14.9781-4.92-20.25265l-1.0407 1.70789c7.535 4.59156 7.6061 12.53046 4.3028 17.42616-1.6516 2.4479-4.0858 4.0393-6.7683 4.1385-2.6607.0984-5.8267-1.2637-8.9673-5.264zm14.61153-7.7523c.9104 2.7035-.1654 5.345-2.5573 6.8134-2.3965 1.4713-6.2417 1.8103-10.8059-.5657l-.92352 1.7741c5.04182 2.6245 9.65272 2.4134 12.77582.4961 3.1278-1.9202 4.6355-5.5059 3.4063-9.1561zm.0903-.8337c-.7815 1.3022-1.9835 2.323-3.4158 2.8748l.7191 1.8663c1.8529-.7139 3.4033-2.0318 4.4116-3.7119zm-3.5228 2.9235c-7.6866 4.0549-14.5222.1186-17.05828-5.1793-1.26716-2.6471-1.40906-5.533-.14621-7.89008 1.25314-2.33894 4.01331-4.38406 9.02459-5.10045l-.2831-1.97987c-5.43373.77679-8.86392 3.07388-10.50441 6.1358-1.630777 3.0438-1.369581 6.6174.10517 9.6981 2.94774 6.1579 10.95114 10.7504 19.79534 6.0848zm-8.8587-20.00315c-4.80224 3.05939-6.92392 7.16714-6.81707 10.83525.10703 3.6739 2.47364 6.7711 6.26477 7.5167l.3859-1.9624c-2.80989-.5526-4.56972-2.8045-4.65152-5.6125-.08196-2.81381 1.54516-6.32067 5.89252-9.09028zm.5145 16.88465c-.3283-.5903-.5716-1.2338-.7139-1.9143l-1.95767.4091c.18415.8812.49926 1.7141.92378 2.4774zm-2.7235-1.6436c.03243.1667.09475.3225.18197.4625l1.69763-1.0574c.0394.0632.0686.1359.0836.2131zm-.04748-.4394c.01057.1173.02211.2352.03464.3536l1.98894-.2103c-.0115-.1082-.022-.2158-.0317-.3228zm1.98538-.2351c-.0482-.3276-.0732-.6633-.0732-1.0054h-1.99998c0 .4397.03215.8725.09438 1.2961zm-.0732-1.0054c0-.077.0013-.1537.0038-.2301l-1.99891-.0658c-.00324.0983-.00487.1969-.00487.2959z" fill="#4f4f4f" mask="url(#a)" transform="matrix(.69630727 0 0 .69630727 .211271 .762913)"/></svg>