<svg width="24" height="24" viewBox="0 0 24 24" xmlns="http://www.w3.org/2000/svg">
  <g
     aria-label="AE"
     style="font-weight:900;font-size:12px;font-family:'Rubik Mono One';text-anchor:middle;fill:#2196f3;stroke:#4f4f4f;stroke-width:0"
     id="text4616"
     transform="translate(-0.40677966,3.1525424)">
    <path
       d="M 9.6679688,6.40625 H 6.140625 L 5.5839844,8 H 3.3164063 L 6.5566406,-0.74804687 H 9.2460938 L 12.486328,8 H 10.21875 Z M 6.703125,4.7832031 H 9.0996094 L 7.9042969,1.3027344 Z"
       style="font-weight:900;font-size:12px;font-family:'Rubik Mono One';text-anchor:middle;fill:#2196f3;stroke:#4f4f4f;stroke-width:0.4"
       id="path5169"/>
    <path
       d="m 13.640625,-0.74804687 h 6.087891 V 0.95703125 H 15.896484 V 2.5859375 H 19.5 v 1.7050781 h -3.603516 v 2.0039063 h 3.960938 V 8 h -6.216797 z"
       style="font-weight:900;font-size:12px;font-family:'Rubik Mono One';text-anchor:middle;fill:#2196f3;stroke:#4f4f4f;stroke-width:0.4"
       id="path5171" />
  </g>
  <g
     aria-label="RC"
     style="font-weight:900;font-size:12px;font-family:'Rubik Mono One';text-anchor:middle;fill:#2196f3;stroke:#4f4f4f;stroke-width:0"
     id="text4618"
     transform="translate(-0.61016949,4.881356)">
    <path
       d="m 7.2832031,11.130859 q 0.7089844,0 1.0136719,-0.263671 Q 8.6074219,10.603516 8.6074219,10 8.6074219,9.4023438 8.296875,9.1445313 7.9921875,8.8867188 7.2832031,8.8867188 H 6.3339844 V 11.130859 Z M 6.3339844,12.689453 V 16 H 4.078125 V 7.2519531 h 3.4453125 q 1.7285156,0 2.5312505,0.5800781 0.808593,0.5800782 0.808593,1.8339844 0,0.8671874 -0.421875,1.4238284 -0.416015,0.55664 -1.2597654,0.820312 0.4628907,0.105469 0.8261724,0.480469 0.36914,0.369141 0.74414,1.125 L 11.976563,16 H 9.5742188 L 8.5078125,13.826172 q -0.3222656,-0.65625 -0.65625,-0.896484 -0.328125,-0.240235 -0.8789063,-0.240235 z"
       style="font-weight:900;font-size:12px;font-family:'Rubik Mono One';text-anchor:middle;fill:#2196f3;stroke:#4f4f4f;stroke-width:0.4"
       id="path5174"/>
    <path
       d="m 20.25,15.519531 q -0.621094,0.322266 -1.294922,0.486328 -0.673828,0.164063 -1.40625,0.164063 -2.185547,0 -3.46289,-1.21875 -1.277344,-1.224609 -1.277344,-3.316406 0,-2.0976566 1.277344,-3.3164066 1.277343,-1.2246094 3.46289,-1.2246094 0.732422,0 1.40625,0.1640625 Q 19.628906,7.421875 20.25,7.7441406 V 9.5546875 Q 19.623047,9.1269531 19.013672,8.9277344 18.404297,8.7285156 17.730469,8.7285156 q -1.207032,0 -1.898438,0.7734375 -0.691406,0.7734379 -0.691406,2.1328129 0,1.353515 0.691406,2.126953 0.691406,0.773437 1.898438,0.773437 0.673828,0 1.283203,-0.199218 0.609375,-0.199219 1.236328,-0.626954 z"
       style="font-weight:900;font-size:12px;font-family:'Rubik Mono One';text-anchor:middle;fill:#2196f3;stroke:#4f4f4f;stroke-width:0.4"
       id="path5176"/>
  </g>
</svg>
