<svg fill="none" height="24" viewBox="0 0 24 24" width="24" xmlns="http://www.w3.org/2000/svg"><path d="m1.5655673 20.275065-.3019129.304151.308577.297395 1.9029847 1.834113.3085855.297394.2928416-.312935 9.7959818-10.467919c.26741.217914.575024.413362.92639.522065.515562.159382 1.082731.119178 1.69078-.214789.0095.0037.02162.009.03691.01622.05245.02492.111492.05938.196799.109464l.000676.000422c.07923.04654.177119.103974.283711.156257.21631.106001.497994.205836.834156.178554.302378-.02449.605178-.147979.911018-.384222.0041.0021.0084.0043.01284.0068.05735.03058.120698.06935.202881.1196.01005.0062.02036.0125.031.01892.09232.05642.20136.122302.319355.183538.233287.121035.534566.242155.878668.241142.358968-.001.717682-.134381 1.056717-.438701l.319608-.286921-.292242-.314709c-.522488-.562777-.931036-.971155-1.692469-1.66088l-.06757-.06124-.08674-.02787-2.936102-.9433676 3.88403-4.6827965c.05896.085899.113518.1853963.16352.2983233.11791.2662273.197559.5791626.24925.8937027.103636.6310229.0848 1.2063848.07965 1.2818102l-.07129 1.032391.773259-.6876976c.310148-.2759405.501541-.4855777.671903-.6837278.03716-.04333.07255-.08497.107268-.1258498.123653-.1458676.239706-.2826976.406182-.4525527l.09874-.1007643.01833-.1398707c.086732-.660629.002523-1.5490106-.168853-2.3407158-.086574-.4001603-.198234-.7887153-.328899-1.1244218-.127454-.3273701-.285569-.6376533-.479411-.8538954l-.02061-.023008-.02382-.019764c-.222642-.1852358-.539801-.3336204-.873767-.4514885-.342582-.1209256-.738291-.2218842-1.145065-.29742795-.803834-.14930521-1.704125-.20900364-2.363528-.09761387l-.13911.0234976-.09705.10240291c-.16352.17257481-.296043.29361871-.43718.42260211-.03961.036209-.07999.073035-.121796.1118121-.191815.1775412-.394273.3765275-.658558.696676l-.658727.7980653 1.029013-.1092782c.07526-.00799.649436-.04795 1.283922.032349.316229.040027.631867.1080873.902318.2160901.114616.045787.21614.096719.304066.1524472l-4.536422 4.0539949-1.050973-2.8993606-.031-.085646-.06368-.06529c-.717345-.735452-1.140504-1.128661-1.722201-1.6300923l-.325267-.280434-.274927.3299715c-.291566.3499977-.411672.7133659-.399425 1.0721815.01166.3439248.14384.6404743.273406.8691156.06546.1156298.13531.2222221.19511.3124286.0068.010389.0136.02044.02002.030238.0533.080324.09434.1422357.127116.1984036.0025.00431.0049.00853.0072.012585-.224756.3142868-.337007.6214786-.350353.9245318-.01486.3369228.09528.614806.209215.8270615.05608.1044807.11715.2002617.166561.2777143l.000422.0006757c.05321.083365.08979.1411376.116644.19266.0078.01495.01351.026944.01757.036235-.31133.6199583-.330588 1.1881407-.152287 1.697537.121543.3471428.328139.6473242.555767.9065409zm14.8970307-7.749478c0-.000085.00076 0 .0024.000422-.0015-.000169-.0024-.000422-.0024-.000422zm-5.190841-5.0029959c-.000085 0-.000254-.0008446-.000591-.00236.000506.00169.000675.00245.000591.00236z" fill="#ffc107" stroke="#4f4f4f" stroke-width=".84463"/></svg>