<svg fill="none" height="24" viewBox="0 0 24 24" width="24" xmlns="http://www.w3.org/2000/svg"><g fill="#ffc107" stroke="#4f4f4f" transform="matrix(.8641243 0 0 .8641243 .071166 .031949)"><path d="m15.8178 5.44199c-.0133.01496-.0242.02628-.0327.03473-.8172-.08313-1.4539.13501-1.9424.54698-.4745.40025-.7704.95166-.9854 1.4559l-1.0256 2.40583c-.215.50427-.4079 1.09957-.3681 1.71907.0409.6377.3245 1.2481.9503 1.7802-.0002.012-.0009.0277-.0025.0476-.0054.0685-.0187.1484-.0381.2639l-.0002.001c-.0181.1072-.0404.2398-.0533.3796-.0261.284-.0178.6378.1541.9983.1545.3241.4188.6071.809.8459-.0006.0054-.0013.0111-.002.0171-.0097.0763-.0259.1627-.0469.2749-.0025.0136-.0052.0277-.0079.0422-.0235.1259-.0504.2744-.0684.4307-.0356.3092-.0426.6935.1035 1.0738.1525.3968.4513.7374.9308.9842l.4522.2327.225-.456c.4024-.8153.6821-1.4394 1.1243-2.5726l.0392-.1005-.0057-.1078-.1938-3.646 6.818 2.3235c-.0702.1014-.1573.2038-.2611.3066-.2449.2427-.5576.4627-.8838.6525-.6545.3806-1.2989.6023-1.3846.6283l-1.1722.3563 1.0868.5657c.4359.2269.7486.3502 1.0396.4552.0636.0229.1246.0444.1845.0656.2135.0754.4138.1461.6718.2587l.1532.0668.1625-.0387c.7673-.1825 1.7148-.6501 2.5185-1.1734.4062-.2644.789-.5517 1.1054-.8378.3084-.279.5851-.5847.7426-.8903l.0168-.0325.0119-.0347c.1111-.3244.1415-.7378.1312-1.157-.0106-.43-.0657-.9104-.1536-1.3922-.1736-.9524-.487-1.9735-.8882-2.65613l-.0846-.14401-.1542-.06422c-.2599-.10823-.4496-.20379-.6518-.30562-.0568-.02858-.1145-.05766-.1751-.08765-.2772-.13732-.5827-.27746-1.0483-.43489l-1.1606-.39244.5546 1.09244c.0405.07984.3268.69831.5053 1.43412.089.3667.1468.7446.1413 1.0894-.0024.1461-.016.2798-.0405.4006l-6.3973-3.31025 2.7647-2.38479.0818-.07049.0453-.09792c.5114-1.10365.7681-1.73758 1.0777-2.59246l.1732-.4781-.481-.16508c-.5101-.17511-.9628-.15484-1.3546.00992-.3756.15791-.648.42909-.8464.66884-.1003.12123-.1888.24342-.2634.34758-.0086.01198-.0169.02362-.025.03494-.0664.0928-.1175.16429-.1659.22415-.0038.00468-.0074.0091-.0109.0133-.4425-.11622-.8296-.11095-1.1705.002-.3791.12559-.6401.36457-.8269.58007-.092.10613-.1722.21406-.2371.30133l-.0006.00079c-.0698.09403-.1183.15886-.1639.21026zm-3.4055 7.90881c.0001 0 .0003.0009.0005.0029-.0004-.0018-.0005-.0028-.0005-.0029zm3.3497-7.8534c-.0016.00124-.0024.00172-.0024.00165s.0008-.00069.0024-.00165z"/><path d="m1.18945 22.5864-.198314.467.469924.1915 2.89793 1.1804.46992.1914.18449-.4727 6.3487-16.26674.1792-.45898-.4563-.18587-2.42212-.98661-.4563-.18587-.19256.45351z"/></g></svg>