<svg fill="none" height="24" viewBox="0 0 24 24" width="24" xmlns="http://www.w3.org/2000/svg"><g fill="#ffc107" stroke="#4f4f4f" stroke-miterlimit="7.6613" transform="matrix(.72470605 0 0 .72470605 -.646939 1.214208)"><path d="m10.9309 11.9791c.9264-.2165 1.6011-.9208 1.9713-1.8004.3704-.88023.456-1.97127.1991-3.07116-.257-1.09988-.8171-2.04006-1.5392-2.66506-.7216-.62456-1.63852-.95698-2.565-.74053-.92647.21645-1.60118.92071-1.97135 1.80034-.37042.88025-.45602 1.97128-.19906 3.07117.25697 1.09989.81712 2.04004 1.53921 2.66504.72159.6246 1.6385.957 2.565.7406z"/><path d="m5.74155 19.0275c.8845-.2066 1.5309-.8722 1.88706-1.7026.35626-.8306.44099-1.8583.19936-2.8925-.24163-1.0343-.77292-1.918-1.46033-2.5048-.68721-.5867-1.56161-.8969-2.4461-.6903-.8845.2066-1.5309.8722-1.88706 1.7026-.35626.8306-.44098 1.8583-.19936 2.8926.24163 1.0342.77292 1.918 1.46033 2.5047.68721.5867 1.56161.897 2.4461.6903z"/><path d="m28.6718 17.6121c.8561.3033 1.7595.0918 2.5075-.4151.7482-.507 1.3741-1.3264 1.7288-2.3275.3548-1.0011.3844-2.0319.1224-2.8968-.262-.8648-.8307-1.5979-1.6868-1.9013-.8562-.30332-1.7596-.09182-2.5075.4151-.7482.507-1.3742 1.3264-1.7289 2.3275s-.3844 2.0319-.1223 2.8969c.2619.8647.8306 1.5978 1.6868 1.9012z"/><path d="m24.0477 12.0838c.9286.1057 1.7802-.3409 2.4055-1.0458.6264-.7061 1.0618-1.70403 1.189-2.82274.1273-1.11871-.0729-2.18887-.5248-3.0177-.451-.82727-1.1806-1.45366-2.1092-1.55927s-1.7802.34095-2.4055 1.04581c-.6265.70619-1.0619 1.70407-1.1891 2.82278s.0729 2.18887.5248 3.01772c.4511.8272 1.1807 1.4536 2.1093 1.5592z"/><path d="m17.3197 9.57261c.9739.00439 1.8044-.56389 2.3713-1.37673.5683-.81487.9065-1.91536.9119-3.10851s-.3229-2.29665-.8838-3.11661c-.5596-.81792-1.3849-1.393666-2.3588-1.398057-.974-.004391-1.8045.563887-2.3714 1.376727-.5683.81488-.9065 1.91537-.9118 3.10852-.0054 1.19315.3228 2.29664.8838 3.11661.5595.81792 1.3849 1.39366 2.3588 1.39805z"/><path d="m23.6108 15.0698c-.3431-.8388-.925-1.8246-2.0002-2.6018-1.0771-.7786-2.6051-1.3159-4.7846-1.3339-1.192-.0099-2.5976.465-3.7849 1.1161-1.1754.6445-2.2572 1.5279-2.7082 2.4299-.1704.3408-.33528.7833-.50703 1.2444-.01807.0485-.03621.0972-.05445.146-.1966.5263-.41333 1.0932-.68261 1.6523-.54162 1.1245-1.26587 2.1521-2.37068 2.7045-1.60914.8046-2.67433 1.7364-3.14172 2.8321-.4788 1.1225-.28372 2.3016.36969 3.4739.34413.6174 1.12257 1.2246 1.95253 1.6675.8429.4499 1.85523.7925 2.74903.7925.45386 0 1.09055-.1187 1.78114-.2727.45-.1003.9501-.2223 1.4686-.3487.288-.0702.5817-.1418.8755-.2118 1.687-.4021 3.3831-.7513 4.5065-.6611 1.0585.085 2.2556.3378 3.343.584.1545.035.3072.0699.4569.1042.3709.0849.7234.1655 1.0386.232.4371.0922.8384.1652 1.1442.1824 1.3775.0776 4.4322-.3144 6.4939-3.6104.7047-1.1266 1.0276-2.0949 1.0521-2.9352.0249-.8532-.2594-1.5326-.6873-2.0623-.7357-.9105-1.9074-1.3741-2.5382-1.6236-.0717-.0284-.1363-.054-.1926-.0771-.5429-.2236-1.3513-.7241-2.1051-1.3665-.7595-.6473-1.399-1.3844-1.6741-2.0567z"/></g></svg>