<svg fill="none" height="24" viewBox="0 0 24 24" width="24" xmlns="http://www.w3.org/2000/svg"><g stroke-width=".489048"><path clip-rule="evenodd" d="m20.061562.5574171c.552232.10506696 1.136057.4463488 1.762332 1.0046407l.01022-.010387c.06402.064046.125978.1276658.185789.1908703.06001.056964.120403.1158456.181192.1766342l-.0097.00988c.558932.6269002.902439 1.2129649 1.011594 1.7693396.133119.6781867-.08553 1.2915843-.634636 1.8509568l-.76536.7795907h.000049l-2.391718 2.4362912c-.549151.5593726-1.154885.7857038-1.82801.6576222-.421657-.0802038-.861702-.2981233-1.325026-.6452004l-.538783.5387837c.361944.475941.590084.9284569.675325 1.3628779.133119.678211-.08553 1.291623-.634685 1.850947l-.765311.77959.000049.000049-2.391736 2.436288c-.549151.559324-1.154885.785655-1.828059.657622-.416522-.07927-.8510406-.292939-1.3082022-.632729l-.5841673.584167c.3619441.475941.5900848.928457.6753257 1.362877.1331188.678163-.085534 1.291624-.6346858 1.850947l-.7653105.779591h.0000489l-2.3917357 2.436288c-.5491515.559373-1.1548857.785704-1.82804.657622-.5522423-.105047-1.1360574-.446305-1.7623268-1.004601l-.010079.01027c-.0632683-.063283-.1244922-.126126-.1836522-.188577-.0607642-.057659-.1219196-.117273-.1834907-.178845l.00982-.01c-.5589078-.626886-.90241989-1.212961-1.01160953-1.769301-.13309917-.678211.08555397-1.291623.63468113-1.850947l.7652078-.779493-.0000489-.000049 2.3917308-2.436288c.5491368-.559323 1.1548711-.785655 1.828045-.657573.4511952.085828.9235173.329373 1.4227859.720122l.5582477-.558198c-.4134897-.517657-.6718535-1.007585-.7638433-1.476386-.1331187-.678162.0855344-1.291623.6346859-1.850947l.7651637-.779444-.0000489-.000049 2.3917353-2.4362877c.549152-.5593725 1.154886-.7857037 1.82806-.6576222.451195.085828.923517.3293735 1.422786.7201225l.51663-.5166298c-.405861-.5116415-.659823-.9961898-.750835-1.4600513-.133119-.6782111.085534-1.2916234.634686-1.8509715l.765212-.7794586-.000049-.0000489 2.391736-2.4362832c.549103-.55935789 1.154837-.78568908 1.828011-.6576222zm-2.55855 6.9755146.329129-.329129c.290103-.2901029.290103-.7604688 0-1.0506207-.290152-.290103-.760518-.290103-1.05067 0l-.38131.3813592c-.08842-.1666185-.137765-.325999-.150822-.4794132-.02812-.3302538.10984-.6620726.452956-1.0115948l.522156-.5318539 1.109257-1.1299247.522156-.5318587c.343116-.3495027.670582-.4918351.998097-.4664975.305117.023611.635469.1943279 1.001129.5350375.341698.3663748.514234.6986093.540447 1.0066701.02817.3302831-.10984.662097-.452956 1.0116192l-.522107.5317414-1.109307 1.130042-.522058.5317414c-.343116.3495223-.670631.4918351-.998097.4665024-.09355-.00724-.189457-.028267-.288-.063821zm-4.047259 1.9460179-.28267.2826694c-.290152.290103-.290152.760469 0 1.050621.290103.290103.760518.290103 1.050621 0l.268927-.268927c.0536.124804.08475.245501.09473.362726.02812.330254-.10984.662072-.452956 1.011595l-.522107.53179-1.631414 1.661783c-.343067.349474-.670582.491836-.998048.466503-.08666-.0067-.175372-.02528-.266335-.05624l.278855-.278855c.290103-.290102.290103-.760517 0-1.05062-.290152-.290103-.760518-.290103-1.0506698 0l-.34248.34248c-.0948762-.173515-.1474977-.339205-.1610932-.49839-.0281203-.330302.1098889-.662121.4530047-1.011643l.5221563-.531839 1.109257-1.129945.522107-.5318388c.343116-.3495222.670631-.491835.998097-.4665024.131701.010221.268096.04778.410018.1146328zm-7.1194559 8.3721024c-.290103-.290152-.290103-.760518 0-1.05067l.2826694-.282621c-.1419216-.06685-.2783169-.10446-.4100174-.114632-.3274662-.02533-.6549813.11698-.9980482.466502l-.5221756.531839-1.1092429 1.129944-.5221511.53184c-.3431108.349522-.4811103.681341-.4529802 1.011594.026208.307807.1984505.639675.5395074 1.005629.3660716.341355.6967704.512375 1.0021757.535996.3274956.02538.6549764-.11698.9981117-.466454l.5220583-.53179 1.1093064-1.129993.5221071-.53179c.3431158-.349523.4810761-.681341.4529558-1.011595-.0099765-.117225-.0411289-.237971-.0947285-.362727l-.2689272.268928c-.290103.290103-.7605178.290103-1.0506207 0z" fill="#2196f3" fill-rule="evenodd"/><path d="m21.823883 1.5620585-.162706.1825272.173954.155077.163244-.1663055zm-1.762332-1.00464043-.045726.24021525zm1.772553.99425303.172878-.1729027-.174492-.1745165-.172878.1761254zm.185789.1908704-.177573.1681003.0045.00474.0047.00449zm.181192.1766342.174492.1712986.169749-.1728929-.171314-.1713134zm-.0097.00988-.174492-.1712987-.160261.1632588.15224.1707607zm1.011595 1.7693397.239975-.04709zm-.63462 1.8509604-.174492-.1713134zm-.76536.7795906-.174492-.1713133-.169699.1728783.171313.1713133zm.000049 0 .174492.1713133.1697-.1728782-.171313-.1713134zm-2.391735 2.436288-.174493-.1713134zm-1.828011.6576222-.04573.2402201zm-1.325025-.6452004.146616-.1957168-.169651-.1270546-.149844.1498442zm-.538784.5387836-.172927-.1728783-.150969.150969.129255.169944zm.675326 1.3628772-.239927.0471zm-.634686 1.850948.174492.171313zm-.765311.77959-.174492-.171313-.169748.172927.171362.171313zm.000049.000049.174492.171264.1697-.172878-.171313-.171313zm-2.391736 2.436288.174493.171264zm-1.828059.657622-.04568.240171zm-1.3082022-.632729.1458339-.196255-.1694549-.12593-.1493062.149306zm-.5841673.584167-.1729272-.172927-.1509689.151017.1292552.169944zm.6753257 1.362877-.2399267.0471zm-.6346858 1.850947-.1744922-.171313zm-.7653105.779591-.1744921-.171313-.1697484.172878.1713622.171313zm.0000489 0 .1744922.171313.1696995-.172878-.1713134-.171313zm-2.3917357 2.436288-.1744922-.171264zm-1.82804.657622.045701-.24022zm-1.7623268-1.004601.1627159-.182513-.1739493-.155077-.1632538.166276zm-.010079.01027-.1729077.172878.1745069.174541.172888-.176106zm-.183652-.188577.1775193-.168183-.00449-.0047-.00473-.0045zm-.1834909-.178845-.1745019-.171264-.1697142.172878.1713134.171314zm.00982-.01.1744971.171264.1602608-.163244-.1522405-.170775zm-1.01160929-1.769301-.23994627.047095zm.63468089-1.850947-.1744921-.171313zm.7652078-.779493.1744921.171313.169724-.172878-.1713134-.171313zm-.0000489-.000049-.1744922-.171264-.1697288.172878.1713182.171313zm2.3917308-2.436288.1744971.171313zm1.8280449-.657573-.045726.240171zm1.422786.720122-.1506756.192538.170482.133461.1531208-.15312zm.5582477-.558198.1728783.172878.1546368-.154637-.1364931-.170873zm-.7638433-1.476386-.2399756.047095zm.6346859-1.850947.1744921.171313zm.7651637-.779444.1744921.171264.1697484-.172878-.1713133-.171313zm-.0000489-.000049-.1744922-.171313-.1696995.172878.1713134.171313zm2.3917353-2.4362879-.174492-.1713134zm1.82806-.6576222-.04573.2402201zm1.422786.7201224-.150676.1925869.170482.1334122.153121-.1530719zm.51663-.5166298.172927.1729272.154099-.1541477-.135417-.1707265zm-.750835-1.4600513.239927-.047095zm.634686-1.8509715.174492.1712987zm.765213-.7794585.174492.1712986.169699-.1728881-.171313-.1713133zm-.000049-.000049-.174492-.1712986-.169749.1728881.171314.1713182zm2.391735-2.4362829.174493.1712985zm-.730539 6.3178922-.172878-.1729272-.272302.2723016.362238.1306246zm-.72154-1.3797498-.172879-.1728783zm-.381311.3813593-.215963.1146327.155028.2921081.233814-.2338625zm-.150822-.4794133.243643-.0207356zm.452956-1.0115948-.174492-.1713133zm.522156-.5318538.174492.1713035v-.0000049zm1.109257-1.1299247-.174492-.1713036v.0000049zm.522156-.5318588.174493.1713036zm.998097-.4664975-.01888.2437951zm1.00113.5350375.178795-.1667749-.0059-.00627-.0063-.00584zm.540446 1.0066701.243644-.02075zm-.452956 1.0116192.174492.1713134v-.0000489zm-.522107.5317414-.174492-.1712644zm-1.109306 1.1300421.174492.1713133v-.0000489zm-.522059.5317413-.174492-.1712644zm-.998097.4665025-.01888.2437901zm-4.335259 1.8821971.172878.1728783.245942-.2458931-.314653-.1481814zm-.28267 1.3332907-.172927.172878zm1.050621 0 .172927.172878zm.268927-.268928.224669-.09654-.14246-.331476-.255136.255136zm.09473.362727-.243644.02073zm-.452956 1.011595-.174492-.171314zm-.522107.53179-.172878.172927.174492.174492.172878-.176106zm0 0 .172927-.172927-.174541-.174492-.172878.176106zm-1.631414 1.661783-.174492-.171313zm-.998048.466503.01883-.24379zm-.266335-.05624-.172878-.172927-.277828.277779.37192.126615zm.278855-1.329475-.172927.172927zm-1.3931498.34248-.2145451.117322.1566419.286386.2308304-.230781zm-.1610932-.49839.2436434-.020784zm.4530047-1.011643-.1744922-.171265zm.5221563-.531839.174492.171313zm1.109257-1.129945-.174492-.171264zm.522107-.531839.174493.171313h.000048zm.998097-.4665024.01888-.2437902zm-6.709438 7.4360654.1728783.172927zm0 1.05067-.1729272.172878zm.2826695-1.333291.1728783.172879.245942-.245894-.3146532-.14823zm-.4100174-.114632.0188772-.243791zm-.9980482.466502.1744433.171313h.0000489zm-.5221756.531839-.1744872-.171313-.0000049.000049zm-1.1092429 1.129944.1744922.171314h.0000049zm-.5221511.53184-.1744921-.171314v.000049zm-.4529802 1.011594.2436434-.02074zm.5395074 1.005629-.1788838.166716.00585.0063.00627.0059zm1.0021757.535996-.018863.243839zm.9981117-.466454-.1745117-.171313h-.0000049zm.5220582-.53179.1744922.171313zm1.1093065-1.129993-.1744922-.171313zm.5221071-.53179.1744922.171313zm.4529558-1.011595-.2436434.02073zm-.0947285-.362727.2246685-.096538-.1424596-.331476-.2551361.255136zm-.2689272.268928.1729272.172878zm14.5996822-16.4715217c-.641679-.57203389-1.265117-.94546568-1.879361-1.06232603l-.0914.48042805c.49027.0932711 1.034482.40240298 1.645352.94695238zm-.326977.000846-.01022.010387.348984.3425925.01022-.010392zm.537854.194059c-.061424-.0649015-.124951-.1301209-.190484-.1956679l-.345805.3458055c.06255.062544.122946.1245653.181143.1860679zm.176546.1718317c-.06226-.062212-.12412-.1225748-.18574-.18106l-.336709.3546621c.05839.055443.117273.1128477.176644.1722132zm-.0081.3540851.0097-.00988-.348984-.3425973-.0097.00988zm1.077078 1.5509555c-.121204-.6173687-.496303-1.2425035-1.069076-1.884975l-.365025.3254465c.545044.6113387.856958 1.1583286.954181 1.6537092zm-.70012 2.0693605c.59429-.6053919.851627-1.2974088.70012-2.0693605l-.479902.094181c.114682.5844167-.06529 1.1192488-.569202 1.6325531zm-.765359.7795906.765359-.7795906-.348984-.3426267-.76536.7795907zm-.0016-.3441916v-.0000489l-.345806.3458055v.0000489zm-2.390105 2.7804796 2.391735-2.436288-.348984-.3426266-2.391736 2.4362879zm-2.048229.726529c.769125.146323 1.453987-.1212349 2.048229-.726529l-.348985-.3426267c-.504012.513451-1.030667.6985555-1.607841.5887154zm-1.425916-.6897037c.481712.3608192.955843.6002569 1.425916.6897037l.0914-.4804403c-.373238-.0710097-.779148-.2673623-1.224083-.600697zm-.219289.515994.538833-.5388325-.345806-.3458055-.538832.5388325zm.742423 1.142855c-.094826-.483032-.344827-.9696344-.72066-1.4638169l-.389282.2960694c.348104.4576996.554335.8761285.63004 1.2619385zm-.700169 2.069356c.594339-.605392.851676-1.297394.700169-2.069356l-.479902.09419c.114682.584412-.06529 1.119234-.569251 1.632587zm-.765311.77959.765311-.77959-.348984-.342578-.765311.779542zm-.0016-.344191-.345806.345805zm-2.390122 2.780479 2.391735-2.436288-.348984-.342577-2.391736 2.436288zm-2.048193.726529c.769125.146372 1.453987-.121234 2.048229-.726529l-.348985-.342577c-.504061.513402-1.030667.698506-1.607841.588715zm-1.4084081-.676646c.4755987.353533.9439591.588324 1.4084081.676646l.0914-.480391c-.36869-.070178-.769367-.262667-1.2080913-.588764zm-.2654061.56084.5841673-.584167-.3458055-.345806-.5841673.584119zm.742423 1.142855c-.0948263-.483032-.3448274-.969634-.7206604-1.463817l-.3892818.296069c.348104.4577.5543354.876129.6300399 1.261939zm-.7001693 2.069356c.5943395-.605392.8516763-1.297394.7001693-2.069356l-.4799023.09419c.1146817.584411-.065288 1.119234-.5692513 1.632538zm-.7653104.77959.7653104-.77959-.3489843-.342627-.7653104.779591zm-.00157-.344191v-.000049l-.3458055.345805v.000049zm-2.3901169 2.780479 2.3917358-2.436288-.3489843-.342577-2.3917358 2.436288zm-2.0482336.726529c.7691348.146323 1.453992-.121235 2.0482336-.726529l-.3489843-.342577c-.5040612.513402-1.0306725.698506-1.6078464.588666zm-1.8793363-1.062309c.6416842.572039 1.2651024.945476 1.8793363 1.062309l.091403-.48044c-.4902457-.093261-1.0344627-.402388-1.6453124-.946894zm.327119-.000929.010084-.01027-.3489794-.342627-.010079.01027zm-.5356586-.191706c.06075.06411.1235138.128521.1882637.193271l.3458153-.345805c-.0617863-.061767-.1214696-.123045-.1790403-.183833zm-.178874-.174101c.063014.06299.1257048.12412.1880974.183295l.3365919-.354755c-.0591356-.056143-.1187603-.114242-.1788838-.174346zm.00823-.354217-.00982.01002.348999.342578.00982-.01003zm-1.07706286-1.550917c.12116152.617325.49624626 1.242474 1.06903826 1.884936l.3650348-.325461c-.5450287-.61131-.8569579-1.158309-.9541805-1.653665zm.70013506-2.069355c-.59430518.605391-.85163659 1.297394-.70013506 2.069355l.47989256-.09419c-.11469633-.584412.0652829-1.119235.5692268-1.632588zm.7652028-.779444-.7652028.779444.3489843.342577.7652077-.779444zm.00155.344142.000044.000049.3458104-.345805-.0000489-.000049zm2.3901369-2.780479-2.3917309 2.436288.3489843.342577 2.3917358-2.436288zm2.0482141-.726529c-.7691251-.146372-1.4539872.121235-2.0482141.726529l.3489892.342577c.5040417-.513402 1.030648-.698506 1.6078219-.588715zm1.5278333.767755c-.5172166-.404735-1.0250436-.672098-1.5278333-.767755l-.091403.480391c.3996496.07605.836418.295776 1.3178363.672489zm.2345961-.538539-.5581988.558199.3458055.345806.5581988-.558199zm-.8308917-1.256363c.1022598.521031.3851738 1.046562.812748 1.581873l.3820929-.305214c-.3993073-.499953-.6331699-.95423-.7149386-1.370849zm.7001204-2.069355c-.5942905.605392-.8516273 1.297394-.7001204 2.069355l.4799023-.09419c-.1146816-.584412.0652878-1.119234.5692513-1.632539zm.7652126-.779444-.7652126.779444.3490332.342626.7651637-.779493zm.00157.344142.0000489.000049.3458055-.345805-.0000489-.000049zm2.3901166-2.7804793-2.3917355 2.4362883.3489843.342577 2.3917362-2.4362875zm2.048229-.726529c-.769125-.146323-1.453987.1212349-2.048229.726529l.348985.3425778c.504061-.5134021 1.030667-.6985066 1.607841-.5886665zm1.527833.7678046c-.517216-.4047846-1.025043-.6721469-1.527833-.7678046l-.0914.4804403c.39965.075998.836418.295727 1.317836.6724892zm.193027-.49697-.516629.5166297.345805.3458055.51663-.5166298zm-.817931-1.2400778c.101183.5155539.379305 1.0355092.79925 1.5649031l.383169-.3038941c-.391825-.4938891-.621629-.9429814-.702517-1.3551996zm.700169-2.0693703c-.59434.6053577-.851627 1.2974088-.700169 2.0693703l.479902-.094191c-.114682-.5844113.065288-1.1192337.569251-1.6325771zm.765212-.7794586-.765212.7794586.348984.3426022.765213-.7794586zm.0015.3441623.000048.000044.345806-.3458055-.000049-.0000489zm2.39017-2.7804942-2.391735 2.4362879.348984.3426022 2.391736-2.436288zm2.04818-.72653143c-.769108-.14632986-1.45397.12123733-2.048163.72653143l.348985.3426021c.504012-.51341173 1.030618-.69851132 1.607792-.58870548zm-2.448025 6.71371993-.32908.3290801.345806.3458054.32908-.32908zm0-.7048153c.194641.194592.194641.5101744 0 .7048153l.345806.3458055c.385614-.385614.385614-1.0108123 0-1.3964263zm-.704815 0c.194641-.1946409.510174-.1946409.704815 0l.345806-.3458055c-.385614-.3856139-1.010813-.3856139-1.396427 0zm-.381342.3813104.381359-.3813104-.345806-.3458055-.381359.3813104zm-.567344-.6315071c.01633.1916577.07737.3828264.178502.5732615l.431927-.2293144c-.075754-.1427529-.113362-.2703943-.123143-.3854672zm.522107-1.2036926c-.374464.381457-.558248.7795906-.522107 1.2036926l.487286-.04152c-.02015-.2365034.07209-.5020073.383805-.8195458zm.522156-.5318441-.522156.5318441.348984.3426267.522156-.5318637zm1.109257-1.1299198-1.109257 1.1299247.348984.3425973 1.109258-1.1299247zm.522156-.5318636-.522156.5318587.348985.3426071.522156-.5318587zm1.191418-.5389891c-.423222-.0327466-.817199.1578059-1.191418.538994l.348985.3426022c.312012-.3178271.572968-.4119345.804727-.394006zm1.148968.5999391c-.385565-.3592886-.765946-.5703028-1.148968-.5999391l-.03771.4875902c.227212.017581.507583.1480004.85329.4701409zm.617423 1.1648133c-.032718-.3846603-.244818-.7661907-.605295-1.1526947l-.35764.3335548c.322918.3462408.455939.6291792.475696.8606405zm-.522108 1.203634c.374464-.3814326.558248-.779576.522108-1.203634l-.487239.041501c.0201.2365034-.07209.5019975-.383853.8195507zm-.522107.5317902.522107-.5317413-.348984-.3426365-.522107.5318001zm-1.109306 1.1299932 1.109306-1.1299932-.348984-.3425777-1.109306 1.1299931zm-.522058.5317903.522058-.5317414-.348984-.3426267-.522059.5317903zm-1.191467.5389792c.423271.032766.817247-.1577667 1.191467-.5389792l-.348985-.3425778c-.312012.3177831-.573017.4119247-.804727.3939767zm-.352065-.077612c.117322.042303.234743.068564.352065.077612l.03775-.4875803c-.06974-.00538-.144123-.021274-.223935-.050078zm-4.074108 2.1715668.282669-.2826695-.345805-.3458055-.28267.2826695zm0 .7048149c-.194592-.194641-.194592-.510174 0-.7048149l-.345806-.3458055c-.385614.3856139-.385614 1.0108124 0 1.3964264zm.704864 0c-.194641.194641-.510223.194641-.704864 0l-.345806.345806c.385614.385614 1.010861.385614 1.396475 0zm.268878-.268878-.268878.268878.345805.345806.268879-.268879zm.511299.514869c-.01247-.146372-.05106-.292597-.113703-.438529l-.449337.193076c.0445.103629.06827.198847.07575.286924zm-.522107 1.203644c.374464-.381457.558248-.779591.522107-1.203644l-.487287.04147c.02015.236504-.07208.502008-.383804.819546zm-.522107.53179.522107-.53179-.348984-.342627-.522107.531791zm-.34737.0016v.000049l.345805-.345805v-.000049zm-1.283994 1.660219 1.631364-1.661784-.348984-.342626-1.631414 1.661783zm-1.191467.538979c.423222.03272.817247-.157816 1.191467-.538979l-.349034-.342662c-.311963.317832-.572968.411925-.804727.394026zm-.326244-.06856c.108765.03702.217529.06015.326244.06856l.03771-.48758c-.0646-.005-.133168-.01902-.206378-.04397zm.184714-.6832-.278806.278806.345805.345806.278806-.278806zm0-.704815c.194641.194592.194641.510174 0 .704815l.345805.345806c.385614-.385614.385614-1.010862 0-1.396475zm-.704816 0c.194641-.194641.510175-.194641.704816 0l.345805-.345854c-.385614-.385614-1.010812-.385614-1.3964261 0zm-.3424796.34248.3424796-.34248-.3458051-.345854-.34248.342479zm-.5776629-.65058c.01697.198993.08216.397351.1901906.594975l.4290903-.234645c-.081671-.149404-.1218218-.282425-.131994-.40185zm.522156-1.203644c-.3744637.381457-.5582477.779591-.522156 1.203644l.4872869-.04152c-.0201-.236504.072086-.501959.3838536-.819546zm.5221565-.531888-.5221565.531888.3489845.342578.522156-.531839zm1.109257-1.129895-1.109257 1.129895.348984.342627 1.109257-1.129945zm.522156-.5318884-.522156.5318884.348984.342577.522108-.531839zm1.191418-.5390182c-.423222-.0327662-.817248.1578156-1.191467.5389792l.349033.3426264c.311964-.3178317.572969-.4119244.804728-.3940253zm.495307.1372267c-.164711-.0776118-.329911-.1244137-.495307-.1372267l-.03771.4875803c.09796.00758.205547.035945.32463.092039zm-7.3965502 7.3697509c-.3856139.385614-.3856139 1.010812 0 1.396426l.3458055-.345806c-.194592-.194641-.194592-.510174 0-.704815zm.2826695-.28267-.2826695.28267.3458055.345805.2826695-.282669zm-.2559186.302085c.097956.0076.2055467.03594.3246298.09204l.2083831-.442443c-.1647112-.077563-.3299114-.124365-.4953073-.137178zm-.8047276.394025c.3120123-.317832.572968-.411973.8047276-.394025l.037706-.487581c-.4232217-.03277-.8172473.157816-1.191442.53898zm-.5221805.531839.5221316-.531839-.348955-.342626-.5221511.531839zm-1.1092331 1.129945 1.109238-1.129945-.3489843-.342577-1.1092429 1.129895zm-.5221609.531839.522156-.531839-.3489794-.342627-.522156.531839zm-.3838241.819546c-.020144-.236504.072081-.502008.383829-.819546l-.3489843-.342578c-.3744784.381408-.5582478.779591-.5221316 1.203644zm.4747478.859647c-.3222725-.345805-.4550587-.628426-.4747478-.859647l-.4872869.04152c.032727.384293.2444259.765457.6042671 1.15156zm.8421545.458923c-.2274414-.017557-.5081106-.148231-.8542731-.471051l-.3335304.357689c.3859807.359939.7667042.571306 1.1500783.600991zm.8047325-.393977c-.3120123.317832-.5729925.411925-.8047325.393977l-.037725.487629c.4232462.03272.8172278-.157816 1.1914665-.539028zm.5220827-.53179-.5220778.53179.348955.342578.5221071-.531742zm1.1093064-1.129993-1.1093064 1.129993.3489843.342626 1.1093065-1.130042zm.5221072-.531791-.5221072.531791.3489844.342577.5221071-.531741zm.3838045-.819546c.020149.236504-.072086.502008-.3838045.819546l.3489843.342627c.3744637-.381457.5582477-.77964.5221071-1.203693zm-.075754-.286924c.044503.103629.068271.198847.075754.286924l.4872869-.04152c-.0124707-.146323-.0510565-.292548-.1137035-.43848zm.1286689.345268.2688783-.268879-.3458055-.345805-.2688783.268878zm-1.3964752 0c.385614.385614 1.0108613.385614 1.3964752 0l-.3458055-.345806c-.1946409.194641-.5102232.194641-.7048642 0z" fill="#4f4f4f"/></g></svg>