<svg fill="none" height="24" viewBox="0 0 24 24" width="24" xmlns="http://www.w3.org/2000/svg" xmlns:xlink="http://www.w3.org/1999/xlink"><mask id="a" fill="#fff"><path clip-rule="evenodd" d="m15.3114 21.2205v2.9013h18.3754v3.6268.2418 5.5609h-3.8685v-5.5609h-1.9342v5.5609h-3.8685v-5.5609h-8.7042v2.9013h-9.67126v-9.6712zm-3.7288 5.8027v-1.9342h-1.93423v1.9342z" fill="#fff" fill-rule="evenodd"/></mask><g transform="matrix(.63446683 0 0 .63446683 -.47582 -.159795)"><path clip-rule="evenodd" d="m15.3114 21.2205v2.9013h18.3754v3.6268.2418 5.5609h-3.8685v-5.5609h-1.9342v5.5609h-3.8685v-5.5609h-8.7042v2.9013h-9.67126v-9.6712zm-3.7288 5.8027v-1.9342h-1.93423v1.9342z" fill="#ffc107" fill-rule="evenodd"/><path d="m15.3114 24.1218h-1v1h1zm0-2.9013h1v-1h-1zm18.3754 2.9013h1v-1h-1zm0 9.4295v1h1v-1zm-3.8685 0h-1v1h1zm0-5.5609h1v-1h-1zm-1.9342 0v-1h-1v1zm0 5.5609v1h1v-1zm-3.8685 0h-1v1h1zm0-5.5609h1v-1h-1zm-8.7042 0v-1h-1v1zm0 2.9013v1h1v-1zm-9.67126 0h-1v1h1zm0-9.6712v-1h-1v1zm5.94246 3.8685h1v-1h-1zm0 1.9342v1h1v-1zm-1.93423-1.9342v-1h-1v1zm0 1.9342h-1v1h1zm6.66303-2.9014v-2.9013h-2v2.9013zm17.3754-1h-18.3754v2h18.3754zm1 4.6268v-3.6268h-2v3.6268zm0 .2418v-.2418h-2v.2418zm0 5.5609v-5.5609h-2v5.5609zm-4.8685 1h3.8685v-2h-3.8685zm-1-6.5609v5.5609h2v-5.5609zm-.9342 1h1.9342v-2h-1.9342zm1 4.5609v-5.5609h-2v5.5609zm-4.8685 1h3.8685v-2h-3.8685zm-1-6.5609v5.5609h2v-5.5609zm-7.7042 1h8.7042v-2h-8.7042zm1 1.9013v-2.9013h-2v2.9013zm-10.67126 1h9.67126v-2h-9.67126zm-1-10.6712v9.6712h2v-9.6712zm10.67126-1h-9.67126v2h9.67126zm-4.7288 4.8685v1.9342h2v-1.9342zm-.93423 1h1.93423v-2h-1.93423zm1.00003.9342v-1.9342h-2.00003v1.9342zm.9342-1h-1.93423v2h1.93423z" fill="#4f4f4f" mask="url(#a)"/><path d="m27.1921 16.4384-13.7767 20.9644 7.3492-17.4168-8.3859-.3465 12.2825-18.711765-5.3523 14.641165z" fill="#2196f3" stroke="#4f4f4f"/></g></svg>