<svg width="24" height="24" viewBox="0 0 24 24" xmlns="http://www.w3.org/2000/svg">
  <g transform="translate(2.669922,0.3378905)">
    <path
       style="fill:#1e94f3;fill-opacity:1;fill-rule:nonzero;stroke:none"
       d="m 17.066406,7.078125 c 0,0.847656 -0.164062,1.644531 -0.484375,2.390625 -0.3125,0.742188 -0.75,1.390625 -1.308593,1.949219 -0.550782,0.550781 -1.203126,0.988281 -1.953126,1.3125 -0.738281,0.320312 -1.53125,0.480469 -2.375,0.480469 -0.292968,0 -0.554687,0.05469 -0.78125,0.160156 -0.21875,0.101562 -0.402343,0.25 -0.554687,0.4375 -0.144531,0.183594 -0.253906,0.394531 -0.328125,0.640625 -0.078125,0.25 -0.113281,0.515625 -0.113281,0.796875 v 1.082031 H 5.097656 V 15.191406 C 5.105469,14.355469 5.253906,13.570312 5.539062,12.828125 5.832031,12.089844 6.234375,11.449219 6.746094,10.90625 7.269531,10.359375 7.886719,9.925781 8.597656,9.613281 9.308594,9.289062 10.09375,9.128906 10.945312,9.128906 c 0.285157,0 0.550782,-0.050781 0.796876,-0.15625 0.246093,-0.105468 0.460937,-0.246094 0.640624,-0.425781 0.191407,-0.191406 0.335938,-0.410156 0.441407,-0.65625 0.113281,-0.253906 0.171875,-0.527344 0.171875,-0.8125 0,-0.28125 -0.05859,-0.546875 -0.171875,-0.796875 C 12.71875,6.035156 12.574219,5.824219 12.382812,5.644531 12.203125,5.453125 11.988281,5.304688 11.742188,5.203125 11.496094,5.097656 11.230469,5.042969 10.945312,5.042969 H 1.597656 V 0.960938 h 9.347656 c 0.84375,0 1.636719,0.160156 2.375,0.484374 0.75,0.320313 1.402344,0.761719 1.953126,1.324219 0.558593,0.550781 0.996093,1.195313 1.308593,1.933594 0.320313,0.742187 0.484375,1.53125 0.484375,2.375 z M 9.578125,19.914062 c 0,0.34375 -0.066406,0.664063 -0.199219,0.96875 -0.121094,0.292969 -0.292968,0.550782 -0.511718,0.769532 -0.21875,0.21875 -0.472657,0.386718 -0.765626,0.511718 -0.296874,0.132813 -0.609374,0.199219 -0.941406,0.199219 -0.332031,0 -0.648437,-0.06641 -0.953125,-0.199219 -0.292969,-0.125 -0.554687,-0.292968 -0.78125,-0.511718 -0.21875,-0.21875 -0.394531,-0.476563 -0.527343,-0.769532 -0.125,-0.304687 -0.183594,-0.625 -0.183594,-0.96875 0,-0.332031 0.058594,-0.644531 0.183594,-0.9375 0.132812,-0.292968 0.308593,-0.550781 0.527343,-0.769531 0.226563,-0.21875 0.488281,-0.386719 0.78125,-0.511719 0.304688,-0.132812 0.621094,-0.199218 0.953125,-0.199218 0.332032,0 0.644532,0.06641 0.941406,0.199218 0.292969,0.125 0.546876,0.292969 0.765626,0.511719 0.21875,0.21875 0.390624,0.476563 0.511718,0.769531 0.132813,0.292969 0.199219,0.605469 0.199219,0.9375 z m 0,0"
       />
    <path
       style="fill:#4c4c4c;fill-opacity:1;fill-rule:nonzero;stroke:none"
       d="M 16.582031,9.46875 15.792969,9.132812 v 0.00391 z m -1.308593,1.949219 0.605468,0.609375 z m -1.953126,1.3125 -0.335937,-0.789063 h -0.0039 z m -3.15625,0.640625 -0.359374,-0.78125 -0.00391,0.0039 -0.00781,0.0039 z m -0.554687,0.4375 -0.671875,-0.535156 -0.00391,0.0078 z M 9.167969,16.328125 V 17.1875 h 0.855469 v -0.859375 z m -4.070313,0 H 4.238281 V 17.1875 h 0.859375 z m 0,-1.136719 -0.859375,-0.01172 v 0.01172 z m 0.441406,-2.363281 -0.796874,-0.316406 -0.00391,0.0078 z M 6.746094,10.90625 6.125,10.316406 Z m 1.851562,-1.292969 0.34375,0.785157 0.011719,-0.0039 z M 12.824219,7.890625 12.039062,7.542969 v 0.00781 l -0.0039,0.00781 z m 0,-1.609375 -0.789063,0.335938 0.0039,0.011718 0.0078,0.011719 z m -0.441407,-0.636719 -0.621093,0.589844 0.03125,0.03125 z M 1.597656,5.042969 H 0.738281 v 0.859375 h 0.859375 z m 0,-4.082031 V 0.105469 H 0.738281 v 0.855469 z m 11.722656,0.484374 -0.339843,0.785157 h 0.0039 z m 1.953126,1.324219 -0.613282,0.597657 0.0039,0.00781 0.0078,0.00391 z m 1.308593,1.933594 -0.789062,0.335937 0.0039,0.00781 z M 9.378906,20.882812 8.59375,20.539062 v 0.0078 l -0.00391,0.0039 z M 8.867188,21.652344 8.261719,21.046875 Z m -0.765626,0.511718 -0.332031,-0.792968 -0.011719,0.0078 -0.011718,0.0039 z m -1.894531,0 0.34375,-0.785156 -0.00781,-0.0039 -0.00391,-0.0039 z m -0.78125,-0.511718 -0.605469,0.605468 0.00391,0.0078 0.00781,0.0039 z m -0.527343,-0.769532 -0.792969,0.324219 0.00391,0.01172 0.00781,0.01563 z m 0,-1.90625 -0.78125,-0.351562 -0.00391,0.0078 -0.00391,0.01172 z m 0.527343,-0.769531 -0.59375,-0.617187 -0.00781,0.0039 -0.00391,0.0078 z m 0.78125,-0.511719 0.332031,0.789063 h 0.00391 l 0.00781,-0.0039 z m 1.894531,0 -0.355468,0.78125 0.023437,0.0078 z m 1.277344,1.28125 -0.789062,0.332032 0.00391,0.0078 0.00391,0.01172 z M 16.207031,7.078125 c 0,0.734375 -0.140625,1.414063 -0.414062,2.054687 l 1.574219,0.675782 c 0.371093,-0.859375 0.554687,-1.773438 0.554687,-2.730469 z m -0.414062,2.058594 c -0.273438,0.640625 -0.648438,1.195312 -1.128907,1.675781 l 1.214844,1.214844 c 0.636719,-0.640625 1.136719,-1.382813 1.492188,-2.222656 z M 14.664062,10.8125 c -0.46875,0.472656 -1.027343,0.847656 -1.679687,1.128906 l 0.675781,1.574219 c 0.84375,-0.363281 1.585938,-0.859375 2.21875,-1.488281 z m -1.683593,1.128906 c -0.628907,0.273438 -1.304688,0.414063 -2.035157,0.414063 v 1.714843 c 0.957032,0 1.867188,-0.183593 2.71875,-0.554687 z m -2.035157,0.414063 c -0.394531,0 -0.78125,0.07031 -1.140624,0.234375 l 0.714843,1.558594 c 0.09766,-0.04297 0.234375,-0.07813 0.425781,-0.07813 z M 9.792969,12.597656 C 9.457031,12.757812 9.171875,12.984375 8.9375,13.273438 l 1.339844,1.074218 c 0.07031,-0.08984 0.15625,-0.15625 0.253906,-0.203125 z M 8.933594,13.28125 C 8.71875,13.550781 8.566406,13.863281 8.460938,14.199219 l 1.640624,0.503906 c 0.04688,-0.15625 0.109376,-0.273437 0.179688,-0.363281 z m -0.472656,0.917969 c -0.101563,0.335937 -0.152344,0.6875 -0.152344,1.046875 h 1.714844 c 0,-0.207032 0.02734,-0.386719 0.07812,-0.542969 z m -0.152344,1.046875 v 1.082031 h 1.714844 v -1.082031 z m 0.859375,0.226562 H 5.097656 V 17.1875 H 9.167969 Z M 5.953125,16.328125 V 15.191406 H 4.238281 v 1.136719 z m 0,-1.128906 c 0.00781,-0.738281 0.140625,-1.421875 0.386719,-2.0625 L 4.738281,12.519531 C 4.414062,13.359375 4.25,14.25 4.238281,15.179688 Z M 6.335938,13.144531 C 6.589844,12.5 6.9375,11.953125 7.371094,11.496094 L 6.125,10.316406 c -0.589844,0.625 -1.050781,1.363282 -1.382812,2.195313 z M 7.371094,11.496094 C 7.8125,11.03125 8.332031,10.664062 8.941406,10.398438 L 8.253906,8.828125 C 7.4375,9.1875 6.726562,9.683594 6.125,10.316406 Z m 1.582031,-1.101563 c 0.589844,-0.269531 1.25,-0.410156 1.992187,-0.410156 V 8.273438 c -0.964843,0 -1.867187,0.179687 -2.703124,0.558593 z m 1.992187,-0.410156 c 0.390626,0 0.773438,-0.070313 1.132813,-0.222656 L 11.410156,8.183594 C 11.273438,8.238281 11.121094,8.273438 10.945312,8.273438 Z M 12.078125,9.761719 C 12.417969,9.617188 12.726562,9.414062 12.988281,9.152344 L 11.777344,7.9375 c -0.09766,0.101562 -0.21875,0.183594 -0.367188,0.246094 z m 0.910156,-0.609375 c 0.269531,-0.269532 0.476563,-0.578125 0.625,-0.925782 L 12.035156,7.558594 c -0.0625,0.144531 -0.148437,0.269531 -0.257812,0.378906 z m 0.617188,-0.914063 c 0.164062,-0.367187 0.246093,-0.753906 0.246093,-1.160156 h -1.714843 c 0,0.167969 -0.03125,0.320313 -0.09766,0.464844 z m 0.246093,-1.160156 c 0,-0.402344 -0.08203,-0.789063 -0.25,-1.15625 l -1.554687,0.71875 c 0.05859,0.128906 0.08984,0.273437 0.08984,0.4375 z M 13.613281,5.949219 C 13.464844,5.597656 13.25,5.285156 12.972656,5.019531 l -1.179687,1.246094 c 0.101562,0.09375 0.183593,0.210937 0.242187,0.351563 z M 13.003906,5.050781 C 12.742188,4.773438 12.429688,4.5625 12.078125,4.410156 l -0.667969,1.582032 c 0.140625,0.058593 0.253906,0.136718 0.351563,0.242187 z M 12.078125,4.410156 C 11.71875,4.261719 11.335938,4.1875 10.945312,4.1875 v 1.714844 c 0.175782,0 0.328126,0.03125 0.464844,0.089844 z M 10.945312,4.1875 H 1.597656 v 1.714844 h 9.347656 z M 2.453125,5.042969 V 0.960938 H 0.738281 V 5.042969 Z M 1.597656,1.816406 h 9.347656 V 0.105469 H 1.597656 Z m 9.347656,0 c 0.730469,0 1.40625,0.140625 2.035157,0.414063 L 13.664062,0.660156 C 12.8125,0.289062 11.902344,0.105469 10.945312,0.105469 Z m 2.039063,0.414063 c 0.648437,0.28125 1.207031,0.660156 1.675781,1.136719 L 15.882812,2.167969 C 15.25,1.523438 14.507812,1.023438 13.660156,0.65625 Z m 1.6875,1.148437 c 0.476563,0.46875 0.847656,1.019532 1.121094,1.660156 l 1.578125,-0.667968 c -0.355469,-0.84375 -0.855469,-1.582032 -1.5,-2.214844 z m 1.125,1.667969 c 0.269531,0.625 0.410156,1.300781 0.410156,2.03125 h 1.714844 c 0,-0.953125 -0.183594,-1.863281 -0.554687,-2.71875 z M 8.722656,19.914062 c 0,0.226563 -0.042968,0.433594 -0.128906,0.625 l 1.570312,0.6875 C 10.347656,20.8125 10.4375,20.371094 10.4375,19.914062 Z m -0.132812,0.636719 c -0.082032,0.195313 -0.191406,0.359375 -0.328125,0.496094 l 1.210937,1.210937 c 0.300782,-0.300781 0.535156,-0.648437 0.699219,-1.042968 z M 8.261719,21.046875 C 8.125,21.183594 7.964844,21.292969 7.769531,21.371094 l 0.660157,1.582031 C 8.824219,22.789062 9.175781,22.558594 9.472656,22.257812 Z M 7.746094,21.382812 C 7.566406,21.464844 7.375,21.503906 7.160156,21.503906 v 1.714844 c 0.449219,0 0.882813,-0.08984 1.292969,-0.273438 z m -0.585938,0.121094 c -0.214844,0 -0.414062,-0.03906 -0.609375,-0.125 l -0.6875,1.570313 c 0.414063,0.179687 0.847657,0.269531 1.296875,0.269531 z M 6.539062,21.371094 C 6.339844,21.289062 6.167969,21.175781 6.015625,21.03125 L 4.832031,22.269531 C 5.136719,22.5625 5.484375,22.789062 5.875,22.953125 Z M 6.03125,21.046875 C 5.890625,20.902344 5.769531,20.734375 5.679688,20.53125 l -1.5625,0.703125 c 0.171874,0.386719 0.40625,0.726563 0.703124,1.023437 z M 5.691406,20.558594 C 5.613281,20.363281 5.570312,20.152344 5.570312,19.914062 H 3.855469 c 0,0.449219 0.082031,0.882813 0.25,1.292969 z M 5.570312,19.914062 c 0,-0.222656 0.039063,-0.421874 0.117188,-0.605468 L 4.109375,18.644531 C 3.9375,19.046875 3.855469,19.472656 3.855469,19.914062 Z M 5.679688,19.328125 C 5.769531,19.125 5.890625,18.957031 6.03125,18.8125 L 4.820312,17.601562 C 4.523438,17.894531 4.289062,18.238281 4.117188,18.625 Z m 0.335937,-0.5 c 0.152344,-0.144531 0.324219,-0.257813 0.523437,-0.34375 L 5.875,16.90625 c -0.390625,0.164062 -0.738281,0.390625 -1.042969,0.683594 z m 0.535156,-0.347656 c 0.195313,-0.08594 0.394531,-0.128907 0.609375,-0.128907 v -1.710937 c -0.449218,0 -0.882812,0.08984 -1.296875,0.269531 z m 0.609375,-0.128907 c 0.214844,0 0.40625,0.04297 0.585938,0.125 l 0.707031,-1.5625 C 8.042969,16.730469 7.609375,16.640625 7.160156,16.640625 Z m 0.609375,0.132813 C 7.964844,18.566406 8.125,18.675781 8.261719,18.8125 L 9.472656,17.601562 C 9.175781,17.300781 8.824219,17.070312 8.429688,16.90625 Z M 8.261719,18.8125 c 0.136719,0.136719 0.246093,0.300781 0.328125,0.496094 l 1.582031,-0.664063 C 10.007812,18.25 9.773438,17.902344 9.472656,17.601562 Z m 0.335937,0.515625 c 0.082032,0.179687 0.125,0.371094 0.125,0.585937 H 10.4375 c 0,-0.449218 -0.08984,-0.882812 -0.277344,-1.289062 z m 0,0"
       />
  </g>
</svg>
