<svg fill="none" height="24" viewBox="0 0 24 24" width="24" xmlns="http://www.w3.org/2000/svg"><g stroke-width=".730522"><path d="m8.3415583 7.3602979c1.1507181 4.6029161.2126549 6.1611921-1.9078164 9.8680791.5789898-.952454 2.0870134-2.56289 4.2821581-2.56289 2.922088 0 3.287349 1.278414 3.83524 2.191566.547892.913153-.777129-3.275587 4.565762-3.469906 5.022192-.182703 4.565762 3.469979 3.65261 7.122589-.913153 3.652609-16.9390716 3.789509-22.09846794-.730522-.2738712-7.168319 2.92209264-15.5236196 7.12262284-17.8978157 4.2005011-2.37419765 5.4326721-.3526083 5.7072021 1.0501398.410992 2.1001482-.776107 3.9720886-5.1593107 4.4287598z" fill="#2196f3"/><path d="m8.3390472 7.3603939c1.1688351 4.6753111.1826305 6.2094801-2.0087891 10.0446471.487017-.913152 2.0454613-2.739457 4.3831309-2.739457 2.922088 0 3.287349 1.278413 3.83524 2.191566.547892.913152-.777129-3.275588 4.565762-3.469906 5.022192-.182704 4.565762 3.469979 3.65261 7.122588-.913153 3.65261-16.9390717 3.789509-22.09846803-.730522-.2738712-7.168319 2.92209273-15.5236196 7.12262283-17.8978157 4.2005012-2.37419766 5.4326722-.3526083 5.7072022 1.0501398.410992 2.1001482-.776106 3.9720886-5.1593108 4.4287598z" stroke="#4f4f4f"/></g></svg>