<?xml version="1.0" encoding="UTF-8" standalone="no"?>
<svg
   xmlns:dc="http://purl.org/dc/elements/1.1/"
   xmlns:cc="http://creativecommons.org/ns#"
   xmlns:rdf="http://www.w3.org/1999/02/22-rdf-syntax-ns#"
   xmlns:svg="http://www.w3.org/2000/svg"
   xmlns="http://www.w3.org/2000/svg"
   id="svg4"
   version="1.1"
   viewBox="0 0 24 24"
   height="24"
   width="24">
  <metadata
     id="metadata10">
    <rdf:RDF>
      <cc:Work
         rdf:about="">
        <dc:format>image/svg+xml</dc:format>
        <dc:type
           rdf:resource="http://purl.org/dc/dcmitype/StillImage" />
        <dc:title></dc:title>
      </cc:Work>
    </rdf:RDF>
  </metadata>
  <defs
     id="defs8" />
  <g
     id="g2" />
  <g
     transform="matrix(1.0747265,0,0,1.0747265,-0.76915016,0.07552514)"
     id="g867">
    <g
       transform="matrix(1,0,0,-1,0,22.190715)"
       id="g2031">
      <g
         transform="translate(-0.09462358,-0.0946226)"
         id="g2035">
        <path
           id="path830"
           d="m 7.4046747,19.28092 c -0.06539,-0.06796 -0.118892,-0.163317 -0.118892,-0.211903 0,-0.04858 0.3683567,-0.464769 0.8185711,-0.92485 0.4502145,-0.460082 0.7939321,-0.87638 0.7638176,-0.925106 C 8.8380578,17.170336 8.2663942,17.105045 7.5978087,17.073974 6.929224,17.042902 6.1253927,16.94735 5.8115168,16.861635 3.8424484,16.323915 2.155282,14.622182 1.6186261,12.632543 c -0.2206828,-0.818172 -0.2206828,-2.225471 0,-3.0436442 C 2.1547723,7.6011491 3.826928,5.9127836 5.8115168,5.3553595 6.2120919,5.2428476 6.9137911,5.1802514 8.1655863,5.1453613 9.146448,5.1180221 9.948972,5.119367 9.948972,5.1483708 c 0,0.028976 -0.133834,0.2679748 -0.2974074,0.53111 -0.2617207,0.4210216 -0.2922358,0.5407883 -0.2543071,0.998154 0.030772,0.3710953 0.1158271,0.615078 0.2974065,0.8531415 0.139869,0.1833776 0.254308,0.3542705 0.254308,0.3797626 0,0.025496 -0.7811238,0.060632 -1.7358295,0.078096 C 6.5497623,8.0190493 6.4574655,8.0308803 6.0017447,8.2720557 5.396169,8.5925346 4.8626279,9.1260926 4.5422403,9.7316062 4.3211729,10.149413 4.2906088,10.316928 4.2906088,11.110758 c 0,0.793831 0.030565,0.961346 0.2516315,1.379151 0.3217052,0.608003 0.8563354,1.14132 1.4595044,1.455919 0.4161716,0.217065 0.616248,0.252804 1.6019042,0.286143 0.7402355,0.02504 1.1621477,0.0023 1.2308098,-0.06638 0.075895,-0.0759 -0.121674,-0.335581 -0.7221006,-0.949168 -0.4546167,-0.46458 -0.8265754,-0.884444 -0.8265754,-0.93303 0,-0.253293 0.2707237,-0.316613 1.3536715,-0.316613 0.7543942,0 1.2262988,0.04383 1.4314648,0.132949 0.344766,0.149761 3.374072,3.16517 3.401869,3.386265 0.0099,0.07847 0.01286,0.225254 0.0067,0.326187 -0.01334,0.217115 -2.878793,3.140198 -3.292698,3.358913 -0.3872849,0.204648 -2.6065553,0.292283 -2.7820819,0.10986 z"
           style="fill:#2196f3;fill-opacity:1;stroke:#4f4f4f;stroke-width:0.43753478;stroke-miterlimit:4;stroke-dasharray:none;stroke-opacity:1" />
        <path
           id="path830-2"
           d="m 16.547177,3.0990427 c 0.06539,0.067958 0.118892,0.1633166 0.118892,0.2119026 0,0.048584 -0.368357,0.464769 -0.818571,0.9248504 -0.450215,0.4600817 -0.793932,0.8763794 -0.763818,0.9251056 0.03011,0.048725 0.601777,0.1140158 1.270363,0.1450867 0.668584,0.031073 1.472416,0.1266245 1.786292,0.212339 1.969068,0.5377205 3.656234,2.2394537 4.19289,4.2290909 0.220683,0.8181721 0.220683,2.2254711 0,3.0436451 -0.536146,1.98775 -2.208301,3.676115 -4.19289,4.233539 -0.400575,0.112512 -1.102275,0.175108 -2.35407,0.209998 -0.980861,0.02734 -1.783386,0.02599 -1.783386,-0.003 0,-0.02898 0.133835,-0.267975 0.297408,-0.53111 0.261721,-0.421022 0.292236,-0.540788 0.254307,-0.998154 -0.03077,-0.371095 -0.115827,-0.615078 -0.297407,-0.853142 -0.139869,-0.183377 -0.254308,-0.35427 -0.254308,-0.379762 0,-0.0255 0.781124,-0.06063 1.73583,-0.0781 1.66338,-0.03041 1.755677,-0.04225 2.211398,-0.283421 0.605575,-0.320479 1.139117,-0.854037 1.459504,-1.459551 0.221068,-0.417807 0.251632,-0.585321 0.251632,-1.379152 0,-0.793831 -0.03056,-0.961346 -0.251632,-1.3791511 C 19.087906,9.2820499 18.553276,8.7487326 17.950107,8.4341335 17.533935,8.2170687 17.333859,8.1813293 16.348203,8.14799 15.607967,8.122955 15.186055,8.14573 15.117393,8.214368 c -0.07589,0.075895 0.121674,0.3355807 0.7221,0.9491672 0.454617,0.4645809 0.826576,0.8844448 0.826576,0.9330308 0,0.253292 -0.270724,0.316612 -1.353672,0.316612 -0.754394,0 -1.226298,-0.04383 -1.431465,-0.132949 -0.344766,-0.149761 -3.374071,-3.1651684 -3.401869,-3.3862641 -0.0099,-0.078472 -0.01287,-0.2252534 -0.0067,-0.3261865 0.01333,-0.2171147 2.878793,-3.1401981 3.292698,-3.3589125 0.387285,-0.204648 2.606556,-0.2922829 2.782082,-0.1098599 z"
           style="fill:#2196f3;fill-opacity:1;stroke:#4f4f4f;stroke-width:0.43753478;stroke-miterlimit:4;stroke-dasharray:none;stroke-opacity:1" />
      </g>
    </g>
  </g>
</svg>
