<svg fill="none" height="24" viewBox="0 0 24 24" width="24" xmlns="http://www.w3.org/2000/svg" xmlns:xlink="http://www.w3.org/1999/xlink"><mask id="a" fill="#000" height="35.3553" maskUnits="userSpaceOnUse" width="35.3553" x=".321195" y="-.095456"><path d="m.321195-.095456h35.3553v35.3553h-35.3553z" fill="#fff"/><path clip-rule="evenodd" d="m27.5448 10.8647 1.7678-4.59619-4.5962 1.76776-15.01417 15.01413-2.12132-2.1213-.70711.7071 2.82843 2.8284-4.72187 4.7219 1.41421 1.4142 4.72183-4.7219 2.8285 2.8285.7071-.7071-2.1213-2.1214z" fill="#000" fill-rule="evenodd"/></mask><path clip-rule="evenodd" d="m20.859499 5.5503461 1.506188-3.9160115-3.91602 1.5061537-12.7922613 12.7922267-1.8073912-1.807374-.6024666.602458 2.4098578 2.409832-4.0230924 4.023118 1.2049246 1.204916 4.0230584-4.023118 2.4099174 2.409918.6024581-.602458-1.8073742-1.80746z" fill="#2196f3" fill-rule="evenodd" stroke-width=".852013"/><path d="m29.3126 6.26851.9333.35897.8077-2.10002-2.1.8077zm-1.7678 4.59619.7071.7071.1501-.1501.0762-.198zm-2.8284-2.82843-.359-.93334-.1981.07618-.15.15006zm-15.01417 15.01413-.70711.7071.70711.7071.70707-.7071zm-2.12132-2.1213.7071-.7071-.7071-.7071-.70711.7071zm-.70711.7071-.70711-.7071-.7071.7071.7071.7071zm2.82843 2.8284.70707.7071.7071-.7071-.7071-.7071zm-4.72187 4.7219-.70711-.7071-.70711.7071.70711.7071zm1.41421 1.4142-.70711.7071.70711.7071.70711-.7071zm4.72183-4.7219.7071-.7071-.7071-.7071-.7071.7071zm2.8285 2.8285-.7071.7071.7071.7071.7071-.7071zm.7071-.7071.7071.7071.7071-.7071-.7071-.7071zm-2.1213-2.1214-.7072-.7071-.7071.7071.7071.7072zm15.8485-19.96927-1.7677 4.59617 1.8667.718 1.7677-4.59622zm-3.3038 3.06009 4.5962-1.76777-.718-1.86669-4.5962 1.76777zm-14.6661 14.78788 15.0142-15.01412-1.4142-1.41421-15.01418 15.01413zm-3.5355-2.1213 2.12132 2.1213 1.41418-1.4142-2.12129-2.1213zm.70711.7071.7071-.7071-1.41421-1.4142-.70711.7071zm2.82839 1.4142-2.82839-2.8284-1.41422 1.4142 2.82843 2.8284zm-4.72184 6.1361 4.72184-4.7219-1.41418-1.4142-4.72187 4.7219zm1.41422 0-1.41422-1.4142-1.41421 1.4142 1.41421 1.4142zm3.30762-4.7219-4.72184 4.7219 1.41422 1.4142 4.72182-4.7218zm4.2427 2.8285-2.8285-2.8285-1.4142 1.4143 2.8285 2.8284zm-.7071-.7071-.7071.7071 1.4142 1.4142.7071-.7071zm-2.1214-.7071 2.1214 2.1213 1.4142-1.4142-2.1213-2.1214zm15.0142-16.4284-15.0142 15.0141 1.4143 1.4143 15.0141-15.0142z" fill="#4f4f4f" mask="url(#a)" transform="matrix(.85201253 0 0 .85201253 -2.748226 -3.567274)"/></svg>