<svg aria-hidden="true" style="position: absolute; width: 0; height: 0; overflow: hidden;" version="1.1" xmlns="http://www.w3.org/2000/svg" xmlns:xlink="http://www.w3.org/1999/xlink">
<defs>
<symbol id="icon-repeat" viewBox="0 0 28 28">
<path d="M24 4v7c0 0.547-0.453 1-1 1h-7c-0.406 0-0.766-0.25-0.922-0.625-0.156-0.359-0.078-0.797 0.219-1.078l2.156-2.156c-1.469-1.359-3.406-2.141-5.453-2.141-4.406 0-8 3.594-8 8s3.594 8 8 8c2.484 0 4.781-1.125 6.312-3.109 0.078-0.109 0.219-0.172 0.359-0.187 0.141 0 0.281 0.047 0.391 0.141l2.141 2.156c0.187 0.172 0.187 0.469 0.031 0.672-2.281 2.75-5.656 4.328-9.234 4.328-6.609 0-12-5.391-12-12s5.391-12 12-12c3.078 0 6.062 1.234 8.266 3.313l2.031-2.016c0.281-0.297 0.719-0.375 1.094-0.219 0.359 0.156 0.609 0.516 0.609 0.922z"></path>
</symbol>
<symbol id="icon-cloud-download" viewBox="0 0 32 32">
<path d="M27.844 11.252c-0.101-4.022-3.389-7.252-7.433-7.252-2.369 0-4.477 1.109-5.839 2.835-0.764-0.987-1.959-1.624-3.303-1.624-2.307 0-4.176 1.871-4.176 4.179 0 0.201 0.015 0.399 0.043 0.592-0.351-0.063-0.711-0.098-1.080-0.098-3.344-0-6.054 2.712-6.054 6.058s2.71 6.058 6.054 6.058h2.868l7.078 7.328 7.078-7.328 3.484-0c3.004-0.006 5.438-2.444 5.438-5.451 0-2.565-1.771-4.716-4.156-5.296zM16 26l-6-6h4v-6h4v6h4l-6 6z"></path>
</symbol>
<symbol id="icon-cloud-upload" viewBox="0 0 32 32">
<path d="M27.883 12.078c0.076-0.347 0.117-0.708 0.117-1.078 0-2.761-2.239-5-5-5-0.444 0-0.875 0.058-1.285 0.167-0.775-2.417-3.040-4.167-5.715-4.167-2.73 0-5.033 1.823-5.76 4.318-0.711-0.207-1.462-0.318-2.24-0.318-4.418 0-8 3.582-8 8s3.582 8 8 8h4v6h8v-6h7c2.761 0 5-2.239 5-5 0-2.46-1.777-4.505-4.117-4.922zM18 20v6h-4v-6h-5l7-7 7 7h-5z"></path>
</symbol>
<symbol id="icon-cloud-check" viewBox="0 0 32 32">
<path d="M27.883 16.078c0.076-0.347 0.117-0.708 0.117-1.078 0-2.761-2.239-5-5-5-0.445 0-0.875 0.058-1.285 0.167-0.775-2.417-3.040-4.167-5.715-4.167-2.73 0-5.033 1.823-5.76 4.318-0.711-0.207-1.462-0.318-2.24-0.318-4.418 0-8 3.582-8 8s3.582 8 8 8h19c2.761 0 5-2.239 5-5 0-2.46-1.777-4.505-4.117-4.922zM13 24l-5-5 2-2 3 3 7-7 2 2-9 9z"></path>
</symbol>
</defs>
</svg>
