<?xml version="1.0" encoding="UTF-8" standalone="no"?>
<svg
   xmlns:dc="http://purl.org/dc/elements/1.1/"
   xmlns:cc="http://creativecommons.org/ns#"
   xmlns:rdf="http://www.w3.org/1999/02/22-rdf-syntax-ns#"
   xmlns:svg="http://www.w3.org/2000/svg"
   xmlns="http://www.w3.org/2000/svg"
   id="svg90"
   style="fill-rule:evenodd;clip-rule:evenodd;stroke-linecap:round;stroke-linejoin:round;stroke-miterlimit:1.5;"
   xml:space="preserve"
   version="1.1"
   viewBox="0 0 220 220"
   height="100%"
   width="100%"><metadata
   id="metadata96"><rdf:RDF><cc:Work
       rdf:about=""><dc:format>image/svg+xml</dc:format><dc:type
         rdf:resource="http://purl.org/dc/dcmitype/StillImage" /><dc:title></dc:title></cc:Work></rdf:RDF></metadata><defs
   id="defs94" />
    <g
   id="g88"
   transform="matrix(1,0,0,1,-480,0)">
        <g
   transform="matrix(1,0,0,1,451.944,-21.3469)"
   id="Dis">
            <rect
   id="rect2"
   style="fill:none;"
   height="220"
   width="220"
   y="21.347"
   x="28.056" />
            <g
   id="g85"
   transform="matrix(1,0,0,1,-515.24,-551.389)">
                <path
   id="path4"
   transform="translate(543.296,572.7359)"
   d="M 85.546875 72.220703 C 54.420875 72.220703 29.150391 97.491185 29.150391 128.61719 C 29.150391 159.74319 54.420875 185.01367 85.546875 185.01367 C 88.899875 185.01367 92.183953 184.71825 95.376953 184.15625 C 95.537953 184.12825 95.702422 184.13945 95.857422 184.18945 C 97.969422 184.87045 113.59794 189.91052 118.46094 191.47852 C 118.84094 191.60152 119.25538 191.56681 119.60938 191.38281 C 119.96438 191.19881 120.22966 190.88005 120.34766 190.49805 C 121.94266 185.33405 127.29755 167.99373 127.93555 165.92773 C 127.97655 165.79473 128.04572 165.67141 128.13672 165.56641 C 133.09572 159.85641 136.92725 153.14058 139.28125 145.76758 C 142.89125 147.78358 147.29441 149.73291 151.94141 150.62891 C 151.94141 150.62891 160.9105 152.59003 166.9375 150.20703 C 166.9375 150.20703 186.15183 144.09777 189.92383 125.25977 C 191.14383 119.16577 191.70213 110.78264 188.07812 103.30664 C 188.07812 103.30664 179.41106 84.613641 159.78906 82.931641 C 159.78906 82.931641 143.31908 81.029063 125.20508 88.539062 C 115.01408 78.454062 101.00288 72.220703 85.546875 72.220703 z M 85.546875 92.345703 A 36.271 36.271 0 0 1 121.81641 128.61719 A 36.271 36.271 0 0 1 85.546875 164.88867 A 36.271 36.271 0 0 1 49.275391 128.61719 A 36.271 36.271 0 0 1 85.546875 92.345703 z M 155.07617 99.738281 A 16.561001 16.561001 0 0 1 171.63672 116.29883 A 16.561001 16.561001 0 0 1 155.07617 132.85938 A 16.561001 16.561001 0 0 1 138.51562 116.29883 A 16.561001 16.561001 0 0 1 155.07617 99.738281 z "
   style="fill:#000006;stroke:black;stroke-width:2px;fill-opacity:1" />
                <g
   id="g8"
   transform="matrix(0.847749,0,0,0.855324,96.5566,95.7828)">
                    
                </g>
                <path
   id="path10"
   style="fill:none;"
   d="M682.578,718.504C680.224,725.877 676.392,732.593 671.433,738.303C671.342,738.408 671.273,738.531 671.232,738.664C670.594,740.73 665.238,758.069 663.643,763.233C663.525,763.615 663.26,763.934 662.905,764.118C662.551,764.302 662.137,764.337 661.757,764.214C656.894,762.646 641.265,757.607 639.153,756.926C638.998,756.876 638.833,756.865 638.672,756.893C635.479,757.455 632.195,757.749 628.842,757.749C597.716,757.749 572.446,732.479 572.446,701.353C572.446,670.227 597.716,644.957 628.842,644.957C644.298,644.957 658.311,651.189 668.502,661.274C686.616,653.764 703.086,655.668 703.086,655.668C722.708,657.35 731.375,676.043 731.375,676.043C734.999,683.519 734.44,691.901 733.22,697.995C729.448,716.833 710.234,722.943 710.234,722.943C704.207,725.326 695.237,723.364 695.237,723.364C690.59,722.468 686.188,720.52 682.578,718.504Z" />
                <clipPath
   id="_clip1">
                    <path
   id="path12"
   d="M682.578,718.504C680.224,725.877 676.392,732.593 671.433,738.303C671.342,738.408 671.273,738.531 671.232,738.664C670.594,740.73 665.238,758.069 663.643,763.233C663.525,763.615 663.26,763.934 662.905,764.118C662.551,764.302 662.137,764.337 661.757,764.214C656.894,762.646 641.265,757.607 639.153,756.926C638.998,756.876 638.833,756.865 638.672,756.893C635.479,757.455 632.195,757.749 628.842,757.749C597.716,757.749 572.446,732.479 572.446,701.353C572.446,670.227 597.716,644.957 628.842,644.957C644.298,644.957 658.311,651.189 668.502,661.274C686.616,653.764 703.086,655.668 703.086,655.668C722.708,657.35 731.375,676.043 731.375,676.043C734.999,683.519 734.44,691.901 733.22,697.995C729.448,716.833 710.234,722.943 710.234,722.943C704.207,725.326 695.237,723.364 695.237,723.364C690.59,722.468 686.188,720.52 682.578,718.504Z" />
                </clipPath>
                <g
   id="g19"
   clip-path="url(#_clip1)">
                    <g
   id="g17"
   transform="matrix(0.966967,0,0,1.05127,7.02015,-6.69673)">
                        
                    </g>
                </g>
                <path
   id="path21"
   style="fill:none;stroke:black;stroke-width:2px;"
   d="M682.578,718.504C680.224,725.877 676.392,732.593 671.433,738.303C671.342,738.408 671.273,738.531 671.232,738.664C670.594,740.73 665.238,758.069 663.643,763.233C663.525,763.615 663.26,763.934 662.905,764.118C662.551,764.302 662.137,764.337 661.757,764.214C656.894,762.646 641.265,757.607 639.153,756.926C638.998,756.876 638.833,756.865 638.672,756.893C635.479,757.455 632.195,757.749 628.842,757.749C597.716,757.749 572.446,732.479 572.446,701.353C572.446,670.227 597.716,644.957 628.842,644.957C644.298,644.957 658.311,651.189 668.502,661.274C686.616,653.764 703.086,655.668 703.086,655.668C722.708,657.35 731.375,676.043 731.375,676.043C734.999,683.519 734.44,691.901 733.22,697.995C729.448,716.833 710.234,722.943 710.234,722.943C704.207,725.326 695.237,723.364 695.237,723.364C690.59,722.468 686.188,720.52 682.578,718.504Z" />
                
                <g
   id="g43">
                    <g
   id="g27"
   transform="matrix(1.0966,0,0,1.13283,-60.7485,-91.8469)">
                        
                    </g>
                    
                    
                    <g
   id="g35"
   transform="matrix(0.739623,0,0,0.739623,163.736,182.616)">
                        
                    </g>
                    <g
   id="g39"
   transform="matrix(0.34061,0,0,0.34061,413.456,452.878)">
                        
                    </g>
                    
                </g>
                <g
   id="g59">
                    <g
   id="g47"
   transform="matrix(1.25854,0,0,1.25906,-180.558,-177.201)">
                        
                    </g>
                    
                    
                    <g
   id="g55"
   transform="matrix(0.464463,0,0,0.464463,374.004,369.004)">
                        
                    </g>
                    
                </g>
                <path
   id="path61"
   transform="translate(543.296,572.7359)"
   d="M 134.58398 28.451172 C 131.53723 28.426592 126.47781 28.798359 121.16406 30.958984 L 86.03125 46.65625 L 101.57422 70.265625 C 101.57422 70.265625 115.02844 71.728453 125.77344 83.314453 C 125.77344 83.314453 134.77564 77.709781 153.55664 78.550781 C 153.55664 78.550781 162.97728 77.879219 164.23828 70.949219 C 164.23828 70.949219 169.37762 32.921047 137.51562 28.623047 C 137.51562 28.623047 136.41204 28.46592 134.58398 28.451172 z M 132.90234 40.552734 A 13.824 13.824 0 0 1 146.72656 54.376953 A 13.824 13.824 0 0 1 132.90234 68.201172 A 13.824 13.824 0 0 1 119.07812 54.376953 A 13.824 13.824 0 0 1 132.90234 40.552734 z "
   style="fill:#000000;stroke:black;stroke-width:2px;fill-opacity:1" />
                
                <g
   id="g83">
                    <g
   id="g67"
   transform="matrix(1.30416,0,0,1.33964,-205.672,-212.246)">
                        
                    </g>
                    <g
   id="g71"
   transform="matrix(1,0,0,1,0,-0.330669)">
                        
                    </g>
                    
                    <g
   id="g77"
   transform="matrix(0.34606,0,0,0.34606,442.194,409.979)">
                        
                    </g>
                    <g
   id="g81"
   transform="matrix(1,0,0,1,0,-0.330669)">
                        
                    </g>
                </g>
            </g>
        </g>
    </g>
</svg>