<?xml version="1.0" encoding="UTF-8" standalone="no"?>
<svg
   xmlns:dc="http://purl.org/dc/elements/1.1/"
   xmlns:cc="http://creativecommons.org/ns#"
   xmlns:rdf="http://www.w3.org/1999/02/22-rdf-syntax-ns#"
   xmlns:svg="http://www.w3.org/2000/svg"
   xmlns="http://www.w3.org/2000/svg"
   xmlns:sodipodi="http://sodipodi.sourceforge.net/DTD/sodipodi-0.dtd"
   xmlns:inkscape="http://www.inkscape.org/namespaces/inkscape"
   clip-rule="evenodd"
   fill-rule="evenodd"
   stroke-linecap="round"
   stroke-miterlimit="1.5"
   viewBox="0 0 220 220"
   version="1.1"
   id="svg44"
   sodipodi:docname="Saurian2.svg"
   inkscape:version="0.92.4 (5da689c313, 2019-01-14)">
  <metadata
     id="metadata50">
    <rdf:RDF>
      <cc:Work
         rdf:about="">
        <dc:format>image/svg+xml</dc:format>
        <dc:type
           rdf:resource="http://purl.org/dc/dcmitype/StillImage" />
        <dc:title></dc:title>
      </cc:Work>
    </rdf:RDF>
  </metadata>
  <defs
     id="defs48" />
  <sodipodi:namedview
     pagecolor="#ffffff"
     bordercolor="#666666"
     borderopacity="1"
     objecttolerance="10"
     gridtolerance="10"
     guidetolerance="10"
     inkscape:pageopacity="0"
     inkscape:pageshadow="2"
     inkscape:window-width="1706"
     inkscape:window-height="998"
     id="namedview46"
     showgrid="false"
     inkscape:zoom="0.75853273"
     inkscape:cx="-78.47068"
     inkscape:cy="76.627124"
     inkscape:window-x="0"
     inkscape:window-y="0"
     inkscape:window-maximized="0"
     inkscape:current-layer="svg44" />
  <clipPath
     id="a">
    <path
       clip-rule="evenodd"
       d="m180.065 1056.36c.279.14.611.1.852-.09 12.949-10.44 29.399-16.68 47.295-16.68 41.693 0 75.542 33.9 75.542 75.66s-33.849 75.67-75.542 75.67c-2.108 0-4.195-.01-6.259-.18-45.459-2.88-81.488-40.72-81.488-86.9 0-21.37 7.717-40.96 20.514-56.12.209-.24.546-.34.854-.24 2.615 1.27 15.622 7.61 18.232 8.88z"
       id="path2" />
  </clipPath>
  <clipPath
     id="b">
    <path
       clip-rule="evenodd"
       d="m232.695 1060.45 2.164 6.14c.03.08.111.14.2.13.089 0 .164-.07.184-.15l1.375-5.98c8.586.65 15.807 2.87 21.841 6.02l-.845 6.35c-.011.09.037.17.118.21.081.03.177.01.234-.06l3.843-4.58c8.042 5.01 13.692 11.68 17.48 18.05l-5.383 4.09c-.071.05-.098.15-.066.23.032.09.115.14.203.13l7.327-.62c2.457 4.96 3.78 9.47 4.245 12.52.791 5.18.835 10.23.221 15.07l-9.267.22c-.133 0-.249.09-.283.22s.021.27.135.34l8.35 5.02c-1.999 8.26-5.933 15.81-11.302 22.3l-7.227-3.77c-.118-.06-.263-.04-.355.06s-.11.24-.043.36l4.163 7.19c-6.041 6.15-13.462 11.12-21.737 14.54l-5.439-8.02c-.1-.14-.286-.2-.455-.15-.169.06-.282.22-.276.39l.309 9.89c-6.481 2.01-13.375 3.09-20.456 3.09-3.653 0-7.223-.29-10.692-.86l-.196-13.32c-.003-.18-.123-.34-.294-.38-.172-.05-.354.02-.447.17l-7.158 11.67c-8.605-2.57-16.416-6.86-23.096-12.45l7.989-13.39c.114-.19.088-.44-.064-.6-.151-.16-.392-.2-.591-.11l-14.377 7.27c-5.987-6.73-10.624-14.68-13.535-23.36l13.96-9.17c.222-.15.321-.42.243-.67-.078-.26-.314-.43-.58-.43l-16.14.26c-.636-3.71-.966-7.52-.966-11.38 0-18.34 3.44-29.6 8.97-36.33.136-.17.36-.23.559-.15 2.25 1.01 12.817 6.53 28.032 20.42.125.11.286.18.453.15s.307-.14.373-.3c1.145-2.49 5.541-11.08 14.401-17.78l4.878 4.32c.067.06.164.07.239.02.076-.05.11-.14.086-.23l-1.85-6.41c5.415-3.34 12.198-5.83 20.545-6.19z"
       id="path5" />
  </clipPath>
  <path
     style="fill:#000000;stroke:#000000;stroke-width:2;fill-opacity:1"
     d="M 116.10156 34.337891 C 98.205562 34.337891 81.755641 40.577578 68.806641 51.017578 C 68.565641 51.207578 68.234078 51.247422 67.955078 51.107422 C 65.345078 49.837422 52.337656 43.498516 49.722656 42.228516 C 49.414656 42.128516 49.078141 42.22875 48.869141 42.46875 C 36.072141 57.62875 28.355469 77.217891 28.355469 98.587891 C 28.355469 144.76789 64.38475 182.60828 109.84375 185.48828 C 111.90775 185.65828 113.99356 185.66797 116.10156 185.66797 C 157.79456 185.66797 191.64453 151.75805 191.64453 109.99805 C 191.64453 68.238047 157.79456 34.337891 116.10156 34.337891 z M 120.58594 55.197266 L 122.75 61.337891 C 122.78 61.417891 122.86022 61.47875 122.94922 61.46875 C 123.03822 61.46875 123.11281 61.398359 123.13281 61.318359 L 124.50781 55.337891 C 133.09381 55.987891 140.31561 58.207422 146.34961 61.357422 L 145.50391 67.707031 C 145.49291 67.797031 145.54205 67.877969 145.62305 67.917969 C 145.70405 67.947969 145.79847 67.927422 145.85547 67.857422 L 149.69922 63.277344 C 157.74122 68.287344 163.39169 74.958125 167.17969 81.328125 L 161.79688 85.417969 C 161.72588 85.467969 161.69847 85.568437 161.73047 85.648438 C 161.76247 85.738438 161.84559 85.787344 161.93359 85.777344 L 169.25977 85.158203 C 171.71677 90.118203 173.04086 94.627734 173.50586 97.677734 C 174.29686 102.85773 174.34056 107.90805 173.72656 112.74805 L 164.45898 112.96875 C 164.32598 112.96875 164.20978 113.0575 164.17578 113.1875 C 164.14178 113.3175 164.19655 113.45734 164.31055 113.52734 L 172.66211 118.54883 C 170.66311 126.80883 166.72837 134.35766 161.35938 140.84766 L 154.13281 137.07812 C 154.01481 137.01812 153.86934 137.03867 153.77734 137.13867 C 153.68534 137.23867 153.66737 137.37805 153.73438 137.49805 L 157.89648 144.6875 C 151.85548 150.8375 144.43516 155.80852 136.16016 159.22852 L 130.7207 151.20703 C 130.6207 151.06703 130.43462 151.00859 130.26562 151.05859 C 130.09662 151.11859 129.98423 151.27727 129.99023 151.44727 L 130.29883 161.33789 C 123.81783 163.34789 116.92475 164.42773 109.84375 164.42773 C 106.19075 164.42773 102.62134 164.13836 99.152344 163.56836 L 98.955078 150.24805 C 98.952078 150.06805 98.833109 149.90719 98.662109 149.86719 C 98.490109 149.81719 98.307844 149.88711 98.214844 150.03711 L 91.056641 161.70703 C 82.451641 159.13703 74.640938 154.84781 67.960938 149.25781 L 75.949219 135.86719 C 76.063219 135.67719 76.036766 135.42758 75.884766 135.26758 C 75.733766 135.10758 75.493922 135.0682 75.294922 135.1582 L 60.917969 142.42773 C 54.930969 135.69773 50.293812 127.74836 47.382812 119.06836 L 61.341797 109.89844 C 61.563797 109.74844 61.663937 109.47852 61.585938 109.22852 C 61.507937 108.96852 61.271859 108.79883 61.005859 108.79883 L 44.865234 109.05859 C 44.229234 105.34859 43.898438 101.53773 43.898438 97.677734 C 43.898438 79.337734 47.339141 68.077656 52.869141 61.347656 C 53.005141 61.177656 53.228734 61.117266 53.427734 61.197266 C 55.677734 62.207266 66.245937 67.727188 81.460938 81.617188 C 81.585938 81.727187 81.747063 81.797578 81.914062 81.767578 C 82.081063 81.737578 82.221109 81.62875 82.287109 81.46875 C 83.432109 78.97875 87.8275 70.3875 96.6875 63.6875 L 101.56445 68.007812 C 101.63145 68.067813 101.72969 68.077344 101.80469 68.027344 C 101.88069 67.977344 101.91463 67.888828 101.89062 67.798828 L 100.04102 61.388672 C 105.45602 58.048672 112.23894 55.557266 120.58594 55.197266 z "
     id="path22" />
</svg>
