<?xml version="1.0" encoding="UTF-8" standalone="no"?>
<svg
   xmlns="http://www.w3.org/2000/svg"
   fill-rule="evenodd"
   viewBox="0 0 220 220">
  <path
    d="M 180.64062 20.300781 C 179.96585 20.223873 179.23517 20.591666 178.90234 21.183594 C 176.29934 35.320417 166.92571 47.05113 156.79688 56.605469 A 0.50212314 0.50212314 0 0 1 156.66602 56.695312 C 156.42591 56.807238 156.07322 57.120147 155.71094 57.511719 C 155.34866 57.90329 154.96579 58.3651 154.55859 58.763672 C 154.1514 59.162244 153.72073 59.524868 153.1582 59.626953 C 152.62506 59.723706 152.04624 59.460057 151.61328 58.925781 C 150.27967 58.045182 149.22441 56.713303 148.12695 55.621094 C 147.04716 54.546461 145.96938 53.747105 144.625 53.662109 C 143.95781 54.121659 143.34325 54.527737 142.81445 54.792969 C 142.23371 55.084258 141.72319 55.278708 141.1875 55.148438 C 140.91965 55.083302 140.6674 54.90415 140.51172 54.667969 C 140.35604 54.431788 140.27971 54.157403 140.24414 53.845703 C 140.17742 53.260984 140.27371 52.474994 140.4668 51.482422 C 140.29222 50.627566 139.95918 50.298126 139.45898 50.099609 C 138.94894 49.897184 138.20706 49.88674 137.39453 49.931641 C 136.58201 49.976541 135.70876 50.068735 134.88086 49.947266 C 134.07224 49.828626 133.2692 49.443148 132.80859 48.615234 L 132.80664 48.613281 C 127.31336 40.796679 117.45576 36.553472 108.00195 37.835938 A 0.50212314 0.50212314 0 0 1 107.99805 37.835938 C 92.666849 39.808283 79.371982 49.053796 67.8125 58.958984 A 0.50212314 0.50212314 0 0 1 67.208984 58.996094 C 64.066575 56.914808 61.028935 53.441059 58.027344 50.892578 C 57.288706 50.837957 56.673488 50.736263 56.232422 50.496094 C 55.735187 50.22534 55.417126 49.816068 55.197266 49.392578 C 54.757545 48.545598 54.584956 47.619181 53.642578 46.474609 A 0.50212314 0.50212314 0 0 1 53.582031 46.382812 C 53.061297 45.35586 52.033844 44.318982 51.078125 43.273438 C 50.15818 42.267029 49.286338 41.239013 49.103516 40.017578 C 47.103639 35.080296 43.96258 30.483868 41.484375 25.591797 L 41.474609 25.574219 C 40.870507 24.487906 40.183729 22.839829 39.341797 21.818359 C 38.91885 21.305222 38.480156 20.978512 38.050781 20.890625 C 37.641138 20.806777 37.166862 20.918899 36.535156 21.416016 C 33.056461 28.483399 32.032171 36.598396 31.130859 44.464844 C 30.378167 53.794018 30.15268 63.065967 30.742188 72.357422 C 31.450947 80.317289 35.312003 89.202261 43.292969 91.865234 C 43.507114 91.936688 43.614572 92.007655 43.660156 92.021484 A 0.50212314 0.50212314 0 0 1 43.976562 92.695312 C 43.530912 93.760021 42.949928 94.863703 42.455078 95.914062 C 41.218515 98.538775 39.939268 101.1774 38.730469 103.7832 A 0.50212314 0.50212314 0 0 1 38.648438 103.9082 C 38.073839 104.54549 37.874471 105.12212 37.863281 105.70703 C 37.852091 106.29194 38.049415 106.90515 38.371094 107.53711 C 38.840708 108.45972 39.47362 109.37181 40.195312 110.10938 A 0.50212314 0.50212314 0 0 1 39.796875 110.96094 C 38.689619 110.87529 37.813015 111.12473 37.035156 111.55664 C 35.689501 112.30381 34.778039 113.72687 34.287109 115.4043 C 33.79618 117.08173 33.73739 118.99294 34.052734 120.5957 A 0.50212314 0.50212314 0 0 1 34.052734 120.79492 C 32.863782 126.56658 36.045468 132.48756 41.083984 135.32617 C 42.328682 135.61541 43.221708 136.39996 43.798828 137.35156 C 44.376275 138.30371 44.667372 139.41753 44.822266 140.4707 C 47.589061 147.95838 52.137602 154.83079 56.947266 161.2793 C 58.372937 162.7688 59.574641 164.6541 60.955078 166.14844 C 62.349473 167.65789 63.865606 168.74788 65.988281 168.76758 L 65.921875 168.77148 C 66.747169 168.6679 67.417755 168.84381 67.869141 169.25195 C 68.320526 169.6601 68.521582 170.21814 68.650391 170.78125 C 68.908007 171.90746 68.940636 173.16586 69.351562 173.86133 A 0.50212314 0.50212314 0 0 1 69.402344 173.98047 C 71.199563 180.3079 77.739162 184.40957 84.207031 183.96875 C 84.583327 183.87313 84.902455 183.8109 85.173828 183.81836 C 85.472631 183.82658 85.800177 183.93016 85.984375 184.19922 C 86.168573 184.46827 86.148591 184.75192 86.105469 184.98242 C 86.062346 185.21292 85.982484 185.43233 85.894531 185.66016 C 85.718627 186.11581 85.50706 186.60588 85.423828 187.02734 C 85.341405 187.44471 85.368188 187.7257 85.578125 187.9668 C 90.542844 192.77044 96.471124 197.06478 103.22461 198.6543 A 0.50212314 0.50212314 0 0 1 103.2793 198.66992 C 110.99197 201.44772 121.33535 198.30903 128.1875 193.06445 C 129.40452 191.98874 130.88401 191.07355 132.13477 190.05078 C 133.39497 189.02029 134.4 187.9053 134.75781 186.45508 A 0.50212314 0.50212314 0 0 1 134.79297 186.36133 C 135.09156 185.72897 135.58662 185.30907 136.13086 185.06641 C 136.6751 184.82374 137.26308 184.73508 137.8418 184.67578 C 138.99923 184.55719 140.12428 184.52599 140.75586 184.10938 A 0.50212314 0.50212314 0 0 1 140.8125 184.07812 C 141.73987 183.62441 141.95297 183.00909 142.04297 182.14062 C 142.13296 181.27217 141.99506 180.2175 142.1875 179.19141 A 0.50212314 0.50212314 0 0 1 142.2207 179.08594 C 142.53399 178.35545 143.05172 177.84298 143.65039 177.53516 C 144.24906 177.22733 144.91669 177.1072 145.58789 177.06641 C 146.87073 176.98844 148.1742 177.18066 149.12109 177.1543 C 152.48469 174.51081 154.8281 170.40649 157.94141 167.09766 A 0.50212314 0.50212314 0 0 1 158.06641 167 C 158.76634 166.61969 158.96771 166.223 159.04492 165.75586 C 159.12213 165.28872 159.01696 164.73369 158.91992 164.20312 C 158.87141 163.93786 158.82394 163.67932 158.82617 163.41016 C 158.8284 163.14099 158.89292 162.81731 159.13867 162.57812 C 159.38443 162.33894 159.72634 162.26031 160.09375 162.26367 C 160.3837 162.26633 160.76517 162.35377 161.16797 162.44922 C 165.48865 159.21225 168.1423 154.01996 170.91992 149.25586 A 0.50212314 0.50212314 0 0 1 170.93359 149.23438 C 172.57592 146.71456 173.65039 143.66548 174.97656 140.73828 C 176.30274 137.81108 177.89291 134.99095 180.63477 133.00977 A 0.50212314 0.50212314 0 0 1 180.76953 132.93945 C 184.37391 131.72867 186.64551 127.43548 186.48828 123.48047 C 186.47806 123.22331 186.51834 123.10001 186.51953 123.11523 A 0.50212314 0.50212314 0 0 1 186.51758 123.0957 C 186.17388 114.11843 181.86311 105.78006 178.36133 97.496094 A 0.50212314 0.50212314 0 0 1 178.3457 97.451172 C 178.12592 96.756035 177.59635 95.842921 177.13281 94.953125 C 176.66928 94.063329 176.21554 93.206973 176.36914 92.332031 A 0.50212314 0.50212314 0 0 1 176.75781 91.927734 C 183.61274 90.442761 188.74941 83.939403 188.76758 76.941406 A 0.50212314 0.50212314 0 0 1 188.78125 76.824219 C 189.0483 75.728833 188.7955 74.901811 188.24023 74.169922 C 187.68497 73.438033 186.79641 72.830544 185.83398 72.375 A 0.50212314 0.50212314 0 0 1 185.69727 72.279297 C 185.61219 72.195675 185.52799 72.112784 185.4707 71.945312 C 185.41341 71.777846 185.46761 71.477756 185.60352 71.337891 C 185.87533 71.058161 186.05846 71.112352 186.25781 71.095703 C 186.65651 71.062406 187.16549 71.085954 187.69141 71.060547 C 188.21733 71.03514 188.74327 70.954111 189.05664 70.796875 C 189.37001 70.639639 189.49102 70.521427 189.4707 70.091797 A 0.50212314 0.50212314 0 0 1 189.4707 70.060547 C 189.65739 56.360889 189.26799 42.419566 185.8125 29.134766 C 185.19522 27.49192 184.69279 25.593768 183.93359 23.951172 C 183.18047 22.321707 182.19633 20.983707 180.64062 20.300781 z M 41.083984 135.32617 C 41.052035 135.31875 41.022651 135.30754 40.990234 135.30078 L 41.132812 135.35547 C 41.116222 135.34621 41.100535 135.3355 41.083984 135.32617 z M 151.61328 58.925781 C 151.63342 58.939077 151.65158 58.955664 151.67188 58.96875 L 151.53906 58.84375 C 151.56198 58.874886 151.58942 58.896331 151.61328 58.925781 z M 84.619141 63.462891 C 86.952666 63.467109 90.650312 64.109062 93.773438 67.507812 C 93.773438 67.507812 108.70598 65.590828 118.33398 73.923828 C 119.00498 74.515828 119.86086 74.855766 120.75586 74.884766 C 121.31686 74.920766 121.96053 74.940984 122.51953 74.958984 C 123.39353 74.986984 124.21014 75.404656 124.74414 76.097656 C 125.34714 76.878656 126.16259 77.933484 126.80859 78.771484 C 127.45659 79.611484 128.46539 80.092359 129.52539 80.068359 C 133.40339 80.013359 142.64219 80.903078 141.24219 90.580078 C 141.24219 90.580078 136.39342 106.74628 123.60742 97.488281 C 123.60742 97.488281 104.38998 85.150141 99.083984 81.744141 C 98.299984 81.240141 97.645734 80.557 97.177734 79.75 C 96.380734 78.372 94.653969 76.226719 91.667969 76.136719 C 90.885969 76.108719 90.119828 75.906875 89.423828 75.546875 C 87.255828 74.390875 82.771984 71.782109 79.958984 68.537109 C 79.958984 68.537109 76.872547 64.7165 82.310547 63.6875 C 82.310547 63.6875 83.219025 63.460359 84.619141 63.462891 z M 58.736328 86.826172 C 58.964214 86.818992 59.201785 86.819316 59.451172 86.830078 C 61.264896 86.908348 63.658437 87.492498 66.78125 89.023438 C 74.85725 91.103437 87.991672 94.935602 94.638672 102.05859 C 94.638672 102.05859 97.577569 105.78136 102.47656 105.19336 C 102.47656 105.19336 107.57134 106.36939 110.90234 108.52539 L 124.61914 115.1875 C 123.37514 115.1875 118.28517 140.66175 156.95117 131.84375 C 156.95117 131.84375 170.66761 136.74116 161.84961 147.91016 C 161.84961 147.91016 154.79698 162.01905 139.70898 148.49805 C 139.70898 148.49805 135.59314 139.87741 124.61914 135.56641 C 124.61914 135.56641 106.78834 132.82397 96.402344 123.41797 C 96.402344 123.41797 104.23919 106.36995 73.867188 103.62695 C 73.867188 103.62695 61.523672 95.983109 58.388672 95.787109 C 58.388672 95.787109 50.942438 92.456688 54.273438 88.929688 C 54.273438 88.929688 55.318043 86.933876 58.736328 86.826172 z M 148.74805 110.25586 C 152.48795 110.30066 156.36018 110.89289 159.62695 112.81641 C 161.3399 113.83362 162.95715 115.5262 162.94727 117.64062 C 162.92537 119.87001 161.26165 121.66006 159.54297 122.875 C 156.11574 125.2322 151.95191 126.27782 147.85547 126.6543 C 143.62541 126.98557 139.21576 126.62315 135.32422 124.82227 C 133.40067 123.89722 131.42294 122.42826 130.95312 120.22266 C 130.53102 118.221 131.72459 116.29463 133.17969 115.02344 C 135.94535 112.62043 139.53812 111.41951 143.08594 110.75 C 144.9539 110.41484 146.85074 110.25793 148.74805 110.25586 z M 71.800781 110.25781 C 76.336707 110.33201 80.973698 111.227 84.927734 113.5332 C 86.81567 114.68101 88.706784 116.28971 89.195312 118.54688 C 89.605339 120.42534 88.537638 122.28956 87.083984 123.41406 C 84.481418 125.45598 81.149334 126.2633 77.919922 126.61914 C 73.0651 127.07053 68.050283 126.46316 63.556641 124.52148 C 61.245146 123.47218 58.903313 122.0229 57.701172 119.70117 C 56.873209 118.14432 57.106823 116.15187 58.222656 114.79688 C 59.934994 112.66808 62.607181 111.62335 65.183594 110.9707 C 67.345725 110.44797 69.578688 110.23366 71.800781 110.25781 z M 78.40625 139.85156 C 78.747449 139.83548 79.123688 139.83783 79.539062 139.86133 C 79.539062 139.86133 86.813469 139.86163 99.605469 148.76562 C 99.605469 148.76562 110.51545 148.89192 125.43945 157.66992 C 125.43945 157.66992 141.24152 156.16503 137.22852 168.83203 C 137.22852 168.83203 128.5742 184.6328 116.0332 172.0918 C 116.0332 172.0918 110.51514 162.1845 103.86914 163.0625 C 103.86914 163.0625 98.851797 163.81573 95.591797 159.67773 C 88.014797 155.93573 81.589344 150.81195 76.152344 144.50195 C 76.152344 144.50195 73.288269 140.09282 78.40625 139.85156 z "
    style="fill:#000000;fill-opacity:1;stroke:#000000;stroke-width:2.5" />
</svg>
