<svg clip-rule="evenodd" fill-rule="evenodd" stroke-linecap="round" stroke-linejoin="round" stroke-miterlimit="1.5" viewBox="0 0 220 220" xmlns="http://www.w3.org/2000/svg" xmlns:xlink="http://www.w3.org/1999/xlink"><clipPath id="a"><path clip-rule="evenodd" d="m682.578 718.504c-2.354 7.373-6.186 14.089-11.145 19.799-.091.105-.16.228-.201.361-.638 2.066-5.994 19.405-7.589 24.569-.118.382-.383.701-.738.885-.354.184-.768.219-1.148.096-4.863-1.568-20.492-6.607-22.604-7.288-.155-.05-.32-.061-.481-.033-3.193.562-6.477.856-9.83.856-31.126 0-56.396-25.27-56.396-56.396s25.27-56.396 56.396-56.396c15.456 0 29.469 6.232 39.66 16.317 18.114-7.51 34.584-5.606 34.584-5.606 19.622 1.682 28.289 20.375 28.289 20.375 3.624 7.476 3.065 15.858 1.845 21.952-3.772 18.838-22.986 24.948-22.986 24.948-6.027 2.383-14.997.421-14.997.421-4.647-.896-9.049-2.844-12.659-4.86z"/></clipPath><path d="m0 .0001h220v220h-220z" fill="none"/><g transform="translate(-543.296 -572.7359)"><path d="m682.578 718.504c-2.354 7.373-6.186 14.089-11.145 19.799-.091.105-.16.228-.201.361-.638 2.066-5.994 19.405-7.589 24.569-.118.382-.383.701-.738.885-.354.184-.768.219-1.148.096-4.863-1.568-20.492-6.607-22.604-7.288-.155-.05-.32-.061-.481-.033-3.193.562-6.477.856-9.83.856-31.126 0-56.396-25.27-56.396-56.396s25.27-56.396 56.396-56.396c15.456 0 29.469 6.232 39.66 16.317 18.114-7.51 34.584-5.606 34.584-5.606 19.622 1.682 28.289 20.375 28.289 20.375 3.624 7.476 3.065 15.858 1.845 21.952-3.772 18.838-22.986 24.948-22.986 24.948-6.027 2.383-14.997.421-14.997.421-4.647-.896-9.049-2.844-12.659-4.86z" fill="#3a3538" stroke="#000" stroke-width="2"/><path d="m682.578 718.504c-2.354 7.373-6.186 14.089-11.145 19.799-.091.105-3.599 3.986-3.64 4.119-.638 2.066-2.555 15.647-4.15 20.811-.118.382-.383.701-.738.885-.354.184-.768.219-1.148.096-4.863-1.568-20.492-6.607-22.604-7.288-.155-.05-.323.007-.481-.033-4.744-1.185-6.481.167-9.83.017-31.126-1.399-56.396-24.431-56.396-55.557s25.27-56.396 56.396-56.396c15.456 0 29.469 6.232 39.66 16.317 19.701-3.315 34.584-5.606 34.584-5.606 25.375 3.343 30.656 10.36 34.661 16.933 4.025 6.606 4.873 15.886 3.653 21.981-3.771 18.837-22.555 23.56-22.555 23.56-6.027 2.383-21.993-4.38-21.993-4.38-4.648-.896-11.874-2.774-14.274 4.742z" fill="#51494d" transform="matrix(.847749 0 0 .855324 96.5566 95.7828)"/><path d="m682.578 718.504c-2.354 7.373-6.186 14.089-11.145 19.799-.091.105-.16.228-.201.361-.638 2.066-5.994 19.405-7.589 24.569-.118.382-.383.701-.738.885-.354.184-.768.219-1.148.096-4.863-1.568-20.492-6.607-22.604-7.288-.155-.05-.32-.061-.481-.033-3.193.562-6.477.856-9.83.856-31.126 0-56.396-25.27-56.396-56.396s25.27-56.396 56.396-56.396c15.456 0 29.469 6.232 39.66 16.317 18.114-7.51 34.584-5.606 34.584-5.606 19.622 1.682 28.289 20.375 28.289 20.375 3.624 7.476 3.065 15.858 1.845 21.952-3.772 18.838-22.986 24.948-22.986 24.948-6.027 2.383-14.997.421-14.997.421-4.647-.896-9.049-2.844-12.659-4.86z" fill="none"/><g clip-path="url(#a)"><circle cx="668.676" cy="573.01" fill="#6c6165" r="74.183" transform="matrix(.966967 0 0 1.05127 7.02015 -6.69673)"/></g><path d="m682.578 718.504c-2.354 7.373-6.186 14.089-11.145 19.799-.091.105-.16.228-.201.361-.638 2.066-5.994 19.405-7.589 24.569-.118.382-.383.701-.738.885-.354.184-.768.219-1.148.096-4.863-1.568-20.492-6.607-22.604-7.288-.155-.05-.32-.061-.481-.033-3.193.562-6.477.856-9.83.856-31.126 0-56.396-25.27-56.396-56.396s25.27-56.396 56.396-56.396c15.456 0 29.469 6.232 39.66 16.317 18.114-7.51 34.584-5.606 34.584-5.606 19.622 1.682 28.289 20.375 28.289 20.375 3.624 7.476 3.065 15.858 1.845 21.952-3.772 18.838-22.986 24.948-22.986 24.948-6.027 2.383-14.997.421-14.997.421-4.647-.896-9.049-2.844-12.659-4.86z" fill="none" stroke="#000" stroke-width="2"/><path d="m679.018 689.832s-10.745 1.636-17.87.234l.818 8.176s4.321-6.541 17.052-8.41z" fill="#6c6165" fill-opacity=".5"/><circle cx="628.842" cy="701.353" fill="#3a3538" r="36.271" transform="matrix(1.0966 0 0 1.13283 -60.7485 -91.8469)"/><circle cx="628.842" cy="701.353" fill="#de1d74" r="36.271"/><path d="m594.605 689.358c-.281 1.857-.427 3.76-.427 5.699 0 20.018 15.533 36.271 34.664 36.271s34.663-16.253 34.663-36.271c0-1.939-.145-3.842-.426-5.699 1.317 3.755 2.034 7.792 2.034 11.995 0 20.018-16.253 36.271-36.271 36.271-20.019 0-36.271-16.253-36.271-36.271 0-4.203.716-8.24 2.034-11.995z" fill="#951952"/><circle cx="628.842007" cy="701.35281" fill="#e88ca6" r="26.826866" stroke-width=".739623"/><circle cx="627.645874" cy="691.765845" fill="#f3c4ce" r="12.354265" stroke-width=".34061"/><circle cx="628.842" cy="701.353" fill="none" r="36.271" stroke="#000" stroke-width="2.5"/><circle cx="698.372" cy="689.035" fill="#3a3538" r="16.561" transform="matrix(1.25854 0 0 1.25906 -180.558 -177.201)"/><circle cx="698.372" cy="689.035" fill="#de1d74" r="16.561"/><path d="m683.333 682.094c-.01.249-.015.499-.015.75 0 9.141 6.745 16.562 15.054 16.562s15.055-7.421 15.055-16.562c0-.251-.005-.501-.016-.75.977 2.112 1.523 4.463 1.523 6.941 0 9.14-7.421 16.561-16.562 16.561-9.14 0-16.561-7.421-16.561-16.561 0-2.478.545-4.829 1.522-6.941z" fill="#951952"/><circle cx="698.371954" cy="689.035263" fill="#e88ca6" r="7.691972" stroke-width=".464463"/><circle cx="698.372" cy="689.035" fill="none" r="16.561" stroke="#000" stroke-width="1.5"/><path d="m629.328 619.392 15.542 23.609s13.455 1.464 24.2 13.05c0 0 9.001-5.606 27.782-4.765 0 0 9.422-.67 10.683-7.6 0 0 5.139-38.029-26.723-42.327 0 0-7.849-1.121-16.351 2.336z" fill="#453e41" stroke="#000" stroke-width="2"/><path d="m642.496 617.707 7.908 13.231s16.881 7.147 19.466 12.47c0 0 7.756-6.387 28.591-5.779 0 0 1.845-11.292-1.521-19.922-1.715-4.397-8.326-19.732-30.948-10.417z" fill="#6b6165"/><circle cx="676.199" cy="627.443" fill="#3a3538" r="13.824" transform="matrix(1.30416 0 0 1.33964 -205.672 -212.246)"/><circle cx="676.199" cy="627.112331" fill="#de1d74" r="13.824"/><path d="m663.517 621.605c.382 7.258 5.918 13.024 12.682 13.024s12.301-5.766 12.682-13.024c.735 1.688 1.142 3.55 1.142 5.507 0 7.63-6.194 13.824-13.824 13.824-7.629 0-13.824-6.194-13.824-13.824 0-1.957.408-3.819 1.142-5.507z" fill="#951952"/><circle cx="676.199426" cy="627.111925" fill="#e88ca6" r="4.783933" stroke-width=".34606"/><circle cx="676.199" cy="627.112331" fill="none" r="13.824" stroke="#000" stroke-width="1.2"/></g></svg>