<svg clip-rule="evenodd" fill-rule="evenodd" stroke-linecap="round" stroke-linejoin="round" stroke-miterlimit="1.5" viewBox="0 0 220 221" version="1.1" id="svg41" xmlns="http://www.w3.org/2000/svg">
  <defs></defs>
  <path d="m0 .752h220v220h-220z" fill="none" id="path5"></path>
  <mask id="mask0_1_4" style="mask-type:alpha" maskUnits="userSpaceOnUse" x="60" y="41" width="74" height="80">
    <path d="M131 68C129.397 70.3604 124.503 73.0165 122.5 74C125.171 75.1474 131.5 78.3528 131.5 81.5C131.5 85.434 128.012 99.6484 121 108.5C113.988 117.352 108.148 121 100.635 121C93.1229 121 61.1789 101.78 60.0683 90.5112C58.5657 75.2668 82.256 51.2125 93.123 47.7284C117.664 39.8603 127.68 39.3686 131.687 43.7944C135.693 48.2202 133.003 65.0495 131 68Z" fill="#60B4A4"></path>
  </mask>
  <mask id="mask1_1_4" style="mask-type:alpha" maskUnits="userSpaceOnUse" x="30" y="40" width="93" height="109">
    <path d="M99.5 132C94.7 132.8 90.1667 132.167 88.5 131.5C85 139 75.5 146.5 62 147C47.5013 147.537 31.5 134 31.5 110.5C31.5 90.7259 53 42.5 108.5 41.5C109.5 41.8333 109 42.5 107 43C96.5 45.625 65.5 60.5 66 91C75 90.5 84.5 96.5 86 102C94 96.5 110.5 102 110.5 113C114.831 112.463 117.236 111.619 121.5 109.5C120.7 114.3 112.833 121.833 109 125C107.667 127.5 104.3 131.2 99.5 132Z" fill="#EDCE6E" stroke="#030303" stroke-width="2"></path>
  </mask>
  <path d="M 177.301 82.073 C 175.057 85.44 168.884 89.087 166.079 90.49 C 169.82 92.127 177.301 96.522 177.301 101.011 C 177.301 106.622 173.093 125.56 163.273 138.185 C 153.454 150.81 144.336 157.123 133.815 157.123 C 123.294 157.123 78.557 129.708 77.002 113.636 C 74.898 91.893 108.075 57.585 123.294 52.615 C 157.662 41.393 171.69 40.691 177.301 47.004 C 182.912 53.316 180.107 77.865 177.301 82.073 Z" fill="#60B4A4" stroke="black" stroke-width="1.5" style="transform-origin: 128.724px 100.07px;"></path>
  <g mask="url(#mask0_1_4)" transform="matrix(1.40279, 0, 0, 1.40279, -7.866714, -13.316841)" style="">
    <g opacity="0.4" filter="url(#filter0_f_1_4)">
      <path d="M115.5 71.5C115.23 70.6663 94.3148 74.2509 86.5 80.5C89.618 83.6006 90.8606 85.7375 92.5 90C103.618 87.2698 109.859 87.033 121 88C121 88 127 85.5 124.5 82.5C122 79.5 114.556 76.4787 115.5 71.5Z" fill="#FFFEFE"></path>
      <path d="M117 92C113.8 90.8 99.6667 92.5 93 93.5C94.0433 98.2455 93.805 100.477 92.5 104C97.6667 107.667 108 115 110.5 114.5C114.188 113.762 117.424 104.609 122 98C122.636 97.0808 121 93.5 117 92Z" fill="#FFFEFE"></path>
      <path d="M84.5 79C79.2401 74.4538 75.243 72.9855 67.5 71L82.5 44L126.5 37C126.5 45 126.425 61.9592 124.5 62.5C117.303 64.5214 90.6655 74.9545 84.5 79Z" fill="#FFFEFE"></path>
      <path d="M91 107C92.2315 90.3566 76.6859 71.1029 64 76.5L56.5 92.5L87 119L91 107Z" fill="#FFFEFE"></path>
    </g>
    <g opacity="0.2" filter="url(#filter1_f_1_4)">
      <path d="M100 105C104.17 75.9338 96.7925 67.4262 61.5 70V94.5L83 109L100 105Z" fill="white"></path>
    </g>
    <g filter="url(#filter2_f_1_4)">
      <path d="M129.5 62C131.5 59.2 131.667 45.5 131.5 39L140 39.5L133.5 109.5L113 120.5C110.167 120 106.2 117.5 113 111.5C121.5 104 128 84.5 128.5 81C129 77.5 120.5 75.5 120.5 71C120.5 66.5 127 65.5 129.5 62Z" fill="#489186"></path>
    </g>
  </g>
  <path d="M 131.711 171.852 C 124.977 172.974 118.617 172.086 116.28 171.151 C 111.37 181.672 98.044 192.192 79.106 192.894 C 58.767 193.647 36.321 174.658 36.321 141.692 C 36.321 113.953 66.481 46.302 144.336 44.9 C 145.738 45.368 145.037 46.302 142.231 47.004 C 127.502 50.686 84.016 71.553 84.717 114.338 C 97.342 113.636 110.669 122.053 112.773 129.768 C 123.995 122.053 147.141 129.768 147.141 145.199 C 153.217 144.446 156.59 143.262 162.572 140.289 C 161.45 147.023 150.414 157.59 145.037 162.032 C 143.167 165.539 138.444 170.73 131.711 171.852 Z" fill="#EDCE6E" stroke="#030303" stroke-width="2" style="transform-origin: 99.446px 118.908px;"></path>
  <g mask="url(#mask1_1_4)" transform="matrix(1.40279, 0, 0, 1.40279, -7.866714, -13.316841)" style="">
    <g opacity="0.4" filter="url(#filter3_f_1_4)">
      <path fill-rule="evenodd" clip-rule="evenodd" d="M27 38H139V154H27V38ZM101 128.5C96.2 129.3 90.167 128.667 88.5 128C85 135.5 77 141.5 63.5 142C49.001 142.537 35 134 35 110.5C35 90.726 54.5 56.5 98 44.5C100 44 99 44.833 98 44.5C87.5 47.125 62 63 62.5 93.5C71.5 93 84 98.5 85.5 104C93.5 98.5 109 104 109 115C113.331 114.463 113.736 114.62 118 112.5C117.2 117.3 112.833 118.833 109 122C107.667 124.5 105.8 127.7 101 128.5Z" fill="#A55E0A"></path>
    </g>
  </g>
  <path fill-rule="evenodd" clip-rule="evenodd" d="M 144.552 43.494 L 144.779 43.57 C 145.203 43.71 145.876 44.003 146.231 44.668 C 146.437 45.052 146.493 45.493 146.389 45.918 C 146.294 46.311 146.084 46.61 145.893 46.816 C 145.524 47.214 145.012 47.506 144.508 47.729 C 143.975 47.963 143.326 48.176 142.572 48.366 C 135.407 50.156 121.056 56.196 108.611 67.065 C 96.472 77.663 86.255 92.751 86.113 112.894 C 92.263 112.875 98.424 114.82 103.391 117.682 C 108.002 120.34 111.802 123.919 113.504 127.684 C 119.553 124.436 127.825 124.741 134.689 127.503 C 141.69 130.32 147.728 135.914 148.468 143.604 C 153.44 142.865 156.589 141.696 161.948 139.034 L 164.407 137.81 L 163.955 140.519 C 163.63 142.476 162.614 144.586 161.298 146.655 C 159.97 148.745 158.265 150.897 156.452 152.949 C 152.914 156.95 148.872 160.665 146.14 162.94 C 144.054 166.686 139.081 172.046 131.941 173.235 C 128.449 173.817 125.063 173.878 122.245 173.671 C 120.177 173.521 118.359 173.223 117.001 172.858 C 111.465 183.491 97.929 193.601 79.158 194.295 C 57.88 195.084 34.918 175.3 34.918 141.692 C 34.918 127.442 42.608 103.285 60.059 82.518 C 77.559 61.69 104.93 44.207 144.31 43.498 L 144.552 43.494 Z M 62.207 84.322 C 45.112 104.667 37.724 128.203 37.724 141.692 C 37.724 174.015 59.653 192.211 79.054 191.492 C 97.504 190.809 110.336 180.568 115.009 170.557 L 115.569 169.355 L 116.8 169.849 C 117.778 170.239 119.79 170.679 122.449 170.874 C 125.077 171.065 128.237 171.009 131.479 170.469 C 137.649 169.441 142.06 164.635 143.8 161.372 L 143.93 161.128 L 144.143 160.951 C 146.788 158.767 150.836 155.065 154.349 151.091 C 156.106 149.104 157.707 147.073 158.932 145.15 C 159.407 144.401 159.817 143.683 160.154 143.001 C 155.766 144.998 152.465 145.952 147.314 146.591 L 145.738 146.787 L 145.738 145.199 C 145.738 138.28 140.544 132.882 133.642 130.105 C 126.724 127.322 118.665 127.42 113.567 130.924 L 111.94 132.044 L 111.419 130.137 C 110.509 126.801 107.027 123.015 101.99 120.113 C 97.007 117.241 90.787 115.407 84.794 115.739 L 83.338 115.82 L 83.314 114.361 C 82.955 92.432 93.935 76.155 106.765 64.951 C 118.028 55.116 130.802 49.108 138.862 46.517 C 103.332 48.652 78.426 65.021 62.207 84.322 Z" fill="#030303" style="transform-origin: 99.662px 118.907px;"></path>
  <circle cx="126.099" cy="148.706" r="13.677" fill="#ED1D24" stroke="black" stroke-width="1.5" style=""></circle>
  <circle cx="126.099" cy="148.706" r="7.715" fill="#F26D5F" style=""></circle>
  <circle cx="128.204" cy="146.602" r="4.91" fill="#FBCABB" style=""></circle>
  <circle cx="79.106" cy="150.81" r="27.004" fill="#ED1D24" stroke="black" stroke-width="1.5" style=""></circle>
  <circle cx="79.807" cy="150.109" r="17.535" fill="#F26D5F" style=""></circle>
  <circle cx="83.314" cy="145.199" r="11.222" fill="#FBCABB" style=""></circle>
</svg>