<svg width="103" height="128" viewBox="0 0 103 128" fill="none" xmlns="http://www.w3.org/2000/svg">
<path d="M74.58 18.5C77.911 19.072 81.08 21 81.08 21C81.08 21 84.849 18.626 86.08 16.5C85.688 13.719 85.263 12.732 83.58 11C80.822 7.69 79.58 4 79.58 4C79.76 3.397 81.151 4.591 83.08 5.5C89.427 8.075 92.548 10.915 95.58 16.5C95.898 21.761 95.43 21.939 94.08 26.5C93.585 29.913 92.068 33.194 89.58 35.5C86.191 36.788 84.837 36.277 79.58 32.5C77.661 31.391 76.463 31.248 75.283 31.567C75.382 31.711 75.481 31.856 75.58 32C84.534 45.031 93.663 56.187 96.08 57.5C101.585 60.49 95.08 65 95.08 68C95.08 71 101.08 73.5 101.08 77.5C101.08 81.5 90.08 94 88.08 94C86.08 94 86.58 92 84.58 93C82.58 94 58.58 110 58.58 112.5C58.58 115.5 64.08 115 64.08 118C64.08 121 60.08 125.5 56.08 126C52.08 126.5 48.58 119 48.58 116.5C48.08 120.5 43.58 125 39.58 125C35.58 125 31.58 122.5 31.58 119.5C31.58 115 37.08 116.5 37.08 112.5C37.08 108.5 13.963 91.329 10.08 89C6.08 90.5 3.58 93 2.08 89.5C0.58 86 1.08 69.5 1.08 66.5C1.08 63.5 4.58 64 4.08 61.5C3.58 59 4.08 56.5 4.08 54C4.08 51.5 11.08 43 13.58 40.5C16.08 38 19.08 39 20.08 37.5C21.08 36 35.58 14.5 38.08 10.5C40.58 6.5 48.08 1 53.08 1C54.414 1 57.606 5.222 61.728 11.276L61.58 11C61.58 11 68.08 18 69.08 17C70.08 16 74.58 18.5 74.58 18.5Z" fill="url(#paint0_linear_5_92)" stroke="black" stroke-width="2"/>
<path d="M50.0001 25L47.5001 18C46.3334 18.5 44.4001 21.3 42.0001 22.5C39.0001 24 26.5 40.5 24.5 44C22.9 46.8 20.8334 53.5 20 56.5L20 56.5C19.3333 54.8333 17.8 51 17 53C16 55.5 13 61.5 13.5 68.5C14 75.5 15.5001 82.5 20.5001 87C25.5001 91.5 24.5 89 33.5 97.5C42.5 106 43.0001 105.5 50.0001 105.5C57.0001 105.5 63.5 95 64.5 92.5C65.5 90 69 90 74.5 87C78.9 84.6 82.5001 77.3333 83.0001 73C81.6667 73.5 82.9999 72.5 80 74.5C81.5 71 80.0001 58.5 76.0001 48C72.0001 37.5 59.0001 28 57.0001 28C55.4001 28 53.0001 24 50.0001 25Z" fill="url(#paint1_linear_5_92)" stroke="black" stroke-width="2"/>
<path d="M66.5 60.5C68 58 72.2015 51.5 74.3682 50L72.5 64C72 67.8333 71.3 74.5 70.5 76.5C69.5 79 69.5 81 63 83.5C56.5 86 54.3682 83 53.3682 82C52.3682 81 50.8682 73.5 53.3682 74C55.8682 74.5 60.5 72.5 62.5 70.5C64.5 68.5 65.1883 62.6862 66.5 60.5Z" fill="#F1F048" stroke="black"/>
<path d="M33 57C31.5 54.5 27.1667 51 25 49.5L27.5 62.5C28 66.3333 26.5 71.5 28.5 78C29.2919 80.5735 30.5 81.5 37 84C43.5 86.5 45 82.5 46 81.5C47 80.5 48.5 73 46 73.5C43.5 74 41.5 73.5 39.5 71.5C37.5 69.5 34.3117 59.1862 33 57Z" fill="#F1F048" stroke="black"/>
<defs>
<linearGradient id="paint0_linear_5_92" x1="51.04" y1="1" x2="51.04" y2="126.024" gradientUnits="userSpaceOnUse">
<stop stop-color="#985EA3"/>
<stop offset="1" stop-color="#603D7C"/>
</linearGradient>
<linearGradient id="paint1_linear_5_92" x1="48.2222" y1="18" x2="48.2222" y2="105.506" gradientUnits="userSpaceOnUse">
<stop stop-color="#3A2245"/>
<stop offset="1" stop-color="#0C0119"/>
</linearGradient>
</defs>
</svg>
