<svg clip-rule="evenodd" fill-rule="evenodd" stroke-linecap="round" stroke-linejoin="round" stroke-miterlimit="1.5" viewBox="0 0 220 220" xmlns="http://www.w3.org/2000/svg"><path d="m.0001.0001h220v220h-220z" fill="none"/><path d="m272 195.93c0-4.377-3.553-7.93-7.93-7.93h-45.14c-4.377 0-7.93 3.553-7.93 7.93v45.14c0 4.377 3.553 7.93 7.93 7.93h45.14c4.377 0 7.93-3.553 7.93-7.93z" fill="#007389" transform="matrix(.66073917 -.66073917 .66073917 .66073917 -194.049045 124.995534)"/><path d="m272 192.88c0-2.693-2.187-4.88-4.88-4.88h-51.24c-2.693 0-4.88 2.187-4.88 4.88v51.24c0 2.693 2.187 4.88 4.88 4.88h51.24c2.693 0 4.88-2.187 4.88-4.88z" fill="#00a8d8" transform="matrix(.59118812 -.59118812 .59118812 .59118812 -161.630169 119.942972)"/><path d="m222 200h37v37h-37z" fill="#5fc6e5" transform="matrix(.707107 -.707107 .707107 .707107 -214.317561 125.70844)"/><circle cx="250" cy="207" fill="#74cbe8" r="16" transform="matrix(.707107 -.707107 .707107 .707107 -213.964007 126.061993)"/><path d="m327.366 147.5h23.134v20.727c-2.565 1.75-5.664 2.773-9 2.773-8.831 0-16-7.169-16-16 0-2.709.675-5.263 1.866-7.5z" fill="#b3e0f1" transform="matrix(.707107 -.707107 .707107 .707107 -241.894734 227.531848)"/><path d="m272 195.93c0-4.377-3.553-7.93-7.93-7.93h-45.14c-4.377 0-7.93 3.553-7.93 7.93v45.14c0 4.377 3.553 7.93 7.93 7.93h45.14c4.377 0 7.93-3.553 7.93-7.93z" fill="none" stroke="#000" stroke-width="2.68" transform="matrix(.66073917 -.66073917 .66073917 .66073917 -194.049045 124.995534)"/><g transform="matrix(.707107 -.707107 .707107 .707107 -571.2919 484.1811)"><path d="m801.1 167.345c4.092 4.094 6.373 9.657 6.334 15.446-.118 17.262-.364 53.2-.364 53.2 0 1.657-1.343 3-3 3-4.319 0-12.243 0-16.563 0-1.656 0-2.999-1.343-2.999-3 0-8.781 0-34.658 0-48.182 0-2.241-.891-4.391-2.476-5.976s-3.734-2.475-5.976-2.475c-24.012 0-91.878 0-106.973 0-1.657 0-3-1.343-3-3 0-4.374 0-12.454 0-16.828 0-1.657 1.343-3 3-3h93.002l-8.327-26.065c-.553-1.732.15-3.618 1.703-4.564 1.414-.862 3.199-.74 4.477.261 0 0 28.189 28.203 41.162 41.183z" fill="#8c857a" stroke="#000" stroke-width="2.5"/><path d="m774.947 142.703s16.6 16.504 24.545 24.403c2.648 2.633 4.122 6.224 4.086 9.959-.129 13.461-.441 46.077-.512 53.422-.008.822-.677 1.485-1.5 1.485-2.272 0-6.586 0-8.865 0-.827 0-1.498-.67-1.5-1.497-.01-6.385-.051-31.68-.075-46.59-.009-6.163-5.008-11.154-11.171-11.154h-105.279c-.828 0-1.5-.672-1.5-1.5 0-2.396 0-7.06 0-9.456 0-.829.672-1.5 1.5-1.5h91.029c1.034 0 2.007-.491 2.622-1.323.614-.831.798-1.906.494-2.894-1.943-6.33-5.586-18.193-7.461-24.301-.135-.44.046-.914.44-1.151s.899-.175 1.223.151c4.292 4.299 11.924 11.946 11.924 11.946z" fill="#e5dfce"/><path d="m801.1 167.345c4.092 4.094 6.373 9.657 6.334 15.446-.118 17.262-.364 53.2-.364 53.2 0 1.657-1.343 3-3 3-4.319 0-12.243 0-16.563 0-1.656 0-2.999-1.343-2.999-3 0-8.781 0-34.658 0-48.182 0-2.241-.891-4.391-2.476-5.976s-3.734-2.475-5.976-2.475c-24.012 0-91.878 0-106.973 0-1.657 0-3-1.343-3-3 0-4.374 0-12.454 0-16.828 0-1.657 1.343-3 3-3h93.002l-8.327-26.065c-.553-1.732.15-3.618 1.703-4.564 1.414-.862 3.199-.74 4.477.261 0 0 28.189 28.203 41.162 41.183z" fill="none" stroke="#000" stroke-width="2.5"/></g><path d="m800.959 166.983c4.107 4.088 6.404 9.652 6.375 15.446-.085 17.349-.264 53.562-.264 53.562 0 1.657-1.343 3-3 3-4.319 0-12.243 0-16.563 0-1.656 0-2.999-1.343-2.999-3 0-8.781 0-34.658 0-48.182 0-2.241-.891-4.391-2.476-5.976s-3.734-2.475-5.976-2.475c-24.012 0-91.878 0-106.973 0-1.657 0-3-1.343-3-3 0-4.374 0-12.454 0-16.828 0-1.657 1.343-3 3-3h91.734l-7.059-26.065c-.553-1.732.15-3.618 1.703-4.564 1.414-.862 3.199-.74 4.477.261 0 0 28.062 27.925 41.021 40.821z" fill="#8c857a" stroke="#000" stroke-width="2.5" transform="matrix(-.707107 .707107 -.707107 -.707107 791.292682 -264.344693)"/><path d="m773.881 143.719.011.039s17.088 17.087 25.102 25.101c2.598 2.599 4.058 6.123 4.058 9.798v51.815c0 .398-.158.78-.439 1.061-.282.281-.663.439-1.061.439-2.276 0-6.576 0-8.851 0-.827 0-1.498-.67-1.5-1.497-.01-6.385-.051-31.68-.075-46.59-.009-6.163-5.008-11.154-11.171-11.154h-105.279c-.828 0-1.5-.672-1.5-1.5 0-2.396 0-7.06 0-9.456 0-.829.672-1.5 1.5-1.5h91.142c1.02 0 1.981-.478 2.597-1.29.617-.813.817-1.867.542-2.849-1.541-5.504-4.241-15.149-5.714-20.409-.123-.438.066-.903.458-1.133.393-.229.89-.165 1.212.157 3.446 3.446 8.968 8.968 8.968 8.968z" fill="#e5dfce" transform="matrix(-.707107 .707107 -.707107 -.707107 791.511178 -268.694108)"/><path d="m800.959 166.983c4.107 4.088 6.404 9.652 6.375 15.446-.085 17.349-.264 53.562-.264 53.562 0 1.657-1.343 3-3 3-4.319 0-12.243 0-16.563 0-1.656 0-2.999-1.343-2.999-3 0-8.781 0-34.658 0-48.182 0-2.241-.891-4.391-2.476-5.976s-3.734-2.475-5.976-2.475c-24.012 0-91.878 0-106.973 0-1.657 0-3-1.343-3-3 0-4.374 0-12.454 0-16.828 0-1.657 1.343-3 3-3h91.734l-7.059-26.065c-.553-1.732.15-3.618 1.703-4.564 1.414-.862 3.199-.74 4.477.261 0 0 28.062 27.925 41.021 40.821z" fill="none" stroke="#000" stroke-width="2.5" transform="matrix(-.707107 .707107 -.707107 -.707107 791.292682 -264.344693)"/></svg>