<svg clip-rule="evenodd" fill-rule="evenodd" stroke-linecap="round" stroke-linejoin="round" stroke-miterlimit="1.5" viewBox="0 0 220 220" xmlns="http://www.w3.org/2000/svg"><path d="m0 .0001h220v220h-220z" fill="none"/><g transform="translate(-359.229 -332.4959)"><path d="m469 525.975c-9.667-1.082-14.542-4.975-14.542-4.975-57.059-35.438-54-87-54-87 1.385-77.262 68.664-75.004 68.771-75 .107-.004 67.386-2.262 68.771 75 0 0 3.059 51.562-54 87 0 0-4.951 3.955-14.771 5z" fill="#447c36" stroke="#000" stroke-width="2.5"/><path d="m469 525.975c-9.667-1.082-14.542-4.975-14.542-4.975-57.059-35.438-54-87-54-87 1.385-77.262 68.664-75.004 68.771-75 .107-.004 67.386-2.262 68.771 75 0 0 3.059 51.562-54 87 0 0-4.951 3.955-14.771 5z" fill="#68bd46" transform="matrix(.881983 0 0 .886233 55.3772 44.8416)"/><path d="m469.062 494.934c-28.49-11.309-38.604-56.934-38.604-56.934-6.552-47.348 38.771-49 38.771-49l.033.001c1.37.062 45.187 2.39 38.738 48.999 0 0-10.154 45.803-38.771 57z" fill="#9bcb3c"/><path d="m409.518 416.985c7.743-55.739 59.623-53.989 59.711-53.986.083-.003 46.153-1.557 57.948 44.899-15.137 17.162-37.995 28.102-63.551 28.102-20.694 0-39.619-7.173-54.108-19.015z" fill="#89c540"/><path d="m429.811 429.202c-.057-24.18 19.523-39.381 38.536-40.202 19.412-.838 38.285 15.076 40.024 34.607-23.415 14.238-53.297 16.285-78.56 5.595z" fill="#c3d930" transform="translate(-.00029 .031641)"/></g><g transform="matrix(1.06415 0 0 1.06415 -148.677 -360.8432)"><path d="m280 421s-17.79 4.697-27 30c0 0-1.803 7.469.467 10 0 0 2.705 5.176 16.533 1 0 0 30.76-13.369 26-35 0 0-1.349-9.786-16-6z" fill="#341a55" stroke="#000" stroke-width="1.88"/><path d="m258.406 451.767s1.75-30.332 31.031-31.265c0 0 2.334 31.732-31.031 31.265z" fill="#522e91"/><path d="m280 421s-17.79 4.697-27 30c0 0-1.803 7.469.467 10 0 0 2.705 5.176 16.533 1 0 0 30.76-13.369 26-35 0 0-1.349-9.786-16-6z" fill="none" stroke="#000" stroke-width="1.88"/></g><g transform="matrix(-1.06415 0 0 1.06415 368.975 -360.8432)"><path d="m280 421s-17.79 4.697-27 30c0 0-1.803 7.469.467 10 0 0 2.705 5.176 16.533 1 0 0 30.76-13.369 26-35 0 0-1.349-9.786-16-6z" fill="#341a55" stroke="#000" stroke-width="1.88"/><path d="m258.406 451.767s1.75-30.332 31.031-31.265c0 0 2.334 31.732-31.031 31.265z" fill="#522e91"/><path d="m280 421s-17.79 4.697-27 30c0 0-1.803 7.469.467 10 0 0 2.705 5.176 16.533 1 0 0 30.76-13.369 26-35 0 0-1.349-9.786-16-6z" fill="none" stroke="#000" stroke-width="1.88"/></g></svg>